<svg width="1440" height="650" viewBox="0 0 1440 650" fill="none" xmlns="http://www.w3.org/2000/svg">
<rect width="1440" height="650" fill="black"/>
<path d="M348.184 428.14C347.68 427.169 346.98 426.441 346.084 425.956C345.188 425.452 344.152 425.2 342.976 425.2C341.688 425.2 340.54 425.489 339.532 426.068C338.524 426.647 337.731 427.468 337.152 428.532C336.592 429.596 336.312 430.828 336.312 432.228C336.312 433.628 336.592 434.869 337.152 435.952C337.731 437.016 338.524 437.837 339.532 438.416C340.54 438.995 341.688 439.284 342.976 439.284C344.712 439.284 346.121 438.799 347.204 437.828C348.287 436.857 348.949 435.541 349.192 433.88H341.884V431.332H352.608V433.824C352.403 435.336 351.861 436.727 350.984 437.996C350.125 439.265 348.996 440.283 347.596 441.048C346.215 441.795 344.675 442.168 342.976 442.168C341.147 442.168 339.476 441.748 337.964 440.908C336.452 440.049 335.248 438.864 334.352 437.352C333.475 435.84 333.036 434.132 333.036 432.228C333.036 430.324 333.475 428.616 334.352 427.104C335.248 425.592 336.452 424.416 337.964 423.576C339.495 422.717 341.165 422.288 342.976 422.288C345.048 422.288 346.887 422.801 348.492 423.828C350.116 424.836 351.292 426.273 352.02 428.14H348.184ZM362.448 442.252C360.992 442.252 359.676 441.925 358.5 441.272C357.324 440.6 356.4 439.667 355.728 438.472C355.056 437.259 354.72 435.859 354.72 434.272C354.72 432.704 355.066 431.313 355.756 430.1C356.447 428.887 357.39 427.953 358.584 427.3C359.779 426.647 361.114 426.32 362.588 426.32C364.063 426.32 365.398 426.647 366.592 427.3C367.787 427.953 368.73 428.887 369.42 430.1C370.111 431.313 370.456 432.704 370.456 434.272C370.456 435.84 370.102 437.231 369.392 438.444C368.683 439.657 367.712 440.6 366.48 441.272C365.267 441.925 363.923 442.252 362.448 442.252ZM362.448 439.48C363.27 439.48 364.035 439.284 364.744 438.892C365.472 438.5 366.06 437.912 366.508 437.128C366.956 436.344 367.18 435.392 367.18 434.272C367.18 433.152 366.966 432.209 366.536 431.444C366.107 430.66 365.538 430.072 364.828 429.68C364.119 429.288 363.354 429.092 362.532 429.092C361.711 429.092 360.946 429.288 360.236 429.68C359.546 430.072 358.995 430.66 358.584 431.444C358.174 432.209 357.968 433.152 357.968 434.272C357.968 435.933 358.388 437.221 359.228 438.136C360.087 439.032 361.16 439.48 362.448 439.48ZM376.804 439.424H383.384V442H373.612V422.54H376.804V439.424ZM387.677 424.528C387.098 424.528 386.613 424.332 386.221 423.94C385.829 423.548 385.633 423.063 385.633 422.484C385.633 421.905 385.829 421.42 386.221 421.028C386.613 420.636 387.098 420.44 387.677 420.44C388.237 420.44 388.713 420.636 389.105 421.028C389.497 421.42 389.693 421.905 389.693 422.484C389.693 423.063 389.497 423.548 389.105 423.94C388.713 424.332 388.237 424.528 387.677 424.528ZM389.245 426.572V442H386.053V426.572H389.245ZM397.16 429.176V437.716C397.16 438.295 397.291 438.715 397.552 438.976C397.832 439.219 398.299 439.34 398.952 439.34H400.912V442H398.392C396.955 442 395.853 441.664 395.088 440.992C394.323 440.32 393.94 439.228 393.94 437.716V429.176H392.12V426.572H393.94V422.736H397.16V426.572H400.912V429.176H397.16ZM417.994 433.908C417.994 434.487 417.957 435.009 417.882 435.476H406.094C406.187 436.708 406.645 437.697 407.466 438.444C408.287 439.191 409.295 439.564 410.49 439.564C412.207 439.564 413.421 438.845 414.13 437.408H417.574C417.107 438.827 416.258 439.993 415.026 440.908C413.813 441.804 412.301 442.252 410.49 442.252C409.015 442.252 407.69 441.925 406.514 441.272C405.357 440.6 404.442 439.667 403.77 438.472C403.117 437.259 402.79 435.859 402.79 434.272C402.79 432.685 403.107 431.295 403.742 430.1C404.395 428.887 405.301 427.953 406.458 427.3C407.634 426.647 408.978 426.32 410.49 426.32C411.946 426.32 413.243 426.637 414.382 427.272C415.521 427.907 416.407 428.803 417.042 429.96C417.677 431.099 417.994 432.415 417.994 433.908ZM414.662 432.9C414.643 431.724 414.223 430.781 413.402 430.072C412.581 429.363 411.563 429.008 410.35 429.008C409.249 429.008 408.306 429.363 407.522 430.072C406.738 430.763 406.271 431.705 406.122 432.9H414.662ZM447.085 426.32C448.298 426.32 449.381 426.572 450.333 427.076C451.303 427.58 452.059 428.327 452.601 429.316C453.161 430.305 453.441 431.5 453.441 432.9V442H450.277V433.376C450.277 431.995 449.931 430.94 449.241 430.212C448.55 429.465 447.607 429.092 446.413 429.092C445.218 429.092 444.266 429.465 443.557 430.212C442.866 430.94 442.521 431.995 442.521 433.376V442H439.357V433.376C439.357 431.995 439.011 430.94 438.321 430.212C437.63 429.465 436.687 429.092 435.493 429.092C434.298 429.092 433.346 429.465 432.637 430.212C431.946 430.94 431.601 431.995 431.601 433.376V442H428.409V426.572H431.601V428.336C432.123 427.701 432.786 427.207 433.589 426.852C434.391 426.497 435.25 426.32 436.165 426.32C437.397 426.32 438.498 426.581 439.469 427.104C440.439 427.627 441.186 428.383 441.709 429.372C442.175 428.439 442.903 427.701 443.893 427.16C444.882 426.6 445.946 426.32 447.085 426.32ZM471.642 433.908C471.642 434.487 471.605 435.009 471.53 435.476H459.742C459.836 436.708 460.293 437.697 461.114 438.444C461.936 439.191 462.944 439.564 464.138 439.564C465.856 439.564 467.069 438.845 467.778 437.408H471.222C470.756 438.827 469.906 439.993 468.674 440.908C467.461 441.804 465.949 442.252 464.138 442.252C462.664 442.252 461.338 441.925 460.162 441.272C459.005 440.6 458.09 439.667 457.418 438.472C456.765 437.259 456.438 435.859 456.438 434.272C456.438 432.685 456.756 431.295 457.39 430.1C458.044 428.887 458.949 427.953 460.106 427.3C461.282 426.647 462.626 426.32 464.138 426.32C465.594 426.32 466.892 426.637 468.03 427.272C469.169 427.907 470.056 428.803 470.69 429.96C471.325 431.099 471.642 432.415 471.642 433.908ZM468.31 432.9C468.292 431.724 467.872 430.781 467.05 430.072C466.229 429.363 465.212 429.008 463.998 429.008C462.897 429.008 461.954 429.363 461.17 430.072C460.386 430.763 459.92 431.705 459.77 432.9H468.31ZM493.46 426.32C494.673 426.32 495.756 426.572 496.708 427.076C497.678 427.58 498.434 428.327 498.976 429.316C499.536 430.305 499.816 431.5 499.816 432.9V442H496.652V433.376C496.652 431.995 496.306 430.94 495.616 430.212C494.925 429.465 493.982 429.092 492.788 429.092C491.593 429.092 490.641 429.465 489.932 430.212C489.241 430.94 488.896 431.995 488.896 433.376V442H485.732V433.376C485.732 431.995 485.386 430.94 484.696 430.212C484.005 429.465 483.062 429.092 481.868 429.092C480.673 429.092 479.721 429.465 479.012 430.212C478.321 430.94 477.976 431.995 477.976 433.376V442H474.784V426.572H477.976V428.336C478.498 427.701 479.161 427.207 479.964 426.852C480.766 426.497 481.625 426.32 482.54 426.32C483.772 426.32 484.873 426.581 485.844 427.104C486.814 427.627 487.561 428.383 488.084 429.372C488.55 428.439 489.278 427.701 490.268 427.16C491.257 426.6 492.321 426.32 493.46 426.32ZM507.069 428.84C507.611 428.131 508.348 427.533 509.281 427.048C510.215 426.563 511.269 426.32 512.445 426.32C513.789 426.32 515.012 426.656 516.113 427.328C517.233 427.981 518.111 428.905 518.745 430.1C519.38 431.295 519.697 432.667 519.697 434.216C519.697 435.765 519.38 437.156 518.745 438.388C518.111 439.601 517.233 440.553 516.113 441.244C515.012 441.916 513.789 442.252 512.445 442.252C511.269 442.252 510.224 442.019 509.309 441.552C508.395 441.067 507.648 440.469 507.069 439.76V449.336H503.877V426.572H507.069V428.84ZM516.449 434.216C516.449 433.152 516.225 432.237 515.777 431.472C515.348 430.688 514.769 430.1 514.041 429.708C513.332 429.297 512.567 429.092 511.745 429.092C510.943 429.092 510.177 429.297 509.449 429.708C508.74 430.119 508.161 430.716 507.713 431.5C507.284 432.284 507.069 433.208 507.069 434.272C507.069 435.336 507.284 436.269 507.713 437.072C508.161 437.856 508.74 438.453 509.449 438.864C510.177 439.275 510.943 439.48 511.745 439.48C512.567 439.48 513.332 439.275 514.041 438.864C514.769 438.435 515.348 437.819 515.777 437.016C516.225 436.213 516.449 435.28 516.449 434.216ZM536.826 426.572V442H533.634V440.18C533.13 440.815 532.467 441.319 531.646 441.692C530.843 442.047 529.985 442.224 529.07 442.224C527.857 442.224 526.765 441.972 525.794 441.468C524.842 440.964 524.086 440.217 523.526 439.228C522.985 438.239 522.714 437.044 522.714 435.644V426.572H525.878V435.168C525.878 436.549 526.223 437.613 526.914 438.36C527.605 439.088 528.547 439.452 529.742 439.452C530.937 439.452 531.879 439.088 532.57 438.36C533.279 437.613 533.634 436.549 533.634 435.168V426.572H536.826ZM548.822 426.32C550.035 426.32 551.118 426.572 552.07 427.076C553.04 427.58 553.796 428.327 554.338 429.316C554.879 430.305 555.15 431.5 555.15 432.9V442H551.986V433.376C551.986 431.995 551.64 430.94 550.95 430.212C550.259 429.465 549.316 429.092 548.122 429.092C546.927 429.092 545.975 429.465 545.266 430.212C544.575 430.94 544.23 431.995 544.23 433.376V442H541.038V426.572H544.23V428.336C544.752 427.701 545.415 427.207 546.218 426.852C547.039 426.497 547.907 426.32 548.822 426.32ZM573.109 426.572L563.645 449.252H560.341L563.477 441.748L557.401 426.572H560.957L565.297 438.332L569.805 426.572H573.109ZM574.454 434.216C574.454 432.667 574.771 431.295 575.406 430.1C576.059 428.905 576.937 427.981 578.038 427.328C579.158 426.656 580.39 426.32 581.734 426.32C582.947 426.32 584.002 426.563 584.898 427.048C585.813 427.515 586.541 428.103 587.082 428.812V426.572H590.302V442H587.082V439.704C586.541 440.432 585.803 441.039 584.87 441.524C583.937 442.009 582.873 442.252 581.678 442.252C580.353 442.252 579.139 441.916 578.038 441.244C576.937 440.553 576.059 439.601 575.406 438.388C574.771 437.156 574.454 435.765 574.454 434.216ZM587.082 434.272C587.082 433.208 586.858 432.284 586.41 431.5C585.981 430.716 585.411 430.119 584.702 429.708C583.993 429.297 583.227 429.092 582.406 429.092C581.585 429.092 580.819 429.297 580.11 429.708C579.401 430.1 578.822 430.688 578.374 431.472C577.945 432.237 577.73 433.152 577.73 434.216C577.73 435.28 577.945 436.213 578.374 437.016C578.822 437.819 579.401 438.435 580.11 438.864C580.838 439.275 581.603 439.48 582.406 439.48C583.227 439.48 583.993 439.275 584.702 438.864C585.411 438.453 585.981 437.856 586.41 437.072C586.858 436.269 587.082 435.336 587.082 434.272ZM596.119 424.528C595.54 424.528 595.055 424.332 594.663 423.94C594.271 423.548 594.075 423.063 594.075 422.484C594.075 421.905 594.271 421.42 594.663 421.028C595.055 420.636 595.54 420.44 596.119 420.44C596.679 420.44 597.155 420.636 597.547 421.028C597.939 421.42 598.135 421.905 598.135 422.484C598.135 423.063 597.939 423.548 597.547 423.94C597.155 424.332 596.679 424.528 596.119 424.528ZM597.687 426.572V442H594.495V426.572H597.687ZM615.619 429.176H612.763V442H609.543V429.176H607.723V426.572H609.543V425.48C609.543 423.707 610.009 422.419 610.943 421.616C611.895 420.795 613.379 420.384 615.395 420.384V423.044C614.424 423.044 613.743 423.231 613.351 423.604C612.959 423.959 612.763 424.584 612.763 425.48V426.572H615.619V429.176ZM620.072 424.528C619.493 424.528 619.008 424.332 618.616 423.94C618.224 423.548 618.028 423.063 618.028 422.484C618.028 421.905 618.224 421.42 618.616 421.028C619.008 420.636 619.493 420.44 620.072 420.44C620.632 420.44 621.108 420.636 621.5 421.028C621.892 421.42 622.088 421.905 622.088 422.484C622.088 423.063 621.892 423.548 621.5 423.94C621.108 424.332 620.632 424.528 620.072 424.528ZM621.64 426.572V442H618.448V426.572H621.64ZM629.554 429.176V437.716C629.554 438.295 629.685 438.715 629.946 438.976C630.226 439.219 630.693 439.34 631.346 439.34H633.306V442H630.786C629.349 442 628.248 441.664 627.482 440.992C626.717 440.32 626.334 439.228 626.334 437.716V429.176H624.514V426.572H626.334V422.736H629.554V426.572H633.306V429.176H629.554ZM650.22 426.572V442H647.028V440.18C646.524 440.815 645.862 441.319 645.04 441.692C644.238 442.047 643.379 442.224 642.464 442.224C641.251 442.224 640.159 441.972 639.188 441.468C638.236 440.964 637.48 440.217 636.92 439.228C636.379 438.239 636.108 437.044 636.108 435.644V426.572H639.272V435.168C639.272 436.549 639.618 437.613 640.308 438.36C640.999 439.088 641.942 439.452 643.136 439.452C644.331 439.452 645.274 439.088 645.964 438.36C646.674 437.613 647.028 436.549 647.028 435.168V426.572H650.22ZM657.624 428.812C658.091 428.028 658.707 427.421 659.472 426.992C660.256 426.544 661.18 426.32 662.244 426.32V429.624H661.432C660.181 429.624 659.229 429.941 658.576 430.576C657.941 431.211 657.624 432.312 657.624 433.88V442H654.432V426.572H657.624V428.812ZM671.388 434.272C671.388 432.685 671.705 431.295 672.34 430.1C672.993 428.887 673.889 427.953 675.028 427.3C676.166 426.647 677.473 426.32 678.948 426.32C680.814 426.32 682.354 426.768 683.568 427.664C684.8 428.541 685.63 429.801 686.06 431.444H682.616C682.336 430.679 681.888 430.081 681.272 429.652C680.656 429.223 679.881 429.008 678.948 429.008C677.641 429.008 676.596 429.475 675.812 430.408C675.046 431.323 674.664 432.611 674.664 434.272C674.664 435.933 675.046 437.231 675.812 438.164C676.596 439.097 677.641 439.564 678.948 439.564C680.796 439.564 682.018 438.752 682.616 437.128H686.06C685.612 438.696 684.772 439.947 683.54 440.88C682.308 441.795 680.777 442.252 678.948 442.252C677.473 442.252 676.166 441.925 675.028 441.272C673.889 440.6 672.993 439.667 672.34 438.472C671.705 437.259 671.388 435.859 671.388 434.272ZM697.221 426.32C698.397 426.32 699.442 426.572 700.357 427.076C701.29 427.58 702.018 428.327 702.541 429.316C703.082 430.305 703.353 431.5 703.353 432.9V442H700.189V433.376C700.189 431.995 699.843 430.94 699.153 430.212C698.462 429.465 697.519 429.092 696.325 429.092C695.13 429.092 694.178 429.465 693.469 430.212C692.778 430.94 692.433 431.995 692.433 433.376V442H689.241V421.28H692.433V428.364C692.974 427.711 693.655 427.207 694.477 426.852C695.317 426.497 696.231 426.32 697.221 426.32ZM706.36 434.216C706.36 432.667 706.678 431.295 707.312 430.1C707.966 428.905 708.843 427.981 709.944 427.328C711.064 426.656 712.296 426.32 713.64 426.32C714.854 426.32 715.908 426.563 716.804 427.048C717.719 427.515 718.447 428.103 718.988 428.812V426.572H722.208V442H718.988V439.704C718.447 440.432 717.71 441.039 716.776 441.524C715.843 442.009 714.779 442.252 713.584 442.252C712.259 442.252 711.046 441.916 709.944 441.244C708.843 440.553 707.966 439.601 707.312 438.388C706.678 437.156 706.36 435.765 706.36 434.216ZM718.988 434.272C718.988 433.208 718.764 432.284 718.316 431.5C717.887 430.716 717.318 430.119 716.608 429.708C715.899 429.297 715.134 429.092 714.312 429.092C713.491 429.092 712.726 429.297 712.016 429.708C711.307 430.1 710.728 430.688 710.28 431.472C709.851 432.237 709.636 433.152 709.636 434.216C709.636 435.28 709.851 436.213 710.28 437.016C710.728 437.819 711.307 438.435 712.016 438.864C712.744 439.275 713.51 439.48 714.312 439.48C715.134 439.48 715.899 439.275 716.608 438.864C717.318 438.453 717.887 437.856 718.316 437.072C718.764 436.269 718.988 435.336 718.988 434.272ZM729.593 421.28V442H726.401V421.28H729.593ZM736.976 421.28V442H733.784V421.28H736.976ZM755.306 433.908C755.306 434.487 755.269 435.009 755.194 435.476H743.406C743.5 436.708 743.957 437.697 744.778 438.444C745.6 439.191 746.608 439.564 747.802 439.564C749.52 439.564 750.733 438.845 751.442 437.408H754.886C754.42 438.827 753.57 439.993 752.338 440.908C751.125 441.804 749.613 442.252 747.802 442.252C746.328 442.252 745.002 441.925 743.826 441.272C742.669 440.6 741.754 439.667 741.082 438.472C740.429 437.259 740.102 435.859 740.102 434.272C740.102 432.685 740.42 431.295 741.054 430.1C741.708 428.887 742.613 427.953 743.77 427.3C744.946 426.647 746.29 426.32 747.802 426.32C749.258 426.32 750.556 426.637 751.694 427.272C752.833 427.907 753.72 428.803 754.354 429.96C754.989 431.099 755.306 432.415 755.306 433.908ZM751.974 432.9C751.956 431.724 751.536 430.781 750.714 430.072C749.893 429.363 748.876 429.008 747.662 429.008C746.561 429.008 745.618 429.363 744.834 430.072C744.05 430.763 743.584 431.705 743.434 432.9H751.974ZM766.232 426.32C767.445 426.32 768.528 426.572 769.48 427.076C770.45 427.58 771.206 428.327 771.748 429.316C772.289 430.305 772.56 431.5 772.56 432.9V442H769.396V433.376C769.396 431.995 769.05 430.94 768.36 430.212C767.669 429.465 766.726 429.092 765.532 429.092C764.337 429.092 763.385 429.465 762.676 430.212C761.985 430.94 761.64 431.995 761.64 433.376V442H758.448V426.572H761.64V428.336C762.162 427.701 762.825 427.207 763.628 426.852C764.449 426.497 765.317 426.32 766.232 426.32ZM782.847 426.32C784.042 426.32 785.097 426.563 786.011 427.048C786.945 427.515 787.673 428.103 788.195 428.812V426.572H791.415V442.252C791.415 443.671 791.117 444.931 790.519 446.032C789.922 447.152 789.054 448.029 787.915 448.664C786.795 449.299 785.451 449.616 783.883 449.616C781.793 449.616 780.057 449.121 778.675 448.132C777.294 447.161 776.51 445.836 776.323 444.156H779.487C779.73 444.959 780.243 445.603 781.027 446.088C781.83 446.592 782.782 446.844 783.883 446.844C785.171 446.844 786.207 446.452 786.991 445.668C787.794 444.884 788.195 443.745 788.195 442.252V439.676C787.654 440.404 786.917 441.02 785.983 441.524C785.069 442.009 784.023 442.252 782.847 442.252C781.503 442.252 780.271 441.916 779.151 441.244C778.05 440.553 777.173 439.601 776.519 438.388C775.885 437.156 775.567 435.765 775.567 434.216C775.567 432.667 775.885 431.295 776.519 430.1C777.173 428.905 778.05 427.981 779.151 427.328C780.271 426.656 781.503 426.32 782.847 426.32ZM788.195 434.272C788.195 433.208 787.971 432.284 787.523 431.5C787.094 430.716 786.525 430.119 785.815 429.708C785.106 429.297 784.341 429.092 783.519 429.092C782.698 429.092 781.933 429.297 781.223 429.708C780.514 430.1 779.935 430.688 779.487 431.472C779.058 432.237 778.843 433.152 778.843 434.216C778.843 435.28 779.058 436.213 779.487 437.016C779.935 437.819 780.514 438.435 781.223 438.864C781.951 439.275 782.717 439.48 783.519 439.48C784.341 439.48 785.106 439.275 785.815 438.864C786.525 438.453 787.094 437.856 787.523 437.072C787.971 436.269 788.195 435.336 788.195 434.272ZM809.748 433.908C809.748 434.487 809.71 435.009 809.636 435.476H797.848C797.941 436.708 798.398 437.697 799.22 438.444C800.041 439.191 801.049 439.564 802.244 439.564C803.961 439.564 805.174 438.845 805.884 437.408H809.328C808.861 438.827 808.012 439.993 806.78 440.908C805.566 441.804 804.054 442.252 802.244 442.252C800.769 442.252 799.444 441.925 798.268 441.272C797.11 440.6 796.196 439.667 795.524 438.472C794.87 437.259 794.544 435.859 794.544 434.272C794.544 432.685 794.861 431.295 795.496 430.1C796.149 428.887 797.054 427.953 798.212 427.3C799.388 426.647 800.732 426.32 802.244 426.32C803.7 426.32 804.997 426.637 806.136 427.272C807.274 427.907 808.161 428.803 808.796 429.96C809.43 431.099 809.748 432.415 809.748 433.908ZM806.416 432.9C806.397 431.724 805.977 430.781 805.156 430.072C804.334 429.363 803.317 429.008 802.104 429.008C801.002 429.008 800.06 429.363 799.276 430.072C798.492 430.763 798.025 431.705 797.876 432.9H806.416ZM834.051 426.572L824.587 449.252H821.283L824.419 441.748L818.343 426.572H821.899L826.239 438.332L830.747 426.572H834.051ZM835.395 434.216C835.395 432.667 835.713 431.295 836.347 430.1C837.001 428.905 837.878 427.981 838.979 427.328C840.099 426.656 841.331 426.32 842.675 426.32C843.889 426.32 844.943 426.563 845.839 427.048C846.754 427.515 847.482 428.103 848.023 428.812V426.572H851.243V442H848.023V439.704C847.482 440.432 846.745 441.039 845.811 441.524C844.878 442.009 843.814 442.252 842.619 442.252C841.294 442.252 840.081 441.916 838.979 441.244C837.878 440.553 837.001 439.601 836.347 438.388C835.713 437.156 835.395 435.765 835.395 434.216ZM848.023 434.272C848.023 433.208 847.799 432.284 847.351 431.5C846.922 430.716 846.353 430.119 845.643 429.708C844.934 429.297 844.169 429.092 843.347 429.092C842.526 429.092 841.761 429.297 841.051 429.708C840.342 430.1 839.763 430.688 839.315 431.472C838.886 432.237 838.671 433.152 838.671 434.216C838.671 435.28 838.886 436.213 839.315 437.016C839.763 437.819 840.342 438.435 841.051 438.864C841.779 439.275 842.545 439.48 843.347 439.48C844.169 439.48 844.934 439.275 845.643 438.864C846.353 438.453 846.922 437.856 847.351 437.072C847.799 436.269 848.023 435.336 848.023 434.272ZM863.22 426.32C864.433 426.32 865.516 426.572 866.468 427.076C867.439 427.58 868.195 428.327 868.736 429.316C869.277 430.305 869.548 431.5 869.548 432.9V442H866.384V433.376C866.384 431.995 866.039 430.94 865.348 430.212C864.657 429.465 863.715 429.092 862.52 429.092C861.325 429.092 860.373 429.465 859.664 430.212C858.973 430.94 858.628 431.995 858.628 433.376V442H855.436V426.572H858.628V428.336C859.151 427.701 859.813 427.207 860.616 426.852C861.437 426.497 862.305 426.32 863.22 426.32ZM879.836 426.32C881.03 426.32 882.085 426.563 883 427.048C883.933 427.515 884.661 428.103 885.184 428.812V426.572H888.404V442.252C888.404 443.671 888.105 444.931 887.508 446.032C886.91 447.152 886.042 448.029 884.904 448.664C883.784 449.299 882.44 449.616 880.872 449.616C878.781 449.616 877.045 449.121 875.664 448.132C874.282 447.161 873.498 445.836 873.312 444.156H876.476C876.718 444.959 877.232 445.603 878.016 446.088C878.818 446.592 879.77 446.844 880.872 446.844C882.16 446.844 883.196 446.452 883.98 445.668C884.782 444.884 885.184 443.745 885.184 442.252V439.676C884.642 440.404 883.905 441.02 882.972 441.524C882.057 442.009 881.012 442.252 879.836 442.252C878.492 442.252 877.26 441.916 876.14 441.244C875.038 440.553 874.161 439.601 873.508 438.388C872.873 437.156 872.556 435.765 872.556 434.216C872.556 432.667 872.873 431.295 873.508 430.1C874.161 428.905 875.038 427.981 876.14 427.328C877.26 426.656 878.492 426.32 879.836 426.32ZM885.184 434.272C885.184 433.208 884.96 432.284 884.512 431.5C884.082 430.716 883.513 430.119 882.804 429.708C882.094 429.297 881.329 429.092 880.508 429.092C879.686 429.092 878.921 429.297 878.212 429.708C877.502 430.1 876.924 430.688 876.476 431.472C876.046 432.237 875.832 433.152 875.832 434.216C875.832 435.28 876.046 436.213 876.476 437.016C876.924 437.819 877.502 438.435 878.212 438.864C878.94 439.275 879.705 439.48 880.508 439.48C881.329 439.48 882.094 439.275 882.804 438.864C883.513 438.453 884.082 437.856 884.512 437.072C884.96 436.269 885.184 435.336 885.184 434.272ZM903.062 428.868C903.603 428.121 904.34 427.515 905.274 427.048C906.226 426.563 907.28 426.32 908.438 426.32C909.8 426.32 911.032 426.647 912.134 427.3C913.235 427.953 914.103 428.887 914.738 430.1C915.372 431.295 915.69 432.667 915.69 434.216C915.69 435.765 915.372 437.156 914.738 438.388C914.103 439.601 913.226 440.553 912.106 441.244C911.004 441.916 909.782 442.252 908.438 442.252C907.243 442.252 906.179 442.019 905.246 441.552C904.331 441.085 903.603 440.488 903.062 439.76V442H899.87V421.28H903.062V428.868ZM912.442 434.216C912.442 433.152 912.218 432.237 911.77 431.472C911.34 430.688 910.762 430.1 910.034 429.708C909.324 429.297 908.559 429.092 907.738 429.092C906.935 429.092 906.17 429.297 905.442 429.708C904.732 430.119 904.154 430.716 903.706 431.5C903.276 432.284 903.062 433.208 903.062 434.272C903.062 435.336 903.276 436.269 903.706 437.072C904.154 437.856 904.732 438.453 905.442 438.864C906.17 439.275 906.935 439.48 907.738 439.48C908.559 439.48 909.324 439.275 910.034 438.864C910.762 438.435 911.34 437.819 911.77 437.016C912.218 436.213 912.442 435.28 912.442 434.216ZM932.986 433.908C932.986 434.487 932.949 435.009 932.874 435.476H921.086C921.179 436.708 921.637 437.697 922.458 438.444C923.279 439.191 924.287 439.564 925.482 439.564C927.199 439.564 928.413 438.845 929.122 437.408H932.566C932.099 438.827 931.25 439.993 930.018 440.908C928.805 441.804 927.293 442.252 925.482 442.252C924.007 442.252 922.682 441.925 921.506 441.272C920.349 440.6 919.434 439.667 918.762 438.472C918.109 437.259 917.782 435.859 917.782 434.272C917.782 432.685 918.099 431.295 918.734 430.1C919.387 428.887 920.293 427.953 921.45 427.3C922.626 426.647 923.97 426.32 925.482 426.32C926.938 426.32 928.235 426.637 929.374 427.272C930.513 427.907 931.399 428.803 932.034 429.96C932.669 431.099 932.986 432.415 932.986 433.908ZM929.654 432.9C929.635 431.724 929.215 430.781 928.394 430.072C927.573 429.363 926.555 429.008 925.342 429.008C924.241 429.008 923.298 429.363 922.514 430.072C921.73 430.763 921.263 431.705 921.114 432.9H929.654ZM939.319 428.812C939.786 428.028 940.402 427.421 941.167 426.992C941.951 426.544 942.875 426.32 943.939 426.32V429.624H943.127C941.877 429.624 940.925 429.941 940.271 430.576C939.637 431.211 939.319 432.312 939.319 433.88V442H936.127V426.572H939.319V428.812ZM953.089 426.32C954.284 426.32 955.339 426.563 956.253 427.048C957.187 427.515 957.915 428.103 958.437 428.812V426.572H961.657V442.252C961.657 443.671 961.359 444.931 960.761 446.032C960.164 447.152 959.296 448.029 958.157 448.664C957.037 449.299 955.693 449.616 954.125 449.616C952.035 449.616 950.299 449.121 948.917 448.132C947.536 447.161 946.752 445.836 946.565 444.156H949.729C949.972 444.959 950.485 445.603 951.269 446.088C952.072 446.592 953.024 446.844 954.125 446.844C955.413 446.844 956.449 446.452 957.233 445.668C958.036 444.884 958.437 443.745 958.437 442.252V439.676C957.896 440.404 957.159 441.02 956.225 441.524C955.311 442.009 954.265 442.252 953.089 442.252C951.745 442.252 950.513 441.916 949.393 441.244C948.292 440.553 947.415 439.601 946.761 438.388C946.127 437.156 945.809 435.765 945.809 434.216C945.809 432.667 946.127 431.295 946.761 430.1C947.415 428.905 948.292 427.981 949.393 427.328C950.513 426.656 951.745 426.32 953.089 426.32ZM958.437 434.272C958.437 433.208 958.213 432.284 957.765 431.5C957.336 430.716 956.767 430.119 956.057 429.708C955.348 429.297 954.583 429.092 953.761 429.092C952.94 429.092 952.175 429.297 951.465 429.708C950.756 430.1 950.177 430.688 949.729 431.472C949.3 432.237 949.085 433.152 949.085 434.216C949.085 435.28 949.3 436.213 949.729 437.016C950.177 437.819 950.756 438.435 951.465 438.864C952.193 439.275 952.959 439.48 953.761 439.48C954.583 439.48 955.348 439.275 956.057 438.864C956.767 438.453 957.336 437.856 957.765 437.072C958.213 436.269 958.437 435.336 958.437 434.272ZM979.822 426.572V442H976.63V440.18C976.126 440.815 975.463 441.319 974.642 441.692C973.839 442.047 972.981 442.224 972.066 442.224C970.853 442.224 969.761 441.972 968.79 441.468C967.838 440.964 967.082 440.217 966.522 439.228C965.981 438.239 965.71 437.044 965.71 435.644V426.572H968.874V435.168C968.874 436.549 969.219 437.613 969.91 438.36C970.601 439.088 971.543 439.452 972.738 439.452C973.933 439.452 974.875 439.088 975.566 438.36C976.275 437.613 976.63 436.549 976.63 435.168V426.572H979.822ZM991.818 426.32C993.031 426.32 994.114 426.572 995.066 427.076C996.036 427.58 996.792 428.327 997.334 429.316C997.875 430.305 998.146 431.5 998.146 432.9V442H994.982V433.376C994.982 431.995 994.636 430.94 993.946 430.212C993.255 429.465 992.312 429.092 991.118 429.092C989.923 429.092 988.971 429.465 988.262 430.212C987.571 430.94 987.226 431.995 987.226 433.376V442H984.034V426.572H987.226V428.336C987.748 427.701 988.411 427.207 989.214 426.852C990.035 426.497 990.903 426.32 991.818 426.32ZM1001.15 434.216C1001.15 432.667 1001.47 431.295 1002.11 430.1C1002.76 428.905 1003.64 427.981 1004.74 427.328C1005.86 426.656 1007.09 426.32 1008.43 426.32C1009.65 426.32 1010.7 426.563 1011.6 427.048C1012.51 427.515 1013.24 428.103 1013.78 428.812V426.572H1017V442H1013.78V439.704C1013.24 440.432 1012.5 441.039 1011.57 441.524C1010.64 442.009 1009.57 442.252 1008.38 442.252C1007.05 442.252 1005.84 441.916 1004.74 441.244C1003.64 440.553 1002.76 439.601 1002.11 438.388C1001.47 437.156 1001.15 435.765 1001.15 434.216ZM1013.78 434.272C1013.78 433.208 1013.56 432.284 1013.11 431.5C1012.68 430.716 1012.11 430.119 1011.4 429.708C1010.69 429.297 1009.93 429.092 1009.11 429.092C1008.28 429.092 1007.52 429.297 1006.81 429.708C1006.1 430.1 1005.52 430.688 1005.07 431.472C1004.64 432.237 1004.43 433.152 1004.43 434.216C1004.43 435.28 1004.64 436.213 1005.07 437.016C1005.52 437.819 1006.1 438.435 1006.81 438.864C1007.54 439.275 1008.3 439.48 1009.11 439.48C1009.93 439.48 1010.69 439.275 1011.4 438.864C1012.11 438.453 1012.68 437.856 1013.11 437.072C1013.56 436.269 1013.78 435.336 1013.78 434.272ZM1042.44 426.572V442H1039.25V440.18C1038.74 440.815 1038.08 441.319 1037.26 441.692C1036.46 442.047 1035.6 442.224 1034.68 442.224C1033.47 442.224 1032.38 441.972 1031.41 441.468C1030.46 440.964 1029.7 440.217 1029.14 439.228C1028.6 438.239 1028.33 437.044 1028.33 435.644V426.572H1031.49V435.168C1031.49 436.549 1031.84 437.613 1032.53 438.36C1033.22 439.088 1034.16 439.452 1035.36 439.452C1036.55 439.452 1037.49 439.088 1038.18 438.36C1038.89 437.613 1039.25 436.549 1039.25 435.168V426.572H1042.44ZM1054.43 426.32C1055.65 426.32 1056.73 426.572 1057.68 427.076C1058.65 427.58 1059.41 428.327 1059.95 429.316C1060.49 430.305 1060.76 431.5 1060.76 432.9V442H1057.6V433.376C1057.6 431.995 1057.25 430.94 1056.56 430.212C1055.87 429.465 1054.93 429.092 1053.73 429.092C1052.54 429.092 1051.59 429.465 1050.88 430.212C1050.19 430.94 1049.84 431.995 1049.84 433.376V442H1046.65V426.572H1049.84V428.336C1050.37 427.701 1051.03 427.207 1051.83 426.852C1052.65 426.497 1053.52 426.32 1054.43 426.32ZM1068.56 429.176V437.716C1068.56 438.295 1068.69 438.715 1068.95 438.976C1069.23 439.219 1069.7 439.34 1070.35 439.34H1072.31V442H1069.79C1068.35 442 1067.25 441.664 1066.49 440.992C1065.72 440.32 1065.34 439.228 1065.34 437.716V429.176H1063.52V426.572H1065.34V422.736H1068.56V426.572H1072.31V429.176H1068.56ZM1089.22 426.572V442H1086.03V440.18C1085.53 440.815 1084.87 441.319 1084.04 441.692C1083.24 442.047 1082.38 442.224 1081.47 442.224C1080.26 442.224 1079.16 441.972 1078.19 441.468C1077.24 440.964 1076.48 440.217 1075.92 439.228C1075.38 438.239 1075.11 437.044 1075.11 435.644V426.572H1078.28V435.168C1078.28 436.549 1078.62 437.613 1079.31 438.36C1080 439.088 1080.95 439.452 1082.14 439.452C1083.34 439.452 1084.28 439.088 1084.97 438.36C1085.68 437.613 1086.03 436.549 1086.03 435.168V426.572H1089.22ZM1099.54 434.3L1106.65 442H1102.34L1096.63 435.364V442H1093.44V421.28H1096.63V433.32L1102.23 426.572H1106.65L1099.54 434.3Z" fill="white"/>
<path d="M329.856 231.616H316.512L314.304 238H307.248L319.296 204.448H327.12L339.168 238H332.064L329.856 231.616ZM328.032 226.24L323.184 212.224L318.336 226.24H328.032ZM365.525 210.976C367.509 210.976 369.253 211.376 370.757 212.176C372.261 212.944 373.445 213.952 374.309 215.2V211.408H381.077V238.192C381.077 240.656 380.581 242.848 379.589 244.768C378.597 246.72 377.109 248.256 375.125 249.376C373.141 250.528 370.741 251.104 367.925 251.104C364.149 251.104 361.045 250.224 358.613 248.464C356.213 246.704 354.853 244.304 354.533 241.264H361.205C361.557 242.48 362.309 243.44 363.461 244.144C364.645 244.88 366.069 245.248 367.733 245.248C369.685 245.248 371.269 244.656 372.485 243.472C373.701 242.32 374.309 240.56 374.309 238.192V234.064C373.445 235.312 372.245 236.352 370.709 237.184C369.205 238.016 367.477 238.432 365.525 238.432C363.285 238.432 361.237 237.856 359.381 236.704C357.525 235.552 356.053 233.936 354.965 231.856C353.909 229.744 353.381 227.328 353.381 224.608C353.381 221.92 353.909 219.536 354.965 217.456C356.053 215.376 357.509 213.776 359.333 212.656C361.189 211.536 363.253 210.976 365.525 210.976ZM374.309 224.704C374.309 223.072 373.989 221.68 373.349 220.528C372.709 219.344 371.845 218.448 370.757 217.84C369.669 217.2 368.501 216.88 367.253 216.88C366.005 216.88 364.853 217.184 363.797 217.792C362.741 218.4 361.877 219.296 361.205 220.48C360.565 221.632 360.245 223.008 360.245 224.608C360.245 226.208 360.565 227.616 361.205 228.832C361.877 230.016 362.741 230.928 363.797 231.568C364.885 232.208 366.037 232.528 367.253 232.528C368.501 232.528 369.669 232.224 370.757 231.616C371.845 230.976 372.709 230.08 373.349 228.928C373.989 227.744 374.309 226.336 374.309 224.704ZM394.36 215.536C395.224 214.128 396.344 213.024 397.72 212.224C399.128 211.424 400.728 211.024 402.52 211.024V218.08H400.744C398.632 218.08 397.032 218.576 395.944 219.568C394.888 220.56 394.36 222.288 394.36 224.752V238H387.64V211.408H394.36V215.536ZM431.766 224.128C431.766 225.088 431.702 225.952 431.574 226.72H412.134C412.294 228.64 412.966 230.144 414.15 231.232C415.334 232.32 416.79 232.864 418.518 232.864C421.014 232.864 422.79 231.792 423.846 229.648H431.094C430.326 232.208 428.854 234.32 426.678 235.984C424.502 237.616 421.83 238.432 418.662 238.432C416.102 238.432 413.798 237.872 411.75 236.752C409.734 235.6 408.15 233.984 406.998 231.904C405.878 229.824 405.318 227.424 405.318 224.704C405.318 221.952 405.878 219.536 406.998 217.456C408.118 215.376 409.686 213.776 411.702 212.656C413.718 211.536 416.038 210.976 418.662 210.976C421.19 210.976 423.446 211.52 425.43 212.608C427.446 213.696 428.998 215.248 430.086 217.264C431.206 219.248 431.766 221.536 431.766 224.128ZM424.806 222.208C424.774 220.48 424.15 219.104 422.934 218.08C421.718 217.024 420.23 216.496 418.47 216.496C416.806 216.496 415.398 217.008 414.246 218.032C413.126 219.024 412.438 220.416 412.182 222.208H424.806ZM434.943 224.608C434.943 221.92 435.471 219.536 436.527 217.456C437.615 215.376 439.071 213.776 440.895 212.656C442.751 211.536 444.815 210.976 447.087 210.976C449.071 210.976 450.799 211.376 452.271 212.176C453.775 212.976 454.975 213.984 455.871 215.2V211.408H462.639V238H455.871V234.112C455.007 235.36 453.807 236.4 452.271 237.232C450.767 238.032 449.023 238.432 447.039 238.432C444.799 238.432 442.751 237.856 440.895 236.704C439.071 235.552 437.615 233.936 436.527 231.856C435.471 229.744 434.943 227.328 434.943 224.608ZM455.871 224.704C455.871 223.072 455.551 221.68 454.911 220.528C454.271 219.344 453.407 218.448 452.319 217.84C451.231 217.2 450.063 216.88 448.815 216.88C447.567 216.88 446.415 217.184 445.359 217.792C444.303 218.4 443.439 219.296 442.767 220.48C442.127 221.632 441.807 223.008 441.807 224.608C441.807 226.208 442.127 227.616 442.767 228.832C443.439 230.016 444.303 230.928 445.359 231.568C446.447 232.208 447.599 232.528 448.815 232.528C450.063 232.528 451.231 232.224 452.319 231.616C453.407 230.976 454.271 230.08 454.911 228.928C455.551 227.744 455.871 226.336 455.871 224.704ZM477.027 216.928V229.792C477.027 230.688 477.235 231.344 477.651 231.76C478.099 232.144 478.835 232.336 479.859 232.336H482.979V238H478.755C473.091 238 470.259 235.248 470.259 229.744V216.928H467.091V211.408H470.259V204.832H477.027V211.408H482.979V216.928H477.027ZM511.442 216.928H506.786V238H499.97V216.928H496.946V211.408H499.97V210.064C499.97 206.8 500.898 204.4 502.754 202.864C504.61 201.328 507.41 200.608 511.154 200.704V206.368C509.522 206.336 508.386 206.608 507.746 207.184C507.106 207.76 506.786 208.8 506.786 210.304V211.408H511.442V216.928ZM540.9 211.408V238H534.132V234.64C533.268 235.792 532.132 236.704 530.724 237.376C529.348 238.016 527.844 238.336 526.212 238.336C524.132 238.336 522.292 237.904 520.692 237.04C519.092 236.144 517.828 234.848 516.9 233.152C516.004 231.424 515.556 229.376 515.556 227.008V211.408H522.276V226.048C522.276 228.16 522.804 229.792 523.86 230.944C524.916 232.064 526.356 232.624 528.18 232.624C530.036 232.624 531.492 232.064 532.548 230.944C533.604 229.792 534.132 228.16 534.132 226.048V211.408H540.9ZM555.355 216.928V229.792C555.355 230.688 555.563 231.344 555.979 231.76C556.427 232.144 557.163 232.336 558.187 232.336H561.307V238H557.083C551.419 238 548.587 235.248 548.587 229.744V216.928H545.419V211.408H548.587V204.832H555.355V211.408H561.307V216.928H555.355ZM591.244 211.408V238H584.476V234.64C583.612 235.792 582.476 236.704 581.068 237.376C579.692 238.016 578.188 238.336 576.556 238.336C574.476 238.336 572.636 237.904 571.036 237.04C569.436 236.144 568.172 234.848 567.244 233.152C566.348 231.424 565.9 229.376 565.9 227.008V211.408H572.62V226.048C572.62 228.16 573.148 229.792 574.204 230.944C575.26 232.064 576.7 232.624 578.524 232.624C580.38 232.624 581.836 232.064 582.892 230.944C583.948 229.792 584.476 228.16 584.476 226.048V211.408H591.244ZM604.595 215.536C605.459 214.128 606.579 213.024 607.955 212.224C609.363 211.424 610.963 211.024 612.755 211.024V218.08H610.979C608.867 218.08 607.267 218.576 606.179 219.568C605.123 220.56 604.595 222.288 604.595 224.752V238H597.875V211.408H604.595V215.536ZM642.001 224.128C642.001 225.088 641.937 225.952 641.809 226.72H622.369C622.529 228.64 623.201 230.144 624.385 231.232C625.569 232.32 627.025 232.864 628.753 232.864C631.249 232.864 633.025 231.792 634.081 229.648H641.329C640.561 232.208 639.089 234.32 636.913 235.984C634.737 237.616 632.065 238.432 628.897 238.432C626.337 238.432 624.033 237.872 621.985 236.752C619.969 235.6 618.385 233.984 617.233 231.904C616.113 229.824 615.553 227.424 615.553 224.704C615.553 221.952 616.113 219.536 617.233 217.456C618.353 215.376 619.921 213.776 621.937 212.656C623.953 211.536 626.273 210.976 628.897 210.976C631.425 210.976 633.681 211.52 635.665 212.608C637.681 213.696 639.233 215.248 640.321 217.264C641.441 219.248 642.001 221.536 642.001 224.128ZM635.041 222.208C635.009 220.48 634.385 219.104 633.169 218.08C631.953 217.024 630.465 216.496 628.705 216.496C627.041 216.496 625.633 217.008 624.481 218.032C623.361 219.024 622.673 220.416 622.417 222.208H635.041ZM649.882 238.336C648.666 238.336 647.658 237.968 646.858 237.232C646.09 236.464 645.706 235.52 645.706 234.4C645.706 233.28 646.09 232.352 646.858 231.616C647.658 230.848 648.666 230.464 649.882 230.464C651.066 230.464 652.042 230.848 652.81 231.616C653.578 232.352 653.962 233.28 653.962 234.4C653.962 235.52 653.578 236.464 652.81 237.232C652.042 237.968 651.066 238.336 649.882 238.336ZM677.532 204.496V238H670.812V204.496H677.532ZM691.995 216.928V229.792C691.995 230.688 692.203 231.344 692.619 231.76C693.067 232.144 693.803 232.336 694.827 232.336H697.947V238H693.723C688.059 238 685.227 235.248 685.227 229.744V216.928H682.059V211.408H685.227V204.832H691.995V211.408H697.947V216.928H691.995ZM704.125 204.496H711.181L705.997 216.592H701.389L704.125 204.496ZM726.176 238.432C724 238.432 722.048 238.048 720.32 237.28C718.592 236.48 717.216 235.408 716.192 234.064C715.2 232.72 714.656 231.232 714.56 229.6H721.328C721.456 230.624 721.952 231.472 722.816 232.144C723.712 232.816 724.816 233.152 726.128 233.152C727.408 233.152 728.4 232.896 729.104 232.384C729.84 231.872 730.208 231.216 730.208 230.416C730.208 229.552 729.76 228.912 728.864 228.496C728 228.048 726.608 227.568 724.688 227.056C722.704 226.576 721.072 226.08 719.792 225.568C718.544 225.056 717.456 224.272 716.528 223.216C715.632 222.16 715.184 220.736 715.184 218.944C715.184 217.472 715.6 216.128 716.432 214.912C717.296 213.696 718.512 212.736 720.08 212.032C721.68 211.328 723.552 210.976 725.696 210.976C728.864 210.976 731.392 211.776 733.28 213.376C735.168 214.944 736.208 217.072 736.4 219.76H729.968C729.872 218.704 729.424 217.872 728.624 217.264C727.856 216.624 726.816 216.304 725.504 216.304C724.288 216.304 723.344 216.528 722.672 216.976C722.032 217.424 721.712 218.048 721.712 218.848C721.712 219.744 722.16 220.432 723.056 220.912C723.952 221.36 725.344 221.824 727.232 222.304C729.152 222.784 730.736 223.28 731.984 223.792C733.232 224.304 734.304 225.104 735.2 226.192C736.128 227.248 736.608 228.656 736.64 230.416C736.64 231.952 736.208 233.328 735.344 234.544C734.512 235.76 733.296 236.72 731.696 237.424C730.128 238.096 728.288 238.432 726.176 238.432ZM790.457 211.408L782.681 238H775.433L770.585 219.424L765.737 238H758.441L750.617 211.408H757.433L762.137 231.664L767.225 211.408H774.329L779.321 231.616L784.025 211.408H790.457ZM809.069 211.024C811.085 211.024 812.877 211.472 814.445 212.368C816.013 213.232 817.229 214.528 818.093 216.256C818.989 217.952 819.437 220 819.437 222.4V238H812.717V223.312C812.717 221.2 812.189 219.584 811.133 218.464C810.077 217.312 808.637 216.736 806.813 216.736C804.957 216.736 803.485 217.312 802.397 218.464C801.341 219.584 800.813 221.2 800.813 223.312V238H794.093V202.48H800.813V214.72C801.677 213.568 802.829 212.672 804.269 212.032C805.709 211.36 807.309 211.024 809.069 211.024ZM824.1 224.608C824.1 221.92 824.628 219.536 825.684 217.456C826.772 215.376 828.228 213.776 830.052 212.656C831.908 211.536 833.972 210.976 836.244 210.976C838.228 210.976 839.956 211.376 841.428 212.176C842.932 212.976 844.132 213.984 845.028 215.2V211.408H851.796V238H845.028V234.112C844.164 235.36 842.964 236.4 841.428 237.232C839.924 238.032 838.18 238.432 836.196 238.432C833.956 238.432 831.908 237.856 830.052 236.704C828.228 235.552 826.772 233.936 825.684 231.856C824.628 229.744 824.1 227.328 824.1 224.608ZM845.028 224.704C845.028 223.072 844.708 221.68 844.068 220.528C843.428 219.344 842.564 218.448 841.476 217.84C840.388 217.2 839.22 216.88 837.972 216.88C836.724 216.88 835.572 217.184 834.516 217.792C833.46 218.4 832.596 219.296 831.924 220.48C831.284 221.632 830.964 223.008 830.964 224.608C830.964 226.208 831.284 227.616 831.924 228.832C832.596 230.016 833.46 230.928 834.516 231.568C835.604 232.208 836.756 232.528 837.972 232.528C839.22 232.528 840.388 232.224 841.476 231.616C842.564 230.976 843.428 230.08 844.068 228.928C844.708 227.744 845.028 226.336 845.028 224.704ZM866.183 216.928V229.792C866.183 230.688 866.391 231.344 866.807 231.76C867.255 232.144 867.991 232.336 869.015 232.336H872.135V238H867.911C862.247 238 859.415 235.248 859.415 229.744V216.928H856.247V211.408H859.415V204.832H866.183V211.408H872.135V216.928H866.183ZM921.43 211.024C924.694 211.024 927.318 212.032 929.302 214.048C931.318 216.032 932.326 218.816 932.326 222.4V238H925.606V223.312C925.606 221.232 925.078 219.648 924.022 218.56C922.966 217.44 921.526 216.88 919.702 216.88C917.878 216.88 916.422 217.44 915.334 218.56C914.278 219.648 913.75 221.232 913.75 223.312V238H907.03V223.312C907.03 221.232 906.502 219.648 905.446 218.56C904.39 217.44 902.95 216.88 901.126 216.88C899.27 216.88 897.798 217.44 896.71 218.56C895.654 219.648 895.126 221.232 895.126 223.312V238H888.406V211.408H895.126V214.624C895.99 213.504 897.094 212.624 898.438 211.984C899.814 211.344 901.318 211.024 902.95 211.024C905.03 211.024 906.886 211.472 908.518 212.368C910.15 213.232 911.414 214.48 912.31 216.112C913.174 214.576 914.422 213.344 916.054 212.416C917.718 211.488 919.51 211.024 921.43 211.024ZM936.975 224.608C936.975 221.92 937.503 219.536 938.559 217.456C939.647 215.376 941.103 213.776 942.927 212.656C944.783 211.536 946.847 210.976 949.119 210.976C951.103 210.976 952.831 211.376 954.303 212.176C955.807 212.976 957.007 213.984 957.903 215.2V211.408H964.671V238H957.903V234.112C957.039 235.36 955.839 236.4 954.303 237.232C952.799 238.032 951.055 238.432 949.071 238.432C946.831 238.432 944.783 237.856 942.927 236.704C941.103 235.552 939.647 233.936 938.559 231.856C937.503 229.744 936.975 227.328 936.975 224.608ZM957.903 224.704C957.903 223.072 957.583 221.68 956.943 220.528C956.303 219.344 955.439 218.448 954.351 217.84C953.263 217.2 952.095 216.88 950.847 216.88C949.599 216.88 948.447 217.184 947.391 217.792C946.335 218.4 945.471 219.296 944.799 220.48C944.159 221.632 943.839 223.008 943.839 224.608C943.839 226.208 944.159 227.616 944.799 228.832C945.471 230.016 946.335 230.928 947.391 231.568C948.479 232.208 949.631 232.528 950.847 232.528C952.095 232.528 953.263 232.224 954.351 231.616C955.439 230.976 956.303 230.08 956.943 228.928C957.583 227.744 957.903 226.336 957.903 224.704ZM986.978 238L977.954 226.672V238H971.234V202.48H977.954V222.688L986.882 211.408H995.618L983.906 224.752L995.714 238H986.978ZM1023.99 224.128C1023.99 225.088 1023.92 225.952 1023.79 226.72H1004.35C1004.51 228.64 1005.19 230.144 1006.37 231.232C1007.55 232.32 1009.01 232.864 1010.74 232.864C1013.23 232.864 1015.01 231.792 1016.07 229.648H1023.31C1022.55 232.208 1021.07 234.32 1018.9 235.984C1016.72 237.616 1014.05 238.432 1010.88 238.432C1008.32 238.432 1006.02 237.872 1003.97 236.752C1001.95 235.6 1000.37 233.984 999.217 231.904C998.097 229.824 997.537 227.424 997.537 224.704C997.537 221.952 998.097 219.536 999.217 217.456C1000.34 215.376 1001.91 213.776 1003.92 212.656C1005.94 211.536 1008.26 210.976 1010.88 210.976C1013.41 210.976 1015.67 211.52 1017.65 212.608C1019.67 213.696 1021.22 215.248 1022.31 217.264C1023.43 219.248 1023.99 221.536 1023.99 224.128ZM1017.03 222.208C1016.99 220.48 1016.37 219.104 1015.15 218.08C1013.94 217.024 1012.45 216.496 1010.69 216.496C1009.03 216.496 1007.62 217.008 1006.47 218.032C1005.35 219.024 1004.66 220.416 1004.4 222.208H1017.03ZM1039.07 238.432C1036.89 238.432 1034.94 238.048 1033.21 237.28C1031.48 236.48 1030.11 235.408 1029.08 234.064C1028.09 232.72 1027.55 231.232 1027.45 229.6H1034.22C1034.35 230.624 1034.84 231.472 1035.71 232.144C1036.6 232.816 1037.71 233.152 1039.02 233.152C1040.3 233.152 1041.29 232.896 1041.99 232.384C1042.73 231.872 1043.1 231.216 1043.1 230.416C1043.1 229.552 1042.65 228.912 1041.75 228.496C1040.89 228.048 1039.5 227.568 1037.58 227.056C1035.59 226.576 1033.96 226.08 1032.68 225.568C1031.43 225.056 1030.35 224.272 1029.42 223.216C1028.52 222.16 1028.07 220.736 1028.07 218.944C1028.07 217.472 1028.49 216.128 1029.32 214.912C1030.19 213.696 1031.4 212.736 1032.97 212.032C1034.57 211.328 1036.44 210.976 1038.59 210.976C1041.75 210.976 1044.28 211.776 1046.17 213.376C1048.06 214.944 1049.1 217.072 1049.29 219.76H1042.86C1042.76 218.704 1042.31 217.872 1041.51 217.264C1040.75 216.624 1039.71 216.304 1038.39 216.304C1037.18 216.304 1036.23 216.528 1035.56 216.976C1034.92 217.424 1034.6 218.048 1034.6 218.848C1034.6 219.744 1035.05 220.432 1035.95 220.912C1036.84 221.36 1038.23 221.824 1040.12 222.304C1042.04 222.784 1043.63 223.28 1044.87 223.792C1046.12 224.304 1047.19 225.104 1048.09 226.192C1049.02 227.248 1049.5 228.656 1049.53 230.416C1049.53 231.952 1049.1 233.328 1048.23 234.544C1047.4 235.76 1046.19 236.72 1044.59 237.424C1043.02 238.096 1041.18 238.432 1039.07 238.432ZM1091.59 211.408V238H1084.82V234.64C1083.96 235.792 1082.82 236.704 1081.41 237.376C1080.04 238.016 1078.53 238.336 1076.9 238.336C1074.82 238.336 1072.98 237.904 1071.38 237.04C1069.78 236.144 1068.52 234.848 1067.59 233.152C1066.69 231.424 1066.24 229.376 1066.24 227.008V211.408H1072.96V226.048C1072.96 228.16 1073.49 229.792 1074.55 230.944C1075.6 232.064 1077.04 232.624 1078.87 232.624C1080.72 232.624 1082.18 232.064 1083.24 230.944C1084.29 229.792 1084.82 228.16 1084.82 226.048V211.408H1091.59ZM1108.39 238.432C1106.22 238.432 1104.27 238.048 1102.54 237.28C1100.81 236.48 1099.43 235.408 1098.41 234.064C1097.42 232.72 1096.87 231.232 1096.78 229.6H1103.55C1103.67 230.624 1104.17 231.472 1105.03 232.144C1105.93 232.816 1107.03 233.152 1108.35 233.152C1109.63 233.152 1110.62 232.896 1111.32 232.384C1112.06 231.872 1112.43 231.216 1112.43 230.416C1112.43 229.552 1111.98 228.912 1111.08 228.496C1110.22 228.048 1108.83 227.568 1106.91 227.056C1104.92 226.576 1103.29 226.08 1102.01 225.568C1100.76 225.056 1099.67 224.272 1098.75 223.216C1097.85 222.16 1097.4 220.736 1097.4 218.944C1097.4 217.472 1097.82 216.128 1098.65 214.912C1099.51 213.696 1100.73 212.736 1102.3 212.032C1103.9 211.328 1105.77 210.976 1107.91 210.976C1111.08 210.976 1113.61 211.776 1115.5 213.376C1117.39 214.944 1118.43 217.072 1118.62 219.76H1112.19C1112.09 218.704 1111.64 217.872 1110.84 217.264C1110.07 216.624 1109.03 216.304 1107.72 216.304C1106.51 216.304 1105.56 216.528 1104.89 216.976C1104.25 217.424 1103.93 218.048 1103.93 218.848C1103.93 219.744 1104.38 220.432 1105.27 220.912C1106.17 221.36 1107.56 221.824 1109.45 222.304C1111.37 222.784 1112.95 223.28 1114.2 223.792C1115.45 224.304 1116.52 225.104 1117.42 226.192C1118.35 227.248 1118.83 228.656 1118.86 230.416C1118.86 231.952 1118.43 233.328 1117.56 234.544C1116.73 235.76 1115.51 236.72 1113.91 237.424C1112.35 238.096 1110.51 238.432 1108.39 238.432ZM1127.35 238.336C1126.13 238.336 1125.13 237.968 1124.33 237.232C1123.56 236.464 1123.17 235.52 1123.17 234.4C1123.17 233.28 1123.56 232.352 1124.33 231.616C1125.13 230.848 1126.13 230.464 1127.35 230.464C1128.53 230.464 1129.51 230.848 1130.28 231.616C1131.05 232.352 1131.43 233.28 1131.43 234.4C1131.43 235.52 1131.05 236.464 1130.28 237.232C1129.51 237.968 1128.53 238.336 1127.35 238.336Z" fill="white"/>
<path d="M514.052 321.98V347H509.948V329.864L502.316 347H499.472L491.804 329.864V347H487.7V321.98H492.128L500.912 341.6L509.66 321.98H514.052ZM537.626 336.596C537.626 337.34 537.578 338.012 537.482 338.612H522.326C522.446 340.196 523.034 341.468 524.09 342.428C525.146 343.388 526.442 343.868 527.978 343.868C530.186 343.868 531.746 342.944 532.658 341.096H537.086C536.486 342.92 535.394 344.42 533.81 345.596C532.25 346.748 530.306 347.324 527.978 347.324C526.082 347.324 524.378 346.904 522.866 346.064C521.378 345.2 520.202 344 519.338 342.464C518.498 340.904 518.078 339.104 518.078 337.064C518.078 335.024 518.486 333.236 519.302 331.7C520.142 330.14 521.306 328.94 522.794 328.1C524.306 327.26 526.034 326.84 527.978 326.84C529.85 326.84 531.518 327.248 532.982 328.064C534.446 328.88 535.586 330.032 536.402 331.52C537.218 332.984 537.626 334.676 537.626 336.596ZM533.342 335.3C533.318 333.788 532.778 332.576 531.722 331.664C530.666 330.752 529.358 330.296 527.798 330.296C526.382 330.296 525.17 330.752 524.162 331.664C523.154 332.552 522.554 333.764 522.362 335.3H533.342ZM551.673 326.84C553.233 326.84 554.625 327.164 555.849 327.812C557.097 328.46 558.069 329.42 558.765 330.692C559.461 331.964 559.809 333.5 559.809 335.3V347H555.741V335.912C555.741 334.136 555.297 332.78 554.409 331.844C553.521 330.884 552.309 330.404 550.773 330.404C549.237 330.404 548.013 330.884 547.101 331.844C546.213 332.78 545.769 334.136 545.769 335.912V347H541.665V327.164H545.769V329.432C546.441 328.616 547.293 327.98 548.325 327.524C549.381 327.068 550.497 326.84 551.673 326.84ZM583.008 327.164V347H578.904V344.66C578.256 345.476 577.404 346.124 576.348 346.604C575.316 347.06 574.212 347.288 573.036 347.288C571.476 347.288 570.072 346.964 568.824 346.316C567.6 345.668 566.628 344.708 565.908 343.436C565.212 342.164 564.864 340.628 564.864 338.828V327.164H568.932V338.216C568.932 339.992 569.376 341.36 570.264 342.32C571.152 343.256 572.364 343.724 573.9 343.724C575.436 343.724 576.648 343.256 577.536 342.32C578.448 341.36 578.904 339.992 578.904 338.216V327.164H583.008ZM612.435 326.84C613.995 326.84 615.387 327.164 616.611 327.812C617.859 328.46 618.831 329.42 619.527 330.692C620.247 331.964 620.607 333.5 620.607 335.3V347H616.539V335.912C616.539 334.136 616.095 332.78 615.207 331.844C614.319 330.884 613.107 330.404 611.571 330.404C610.035 330.404 608.811 330.884 607.899 331.844C607.011 332.78 606.567 334.136 606.567 335.912V347H602.499V335.912C602.499 334.136 602.055 332.78 601.167 331.844C600.279 330.884 599.067 330.404 597.531 330.404C595.995 330.404 594.771 330.884 593.859 331.844C592.971 332.78 592.527 334.136 592.527 335.912V347H588.423V327.164H592.527V329.432C593.199 328.616 594.051 327.98 595.083 327.524C596.115 327.068 597.219 326.84 598.395 326.84C599.979 326.84 601.395 327.176 602.643 327.848C603.891 328.52 604.851 329.492 605.523 330.764C606.123 329.564 607.059 328.616 608.331 327.92C609.603 327.2 610.971 326.84 612.435 326.84ZM629.933 330.116C630.629 329.156 631.577 328.376 632.777 327.776C634.001 327.152 635.357 326.84 636.845 326.84C638.597 326.84 640.181 327.26 641.597 328.1C643.013 328.94 644.129 330.14 644.945 331.7C645.761 333.236 646.169 335 646.169 336.992C646.169 338.984 645.761 340.772 644.945 342.356C644.129 343.916 643.001 345.14 641.561 346.028C640.145 346.892 638.573 347.324 636.845 347.324C635.309 347.324 633.941 347.024 632.741 346.424C631.565 345.824 630.629 345.056 629.933 344.12V347H625.829V320.36H629.933V330.116ZM641.993 336.992C641.993 335.624 641.705 334.448 641.129 333.464C640.577 332.456 639.833 331.7 638.897 331.196C637.985 330.668 637.001 330.404 635.945 330.404C634.913 330.404 633.929 330.668 632.993 331.196C632.081 331.724 631.337 332.492 630.761 333.5C630.209 334.508 629.933 335.696 629.933 337.064C629.933 338.432 630.209 339.632 630.761 340.664C631.337 341.672 632.081 342.44 632.993 342.968C633.929 343.496 634.913 343.76 635.945 343.76C637.001 343.76 637.985 343.496 638.897 342.968C639.833 342.416 640.577 341.624 641.129 340.592C641.705 339.56 641.993 338.36 641.993 336.992ZM668.191 327.164V347H664.087V344.66C663.439 345.476 662.587 346.124 661.531 346.604C660.499 347.06 659.395 347.288 658.219 347.288C656.659 347.288 655.255 346.964 654.007 346.316C652.783 345.668 651.811 344.708 651.091 343.436C650.395 342.164 650.047 340.628 650.047 338.828V327.164H654.115V338.216C654.115 339.992 654.559 341.36 655.447 342.32C656.335 343.256 657.547 343.724 659.083 343.724C660.619 343.724 661.831 343.256 662.719 342.32C663.631 341.36 664.087 339.992 664.087 338.216V327.164H668.191ZM683.866 326.84C685.378 326.84 686.722 327.164 687.898 327.812C689.098 328.46 690.034 329.42 690.706 330.692C691.402 331.964 691.75 333.5 691.75 335.3V347H687.682V335.912C687.682 334.136 687.238 332.78 686.35 331.844C685.462 330.884 684.25 330.404 682.714 330.404C681.178 330.404 679.954 330.884 679.042 331.844C678.154 332.78 677.71 334.136 677.71 335.912V347H673.606V320.36H677.71V329.468C678.406 328.628 679.282 327.98 680.338 327.524C681.418 327.068 682.594 326.84 683.866 326.84ZM704.833 337.1L713.977 347H708.433L701.089 338.468V347H696.985V320.36H701.089V335.84L708.289 327.164H713.977L704.833 337.1ZM715.551 336.992C715.551 335 715.959 333.236 716.775 331.7C717.615 330.164 718.743 328.976 720.159 328.136C721.599 327.272 723.183 326.84 724.911 326.84C726.471 326.84 727.827 327.152 728.979 327.776C730.155 328.376 731.091 329.132 731.787 330.044V327.164H735.927V347H731.787V344.048C731.091 344.984 730.143 345.764 728.943 346.388C727.743 347.012 726.375 347.324 724.839 347.324C723.135 347.324 721.575 346.892 720.159 346.028C718.743 345.14 717.615 343.916 716.775 342.356C715.959 340.772 715.551 338.984 715.551 336.992ZM731.787 337.064C731.787 335.696 731.499 334.508 730.923 333.5C730.371 332.492 729.639 331.724 728.727 331.196C727.815 330.668 726.831 330.404 725.775 330.404C724.719 330.404 723.735 330.668 722.823 331.196C721.911 331.7 721.167 332.456 720.591 333.464C720.039 334.448 719.763 335.624 719.763 336.992C719.763 338.36 720.039 339.56 720.591 340.592C721.167 341.624 721.911 342.416 722.823 342.968C723.759 343.496 724.743 343.76 725.775 343.76C726.831 343.76 727.815 343.496 728.727 342.968C729.639 342.44 730.371 341.672 730.923 340.664C731.499 339.632 731.787 338.432 731.787 337.064ZM751.325 326.84C752.885 326.84 754.277 327.164 755.501 327.812C756.749 328.46 757.721 329.42 758.417 330.692C759.113 331.964 759.461 333.5 759.461 335.3V347H755.393V335.912C755.393 334.136 754.949 332.78 754.061 331.844C753.173 330.884 751.961 330.404 750.425 330.404C748.889 330.404 747.665 330.884 746.753 331.844C745.865 332.78 745.421 334.136 745.421 335.912V347H741.317V327.164H745.421V329.432C746.093 328.616 746.945 327.98 747.977 327.524C749.033 327.068 750.149 326.84 751.325 326.84ZM781.896 337.1L791.04 347H785.496L778.152 338.468V347H774.048V320.36H778.152V335.84L785.352 327.164H791.04L781.896 337.1ZM798.085 330.044C798.685 329.036 799.477 328.256 800.461 327.704C801.469 327.128 802.657 326.84 804.025 326.84V331.088H802.981C801.373 331.088 800.149 331.496 799.309 332.312C798.493 333.128 798.085 334.544 798.085 336.56V347H793.981V327.164H798.085V330.044ZM825.978 336.596C825.978 337.34 825.93 338.012 825.834 338.612H810.678C810.798 340.196 811.386 341.468 812.442 342.428C813.498 343.388 814.794 343.868 816.33 343.868C818.538 343.868 820.098 342.944 821.01 341.096H825.438C824.838 342.92 823.746 344.42 822.162 345.596C820.602 346.748 818.658 347.324 816.33 347.324C814.434 347.324 812.73 346.904 811.218 346.064C809.73 345.2 808.554 344 807.69 342.464C806.85 340.904 806.43 339.104 806.43 337.064C806.43 335.024 806.838 333.236 807.654 331.7C808.494 330.14 809.658 328.94 811.146 328.1C812.658 327.26 814.386 326.84 816.33 326.84C818.202 326.84 819.87 327.248 821.334 328.064C822.798 328.88 823.938 330.032 824.754 331.52C825.57 332.984 825.978 334.676 825.978 336.596ZM821.694 335.3C821.67 333.788 821.13 332.576 820.074 331.664C819.018 330.752 817.71 330.296 816.15 330.296C814.734 330.296 813.522 330.752 812.514 331.664C811.506 332.552 810.906 333.764 810.714 335.3H821.694ZM828.648 336.992C828.648 335 829.056 333.236 829.872 331.7C830.712 330.164 831.84 328.976 833.256 328.136C834.696 327.272 836.28 326.84 838.008 326.84C839.568 326.84 840.924 327.152 842.076 327.776C843.252 328.376 844.188 329.132 844.884 330.044V327.164H849.024V347H844.884V344.048C844.188 344.984 843.24 345.764 842.04 346.388C840.84 347.012 839.472 347.324 837.936 347.324C836.232 347.324 834.672 346.892 833.256 346.028C831.84 345.14 830.712 343.916 829.872 342.356C829.056 340.772 828.648 338.984 828.648 336.992ZM844.884 337.064C844.884 335.696 844.596 334.508 844.02 333.5C843.468 332.492 842.736 331.724 841.824 331.196C840.912 330.668 839.928 330.404 838.872 330.404C837.816 330.404 836.832 330.668 835.92 331.196C835.008 331.7 834.264 332.456 833.688 333.464C833.136 334.448 832.86 335.624 832.86 336.992C832.86 338.36 833.136 339.56 833.688 340.592C834.264 341.624 835.008 342.416 835.92 342.968C836.856 343.496 837.84 343.76 838.872 343.76C839.928 343.76 840.912 343.496 841.824 342.968C842.736 342.44 843.468 341.672 844.02 340.664C844.596 339.632 844.884 338.432 844.884 337.064ZM859.203 330.512V341.492C859.203 342.236 859.371 342.776 859.707 343.112C860.067 343.424 860.667 343.58 861.507 343.58H864.027V347H860.787C858.939 347 857.523 346.568 856.539 345.704C855.555 344.84 855.063 343.436 855.063 341.492V330.512H852.723V327.164H855.063V322.232H859.203V327.164H864.027V330.512H859.203ZM869.897 324.536C869.153 324.536 868.529 324.284 868.025 323.78C867.521 323.276 867.269 322.652 867.269 321.908C867.269 321.164 867.521 320.54 868.025 320.036C868.529 319.532 869.153 319.28 869.897 319.28C870.617 319.28 871.229 319.532 871.733 320.036C872.237 320.54 872.489 321.164 872.489 321.908C872.489 322.652 872.237 323.276 871.733 323.78C871.229 324.284 870.617 324.536 869.897 324.536ZM871.913 327.164V347H867.809V327.164H871.913ZM885.618 330.512H881.946V347H877.806V330.512H875.466V327.164H877.806V325.76C877.806 323.48 878.406 321.824 879.606 320.792C880.83 319.736 882.738 319.208 885.33 319.208V322.628C884.082 322.628 883.206 322.868 882.702 323.348C882.198 323.804 881.946 324.608 881.946 325.76V327.164H885.618V330.512ZM891.343 324.536C890.599 324.536 889.975 324.284 889.471 323.78C888.967 323.276 888.715 322.652 888.715 321.908C888.715 321.164 888.967 320.54 889.471 320.036C889.975 319.532 890.599 319.28 891.343 319.28C892.063 319.28 892.675 319.532 893.179 320.036C893.683 320.54 893.935 321.164 893.935 321.908C893.935 322.652 893.683 323.276 893.179 323.78C892.675 324.284 892.063 324.536 891.343 324.536ZM893.359 327.164V347H889.255V327.164H893.359ZM903.535 330.512V341.492C903.535 342.236 903.703 342.776 904.039 343.112C904.399 343.424 904.999 343.58 905.839 343.58H908.359V347H905.119C903.271 347 901.855 346.568 900.871 345.704C899.887 344.84 899.395 343.436 899.395 341.492V330.512H897.055V327.164H899.395V322.232H903.535V327.164H908.359V330.512H903.535ZM910.773 336.992C910.773 335 911.181 333.236 911.997 331.7C912.837 330.164 913.965 328.976 915.381 328.136C916.821 327.272 918.405 326.84 920.133 326.84C921.693 326.84 923.049 327.152 924.201 327.776C925.377 328.376 926.313 329.132 927.009 330.044V327.164H931.149V347H927.009V344.048C926.313 344.984 925.365 345.764 924.165 346.388C922.965 347.012 921.597 347.324 920.061 347.324C918.357 347.324 916.797 346.892 915.381 346.028C913.965 345.14 912.837 343.916 911.997 342.356C911.181 340.772 910.773 338.984 910.773 336.992ZM927.009 337.064C927.009 335.696 926.721 334.508 926.145 333.5C925.593 332.492 924.861 331.724 923.949 331.196C923.037 330.668 922.053 330.404 920.997 330.404C919.941 330.404 918.957 330.668 918.045 331.196C917.133 331.7 916.389 332.456 915.813 333.464C915.261 334.448 914.985 335.624 914.985 336.992C914.985 338.36 915.261 339.56 915.813 340.592C916.389 341.624 917.133 342.416 918.045 342.968C918.981 343.496 919.965 343.76 920.997 343.76C922.053 343.76 923.037 343.496 923.949 342.968C924.861 342.44 925.593 341.672 926.145 340.664C926.721 339.632 927.009 338.432 927.009 337.064ZM943.74 347.324C942.18 347.324 940.776 347.048 939.528 346.496C938.304 345.92 937.332 345.152 936.612 344.192C935.892 343.208 935.508 342.116 935.46 340.916H939.708C939.78 341.756 940.176 342.464 940.896 343.04C941.64 343.592 942.564 343.868 943.668 343.868C944.82 343.868 945.708 343.652 946.332 343.22C946.98 342.764 947.304 342.188 947.304 341.492C947.304 340.748 946.944 340.196 946.224 339.836C945.528 339.476 944.412 339.08 942.876 338.648C941.388 338.24 940.176 337.844 939.24 337.46C938.304 337.076 937.488 336.488 936.792 335.696C936.12 334.904 935.784 333.86 935.784 332.564C935.784 331.508 936.096 330.548 936.72 329.684C937.344 328.796 938.232 328.1 939.384 327.596C940.56 327.092 941.904 326.84 943.416 326.84C945.672 326.84 947.484 327.416 948.852 328.568C950.244 329.696 950.988 331.244 951.084 333.212H946.98C946.908 332.324 946.548 331.616 945.9 331.088C945.252 330.56 944.376 330.296 943.272 330.296C942.192 330.296 941.364 330.5 940.788 330.908C940.212 331.316 939.924 331.856 939.924 332.528C939.924 333.056 940.116 333.5 940.5 333.86C940.884 334.22 941.352 334.508 941.904 334.724C942.456 334.916 943.272 335.168 944.352 335.48C945.792 335.864 946.968 336.26 947.88 336.668C948.816 337.052 949.62 337.628 950.292 338.396C950.964 339.164 951.312 340.184 951.336 341.456C951.336 342.584 951.024 343.592 950.4 344.48C949.776 345.368 948.888 346.064 947.736 346.568C946.608 347.072 945.276 347.324 943.74 347.324Z" fill="#FFBA17"/>
</svg>
