<svg width="1440" height="650" viewBox="0 0 1440 650" fill="none" xmlns="http://www.w3.org/2000/svg">
<rect width="1440" height="650" fill="black"/>
<path d="M235.98 433.432C235.404 432.376 234.612 431.572 233.604 431.02C232.596 430.468 231.42 430.192 230.076 430.192C228.588 430.192 227.268 430.528 226.116 431.2C224.964 431.872 224.064 432.832 223.416 434.08C222.768 435.328 222.444 436.768 222.444 438.4C222.444 440.08 222.768 441.544 223.416 442.792C224.088 444.04 225.012 445 226.188 445.672C227.364 446.344 228.732 446.68 230.292 446.68C232.212 446.68 233.784 446.176 235.008 445.168C236.232 444.136 237.036 442.708 237.42 440.884H228.78V437.032H242.388V441.424C242.052 443.176 241.332 444.796 240.228 446.284C239.124 447.772 237.696 448.972 235.944 449.884C234.216 450.772 232.272 451.216 230.112 451.216C227.688 451.216 225.492 450.676 223.524 449.596C221.58 448.492 220.044 446.968 218.916 445.024C217.812 443.08 217.26 440.872 217.26 438.4C217.26 435.928 217.812 433.72 218.916 431.776C220.044 429.808 221.58 428.284 223.524 427.204C225.492 426.1 227.676 425.548 230.076 425.548C232.908 425.548 235.368 426.244 237.456 427.636C239.544 429.004 240.984 430.936 241.776 433.432H235.98ZM254.973 451.324C253.053 451.324 251.325 450.904 249.789 450.064C248.253 449.2 247.041 447.988 246.153 446.428C245.289 444.868 244.857 443.068 244.857 441.028C244.857 438.988 245.301 437.188 246.189 435.628C247.101 434.068 248.337 432.868 249.897 432.028C251.457 431.164 253.197 430.732 255.117 430.732C257.037 430.732 258.777 431.164 260.337 432.028C261.897 432.868 263.121 434.068 264.009 435.628C264.921 437.188 265.377 438.988 265.377 441.028C265.377 443.068 264.909 444.868 263.973 446.428C263.061 447.988 261.813 449.2 260.229 450.064C258.669 450.904 256.917 451.324 254.973 451.324ZM254.973 446.932C255.885 446.932 256.737 446.716 257.529 446.284C258.345 445.828 258.993 445.156 259.473 444.268C259.953 443.38 260.193 442.3 260.193 441.028C260.193 439.132 259.689 437.68 258.681 436.672C257.697 435.64 256.485 435.124 255.045 435.124C253.605 435.124 252.393 435.64 251.409 436.672C250.449 437.68 249.969 439.132 249.969 441.028C249.969 442.924 250.437 444.388 251.373 445.42C252.333 446.428 253.533 446.932 254.973 446.932ZM274.114 447.004H282.394V451H269.074V425.872H274.114V447.004ZM288.153 428.68C287.265 428.68 286.521 428.404 285.921 427.852C285.345 427.276 285.057 426.568 285.057 425.728C285.057 424.888 285.345 424.192 285.921 423.64C286.521 423.064 287.265 422.776 288.153 422.776C289.041 422.776 289.773 423.064 290.349 423.64C290.949 424.192 291.249 424.888 291.249 425.728C291.249 426.568 290.949 427.276 290.349 427.852C289.773 428.404 289.041 428.68 288.153 428.68ZM290.637 431.056V451H285.597V431.056H290.637ZM301.485 435.196V444.844C301.485 445.516 301.641 446.008 301.953 446.32C302.289 446.608 302.841 446.752 303.609 446.752H305.949V451H302.781C298.533 451 296.409 448.936 296.409 444.808V435.196H294.033V431.056H296.409V426.124H301.485V431.056H305.949V435.196H301.485ZM328.114 440.596C328.114 441.316 328.066 441.964 327.97 442.54H313.39C313.51 443.98 314.014 445.108 314.902 445.924C315.79 446.74 316.882 447.148 318.178 447.148C320.05 447.148 321.382 446.344 322.174 444.736H327.61C327.034 446.656 325.93 448.24 324.298 449.488C322.666 450.712 320.662 451.324 318.286 451.324C316.366 451.324 314.638 450.904 313.102 450.064C311.59 449.2 310.402 447.988 309.538 446.428C308.698 444.868 308.278 443.068 308.278 441.028C308.278 438.964 308.698 437.152 309.538 435.592C310.378 434.032 311.554 432.832 313.066 431.992C314.578 431.152 316.318 430.732 318.286 430.732C320.182 430.732 321.874 431.14 323.362 431.956C324.874 432.772 326.038 433.936 326.854 435.448C327.694 436.936 328.114 438.652 328.114 440.596ZM322.894 439.156C322.87 437.86 322.402 436.828 321.49 436.06C320.578 435.268 319.462 434.872 318.142 434.872C316.894 434.872 315.838 435.256 314.974 436.024C314.134 436.768 313.618 437.812 313.426 439.156H322.894ZM365.139 430.768C367.587 430.768 369.555 431.524 371.043 433.036C372.555 434.524 373.311 436.612 373.311 439.3V451H368.271V439.984C368.271 438.424 367.875 437.236 367.083 436.42C366.291 435.58 365.211 435.16 363.843 435.16C362.475 435.16 361.383 435.58 360.567 436.42C359.775 437.236 359.379 438.424 359.379 439.984V451H354.339V439.984C354.339 438.424 353.943 437.236 353.151 436.42C352.359 435.58 351.279 435.16 349.911 435.16C348.519 435.16 347.415 435.58 346.599 436.42C345.807 437.236 345.411 438.424 345.411 439.984V451H340.371V431.056H345.411V433.468C346.059 432.628 346.887 431.968 347.895 431.488C348.927 431.008 350.055 430.768 351.279 430.768C352.839 430.768 354.231 431.104 355.455 431.776C356.679 432.424 357.627 433.36 358.299 434.584C358.947 433.432 359.883 432.508 361.107 431.812C362.355 431.116 363.699 430.768 365.139 430.768ZM396.633 440.596C396.633 441.316 396.585 441.964 396.489 442.54H381.909C382.029 443.98 382.533 445.108 383.421 445.924C384.309 446.74 385.401 447.148 386.697 447.148C388.569 447.148 389.901 446.344 390.693 444.736H396.129C395.553 446.656 394.449 448.24 392.817 449.488C391.185 450.712 389.181 451.324 386.805 451.324C384.885 451.324 383.157 450.904 381.621 450.064C380.109 449.2 378.921 447.988 378.057 446.428C377.217 444.868 376.797 443.068 376.797 441.028C376.797 438.964 377.217 437.152 378.057 435.592C378.897 434.032 380.073 432.832 381.585 431.992C383.097 431.152 384.837 430.732 386.805 430.732C388.701 430.732 390.393 431.14 391.881 431.956C393.393 432.772 394.557 433.936 395.373 435.448C396.213 436.936 396.633 438.652 396.633 440.596ZM391.413 439.156C391.389 437.86 390.921 436.828 390.009 436.06C389.097 435.268 387.981 434.872 386.661 434.872C385.413 434.872 384.357 435.256 383.493 436.024C382.653 436.768 382.137 437.812 381.945 439.156H391.413ZM425.08 430.768C427.528 430.768 429.496 431.524 430.984 433.036C432.496 434.524 433.252 436.612 433.252 439.3V451H428.212V439.984C428.212 438.424 427.816 437.236 427.024 436.42C426.232 435.58 425.152 435.16 423.784 435.16C422.416 435.16 421.324 435.58 420.508 436.42C419.716 437.236 419.32 438.424 419.32 439.984V451H414.28V439.984C414.28 438.424 413.884 437.236 413.092 436.42C412.3 435.58 411.22 435.16 409.852 435.16C408.46 435.16 407.356 435.58 406.54 436.42C405.748 437.236 405.352 438.424 405.352 439.984V451H400.312V431.056H405.352V433.468C406 432.628 406.828 431.968 407.836 431.488C408.868 431.008 409.996 430.768 411.22 430.768C412.78 430.768 414.172 431.104 415.396 431.776C416.62 432.424 417.568 433.36 418.24 434.584C418.888 433.432 419.824 432.508 421.048 431.812C422.296 431.116 423.64 430.768 425.08 430.768ZM443.075 433.936C443.723 433.024 444.611 432.268 445.739 431.668C446.891 431.044 448.199 430.732 449.663 430.732C451.367 430.732 452.903 431.152 454.271 431.992C455.663 432.832 456.755 434.032 457.547 435.592C458.363 437.128 458.771 438.916 458.771 440.956C458.771 442.996 458.363 444.808 457.547 446.392C456.755 447.952 455.663 449.164 454.271 450.028C452.903 450.892 451.367 451.324 449.663 451.324C448.199 451.324 446.903 451.024 445.775 450.424C444.671 449.824 443.771 449.068 443.075 448.156V460.504H438.035V431.056H443.075V433.936ZM453.623 440.956C453.623 439.756 453.371 438.724 452.867 437.86C452.387 436.972 451.739 436.3 450.923 435.844C450.131 435.388 449.267 435.16 448.331 435.16C447.419 435.16 446.555 435.4 445.739 435.88C444.947 436.336 444.299 437.008 443.795 437.896C443.315 438.784 443.075 439.828 443.075 441.028C443.075 442.228 443.315 443.272 443.795 444.16C444.299 445.048 444.947 445.732 445.739 446.212C446.555 446.668 447.419 446.896 448.331 446.896C449.267 446.896 450.131 446.656 450.923 446.176C451.739 445.696 452.387 445.012 452.867 444.124C453.371 443.236 453.623 442.18 453.623 440.956ZM481.261 431.056V451H476.185V448.48C475.537 449.344 474.685 450.028 473.629 450.532C472.597 451.012 471.469 451.252 470.245 451.252C468.685 451.252 467.305 450.928 466.105 450.28C464.905 449.608 463.957 448.636 463.261 447.364C462.589 446.068 462.253 444.532 462.253 442.756V431.056H467.293V442.036C467.293 443.62 467.689 444.844 468.481 445.708C469.273 446.548 470.353 446.968 471.721 446.968C473.113 446.968 474.205 446.548 474.997 445.708C475.789 444.844 476.185 443.62 476.185 442.036V431.056H481.261ZM497.286 430.768C499.662 430.768 501.582 431.524 503.046 433.036C504.51 434.524 505.242 436.612 505.242 439.3V451H500.202V439.984C500.202 438.4 499.806 437.188 499.014 436.348C498.222 435.484 497.142 435.052 495.774 435.052C494.382 435.052 493.278 435.484 492.462 436.348C491.67 437.188 491.274 438.4 491.274 439.984V451H486.234V431.056H491.274V433.54C491.946 432.676 492.798 432.004 493.83 431.524C494.886 431.02 496.038 430.768 497.286 430.768ZM529.115 431.056L516.767 460.432H511.403L515.723 450.496L507.731 431.056H513.383L518.531 444.988L523.751 431.056H529.115ZM530.536 440.956C530.536 438.94 530.932 437.152 531.724 435.592C532.54 434.032 533.632 432.832 535 431.992C536.392 431.152 537.94 430.732 539.644 430.732C541.132 430.732 542.428 431.032 543.532 431.632C544.66 432.232 545.56 432.988 546.232 433.9V431.056H551.308V451H546.232V448.084C545.584 449.02 544.684 449.8 543.532 450.424C542.404 451.024 541.096 451.324 539.608 451.324C537.928 451.324 536.392 450.892 535 450.028C533.632 449.164 532.54 447.952 531.724 446.392C530.932 444.808 530.536 442.996 530.536 440.956ZM546.232 441.028C546.232 439.804 545.992 438.76 545.512 437.896C545.032 437.008 544.384 436.336 543.568 435.88C542.752 435.4 541.876 435.16 540.94 435.16C540.004 435.16 539.14 435.388 538.348 435.844C537.556 436.3 536.908 436.972 536.404 437.86C535.924 438.724 535.684 439.756 535.684 440.956C535.684 442.156 535.924 443.212 536.404 444.124C536.908 445.012 537.556 445.696 538.348 446.176C539.164 446.656 540.028 446.896 540.94 446.896C541.876 446.896 542.752 446.668 543.568 446.212C544.384 445.732 545.032 445.06 545.512 444.196C545.992 443.308 546.232 442.252 546.232 441.028ZM558.786 428.68C557.898 428.68 557.154 428.404 556.554 427.852C555.978 427.276 555.69 426.568 555.69 425.728C555.69 424.888 555.978 424.192 556.554 423.64C557.154 423.064 557.898 422.776 558.786 422.776C559.674 422.776 560.406 423.064 560.982 423.64C561.582 424.192 561.882 424.888 561.882 425.728C561.882 426.568 561.582 427.276 560.982 427.852C560.406 428.404 559.674 428.68 558.786 428.68ZM561.27 431.056V451H556.23V431.056H561.27ZM583.972 435.196H580.48V451H575.368V435.196H573.1V431.056H575.368V430.048C575.368 427.6 576.064 425.8 577.456 424.648C578.848 423.496 580.948 422.956 583.756 423.028V427.276C582.532 427.252 581.68 427.456 581.2 427.888C580.72 428.32 580.48 429.1 580.48 430.228V431.056H583.972V435.196ZM589.794 428.68C588.906 428.68 588.162 428.404 587.562 427.852C586.986 427.276 586.698 426.568 586.698 425.728C586.698 424.888 586.986 424.192 587.562 423.64C588.162 423.064 588.906 422.776 589.794 422.776C590.682 422.776 591.414 423.064 591.99 423.64C592.59 424.192 592.89 424.888 592.89 425.728C592.89 426.568 592.59 427.276 591.99 427.852C591.414 428.404 590.682 428.68 589.794 428.68ZM592.278 431.056V451H587.238V431.056H592.278ZM603.125 435.196V444.844C603.125 445.516 603.281 446.008 603.593 446.32C603.929 446.608 604.481 446.752 605.249 446.752H607.589V451H604.421C600.173 451 598.049 448.936 598.049 444.808V435.196H595.673V431.056H598.049V426.124H603.125V431.056H607.589V435.196H603.125ZM630.042 431.056V451H624.966V448.48C624.318 449.344 623.466 450.028 622.41 450.532C621.378 451.012 620.25 451.252 619.026 451.252C617.466 451.252 616.086 450.928 614.886 450.28C613.686 449.608 612.738 448.636 612.042 447.364C611.37 446.068 611.034 444.532 611.034 442.756V431.056H616.074V442.036C616.074 443.62 616.47 444.844 617.262 445.708C618.054 446.548 619.134 446.968 620.502 446.968C621.894 446.968 622.986 446.548 623.778 445.708C624.57 444.844 624.966 443.62 624.966 442.036V431.056H630.042ZM640.055 434.152C640.703 433.096 641.543 432.268 642.575 431.668C643.631 431.068 644.831 430.768 646.175 430.768V436.06H644.843C643.259 436.06 642.059 436.432 641.243 437.176C640.451 437.92 640.055 439.216 640.055 441.064V451H635.015V431.056H640.055V434.152ZM656.852 441.028C656.852 438.964 657.272 437.164 658.112 435.628C658.952 434.068 660.116 432.868 661.604 432.028C663.092 431.164 664.796 430.732 666.716 430.732C669.188 430.732 671.228 431.356 672.836 432.604C674.468 433.828 675.56 435.556 676.112 437.788H670.676C670.388 436.924 669.896 436.252 669.2 435.772C668.528 435.268 667.688 435.016 666.68 435.016C665.24 435.016 664.1 435.544 663.26 436.6C662.42 437.632 662 439.108 662 441.028C662 442.924 662.42 444.4 663.26 445.456C664.1 446.488 665.24 447.004 666.68 447.004C668.72 447.004 670.052 446.092 670.676 444.268H676.112C675.56 446.428 674.468 448.144 672.836 449.416C671.204 450.688 669.164 451.324 666.716 451.324C664.796 451.324 663.092 450.904 661.604 450.064C660.116 449.2 658.952 448 658.112 446.464C657.272 444.904 656.852 443.092 656.852 441.028ZM691.036 430.768C692.548 430.768 693.892 431.104 695.068 431.776C696.244 432.424 697.156 433.396 697.804 434.692C698.476 435.964 698.812 437.5 698.812 439.3V451H693.772V439.984C693.772 438.4 693.376 437.188 692.584 436.348C691.792 435.484 690.712 435.052 689.344 435.052C687.952 435.052 686.848 435.484 686.032 436.348C685.24 437.188 684.844 438.4 684.844 439.984V451H679.804V424.36H684.844V433.54C685.492 432.676 686.356 432.004 687.436 431.524C688.516 431.02 689.716 430.768 691.036 430.768ZM702.309 440.956C702.309 438.94 702.705 437.152 703.497 435.592C704.313 434.032 705.405 432.832 706.773 431.992C708.165 431.152 709.713 430.732 711.417 430.732C712.905 430.732 714.201 431.032 715.305 431.632C716.433 432.232 717.333 432.988 718.005 433.9V431.056H723.081V451H718.005V448.084C717.357 449.02 716.457 449.8 715.305 450.424C714.177 451.024 712.869 451.324 711.381 451.324C709.701 451.324 708.165 450.892 706.773 450.028C705.405 449.164 704.313 447.952 703.497 446.392C702.705 444.808 702.309 442.996 702.309 440.956ZM718.005 441.028C718.005 439.804 717.765 438.76 717.285 437.896C716.805 437.008 716.157 436.336 715.341 435.88C714.525 435.4 713.649 435.16 712.713 435.16C711.777 435.16 710.913 435.388 710.121 435.844C709.329 436.3 708.681 436.972 708.177 437.86C707.697 438.724 707.457 439.756 707.457 440.956C707.457 442.156 707.697 443.212 708.177 444.124C708.681 445.012 709.329 445.696 710.121 446.176C710.937 446.656 711.801 446.896 712.713 446.896C713.649 446.896 714.525 446.668 715.341 446.212C716.157 445.732 716.805 445.06 717.285 444.196C717.765 443.308 718.005 442.252 718.005 441.028ZM733.044 424.36V451H728.004V424.36H733.044ZM743.063 424.36V451H738.023V424.36H743.063ZM766.583 440.596C766.583 441.316 766.535 441.964 766.439 442.54H751.859C751.979 443.98 752.483 445.108 753.371 445.924C754.259 446.74 755.351 447.148 756.647 447.148C758.519 447.148 759.851 446.344 760.643 444.736H766.079C765.503 446.656 764.399 448.24 762.767 449.488C761.135 450.712 759.131 451.324 756.755 451.324C754.835 451.324 753.107 450.904 751.571 450.064C750.059 449.2 748.871 447.988 748.007 446.428C747.167 444.868 746.747 443.068 746.747 441.028C746.747 438.964 747.167 437.152 748.007 435.592C748.847 434.032 750.023 432.832 751.535 431.992C753.047 431.152 754.787 430.732 756.755 430.732C758.651 430.732 760.343 431.14 761.831 431.956C763.343 432.772 764.507 433.936 765.323 435.448C766.163 436.936 766.583 438.652 766.583 440.596ZM761.363 439.156C761.339 437.86 760.871 436.828 759.959 436.06C759.047 435.268 757.931 434.872 756.611 434.872C755.363 434.872 754.307 435.256 753.443 436.024C752.603 436.768 752.087 437.812 751.895 439.156H761.363ZM781.313 430.768C783.689 430.768 785.609 431.524 787.073 433.036C788.537 434.524 789.269 436.612 789.269 439.3V451H784.229V439.984C784.229 438.4 783.833 437.188 783.041 436.348C782.249 435.484 781.169 435.052 779.801 435.052C778.409 435.052 777.305 435.484 776.489 436.348C775.697 437.188 775.301 438.4 775.301 439.984V451H770.261V431.056H775.301V433.54C775.973 432.676 776.825 432.004 777.857 431.524C778.913 431.02 780.065 430.768 781.313 430.768ZM801.874 430.732C803.362 430.732 804.67 431.032 805.798 431.632C806.926 432.208 807.814 432.964 808.462 433.9V431.056H813.538V451.144C813.538 452.992 813.166 454.636 812.422 456.076C811.678 457.54 810.562 458.692 809.074 459.532C807.586 460.396 805.786 460.828 803.674 460.828C800.842 460.828 798.514 460.168 796.69 458.848C794.89 457.528 793.87 455.728 793.63 453.448H798.634C798.898 454.36 799.462 455.08 800.326 455.608C801.214 456.16 802.282 456.436 803.53 456.436C804.994 456.436 806.182 455.992 807.094 455.104C808.006 454.24 808.462 452.92 808.462 451.144V448.048C807.814 448.984 806.914 449.764 805.762 450.388C804.634 451.012 803.338 451.324 801.874 451.324C800.194 451.324 798.658 450.892 797.266 450.028C795.874 449.164 794.77 447.952 793.954 446.392C793.162 444.808 792.766 442.996 792.766 440.956C792.766 438.94 793.162 437.152 793.954 435.592C794.77 434.032 795.862 432.832 797.23 431.992C798.622 431.152 800.17 430.732 801.874 430.732ZM808.462 441.028C808.462 439.804 808.222 438.76 807.742 437.896C807.262 437.008 806.614 436.336 805.798 435.88C804.982 435.4 804.106 435.16 803.17 435.16C802.234 435.16 801.37 435.388 800.578 435.844C799.786 436.3 799.138 436.972 798.634 437.86C798.154 438.724 797.914 439.756 797.914 440.956C797.914 442.156 798.154 443.212 798.634 444.124C799.138 445.012 799.786 445.696 800.578 446.176C801.394 446.656 802.258 446.896 803.17 446.896C804.106 446.896 804.982 446.668 805.798 446.212C806.614 445.732 807.262 445.06 807.742 444.196C808.222 443.308 808.462 442.252 808.462 441.028ZM837.001 440.596C837.001 441.316 836.953 441.964 836.857 442.54H822.277C822.397 443.98 822.901 445.108 823.789 445.924C824.677 446.74 825.769 447.148 827.065 447.148C828.937 447.148 830.269 446.344 831.061 444.736H836.497C835.921 446.656 834.817 448.24 833.185 449.488C831.553 450.712 829.549 451.324 827.173 451.324C825.253 451.324 823.525 450.904 821.989 450.064C820.477 449.2 819.289 447.988 818.425 446.428C817.585 444.868 817.165 443.068 817.165 441.028C817.165 438.964 817.585 437.152 818.425 435.592C819.265 434.032 820.441 432.832 821.953 431.992C823.465 431.152 825.205 430.732 827.173 430.732C829.069 430.732 830.761 431.14 832.249 431.956C833.761 432.772 834.925 433.936 835.741 435.448C836.581 436.936 837.001 438.652 837.001 440.596ZM831.781 439.156C831.757 437.86 831.289 436.828 830.377 436.06C829.465 435.268 828.349 434.872 827.029 434.872C825.781 434.872 824.725 435.256 823.861 436.024C823.021 436.768 822.505 437.812 822.313 439.156H831.781ZM868.337 431.056L855.989 460.432H850.625L854.945 450.496L846.953 431.056H852.605L857.753 444.988L862.973 431.056H868.337ZM869.758 440.956C869.758 438.94 870.154 437.152 870.946 435.592C871.762 434.032 872.854 432.832 874.222 431.992C875.614 431.152 877.162 430.732 878.866 430.732C880.354 430.732 881.65 431.032 882.754 431.632C883.882 432.232 884.782 432.988 885.454 433.9V431.056H890.53V451H885.454V448.084C884.806 449.02 883.906 449.8 882.754 450.424C881.626 451.024 880.318 451.324 878.83 451.324C877.15 451.324 875.614 450.892 874.222 450.028C872.854 449.164 871.762 447.952 870.946 446.392C870.154 444.808 869.758 442.996 869.758 440.956ZM885.454 441.028C885.454 439.804 885.214 438.76 884.734 437.896C884.254 437.008 883.606 436.336 882.79 435.88C881.974 435.4 881.098 435.16 880.162 435.16C879.226 435.16 878.362 435.388 877.57 435.844C876.778 436.3 876.13 436.972 875.626 437.86C875.146 438.724 874.906 439.756 874.906 440.956C874.906 442.156 875.146 443.212 875.626 444.124C876.13 445.012 876.778 445.696 877.57 446.176C878.386 446.656 879.25 446.896 880.162 446.896C881.098 446.896 881.974 446.668 882.79 446.212C883.606 445.732 884.254 445.06 884.734 444.196C885.214 443.308 885.454 442.252 885.454 441.028ZM906.505 430.768C908.881 430.768 910.801 431.524 912.265 433.036C913.729 434.524 914.461 436.612 914.461 439.3V451H909.421V439.984C909.421 438.4 909.025 437.188 908.233 436.348C907.441 435.484 906.361 435.052 904.993 435.052C903.601 435.052 902.497 435.484 901.681 436.348C900.889 437.188 900.493 438.4 900.493 439.984V451H895.453V431.056H900.493V433.54C901.165 432.676 902.017 432.004 903.049 431.524C904.105 431.02 905.257 430.768 906.505 430.768ZM927.066 430.732C928.554 430.732 929.862 431.032 930.99 431.632C932.118 432.208 933.006 432.964 933.654 433.9V431.056H938.73V451.144C938.73 452.992 938.358 454.636 937.614 456.076C936.87 457.54 935.754 458.692 934.266 459.532C932.778 460.396 930.978 460.828 928.866 460.828C926.034 460.828 923.706 460.168 921.882 458.848C920.082 457.528 919.062 455.728 918.822 453.448H923.826C924.09 454.36 924.654 455.08 925.518 455.608C926.406 456.16 927.474 456.436 928.722 456.436C930.186 456.436 931.374 455.992 932.286 455.104C933.198 454.24 933.654 452.92 933.654 451.144V448.048C933.006 448.984 932.106 449.764 930.954 450.388C929.826 451.012 928.53 451.324 927.066 451.324C925.386 451.324 923.85 450.892 922.458 450.028C921.066 449.164 919.962 447.952 919.146 446.392C918.354 444.808 917.958 442.996 917.958 440.956C917.958 438.94 918.354 437.152 919.146 435.592C919.962 434.032 921.054 432.832 922.422 431.992C923.814 431.152 925.362 430.732 927.066 430.732ZM933.654 441.028C933.654 439.804 933.414 438.76 932.934 437.896C932.454 437.008 931.806 436.336 930.99 435.88C930.174 435.4 929.298 435.16 928.362 435.16C927.426 435.16 926.562 435.388 925.77 435.844C924.978 436.3 924.33 436.972 923.826 437.86C923.346 438.724 923.106 439.756 923.106 440.956C923.106 442.156 923.346 443.212 923.826 444.124C924.33 445.012 924.978 445.696 925.77 446.176C926.586 446.656 927.45 446.896 928.362 446.896C929.298 446.896 930.174 446.668 930.99 446.212C931.806 445.732 932.454 445.06 932.934 444.196C933.414 443.308 933.654 442.252 933.654 441.028ZM957.27 433.972C957.918 433.012 958.806 432.232 959.934 431.632C961.086 431.032 962.394 430.732 963.858 430.732C965.562 430.732 967.098 431.152 968.466 431.992C969.858 432.832 970.95 434.032 971.742 435.592C972.558 437.128 972.966 438.916 972.966 440.956C972.966 442.996 972.558 444.808 971.742 446.392C970.95 447.952 969.858 449.164 968.466 450.028C967.098 450.892 965.562 451.324 963.858 451.324C962.37 451.324 961.062 451.036 959.934 450.46C958.83 449.86 957.942 449.092 957.27 448.156V451H952.23V424.36H957.27V433.972ZM967.818 440.956C967.818 439.756 967.566 438.724 967.062 437.86C966.582 436.972 965.934 436.3 965.118 435.844C964.326 435.388 963.462 435.16 962.526 435.16C961.614 435.16 960.75 435.4 959.934 435.88C959.142 436.336 958.494 437.008 957.99 437.896C957.51 438.784 957.27 439.828 957.27 441.028C957.27 442.228 957.51 443.272 957.99 444.16C958.494 445.048 959.142 445.732 959.934 446.212C960.75 446.668 961.614 446.896 962.526 446.896C963.462 446.896 964.326 446.656 965.118 446.176C965.934 445.696 966.582 445.012 967.062 444.124C967.566 443.236 967.818 442.18 967.818 440.956ZM995.169 440.596C995.169 441.316 995.121 441.964 995.025 442.54H980.445C980.565 443.98 981.069 445.108 981.957 445.924C982.845 446.74 983.937 447.148 985.233 447.148C987.105 447.148 988.437 446.344 989.229 444.736H994.665C994.089 446.656 992.985 448.24 991.353 449.488C989.721 450.712 987.717 451.324 985.341 451.324C983.421 451.324 981.693 450.904 980.157 450.064C978.645 449.2 977.457 447.988 976.593 446.428C975.753 444.868 975.333 443.068 975.333 441.028C975.333 438.964 975.753 437.152 976.593 435.592C977.433 434.032 978.609 432.832 980.121 431.992C981.633 431.152 983.373 430.732 985.341 430.732C987.237 430.732 988.929 431.14 990.417 431.956C991.929 432.772 993.093 433.936 993.909 435.448C994.749 436.936 995.169 438.652 995.169 440.596ZM989.949 439.156C989.925 437.86 989.457 436.828 988.545 436.06C987.633 435.268 986.517 434.872 985.197 434.872C983.949 434.872 982.893 435.256 982.029 436.024C981.189 436.768 980.673 437.812 980.481 439.156H989.949ZM1003.89 434.152C1004.54 433.096 1005.38 432.268 1006.41 431.668C1007.46 431.068 1008.66 430.768 1010.01 430.768V436.06H1008.68C1007.09 436.06 1005.89 436.432 1005.08 437.176C1004.28 437.92 1003.89 439.216 1003.89 441.064V451H998.847V431.056H1003.89V434.152ZM1021.21 430.732C1022.7 430.732 1024.01 431.032 1025.14 431.632C1026.27 432.208 1027.15 432.964 1027.8 433.9V431.056H1032.88V451.144C1032.88 452.992 1032.51 454.636 1031.76 456.076C1031.02 457.54 1029.9 458.692 1028.41 459.532C1026.93 460.396 1025.13 460.828 1023.01 460.828C1020.18 460.828 1017.85 460.168 1016.03 458.848C1014.23 457.528 1013.21 455.728 1012.97 453.448H1017.97C1018.24 454.36 1018.8 455.08 1019.67 455.608C1020.55 456.16 1021.62 456.436 1022.87 456.436C1024.33 456.436 1025.52 455.992 1026.43 455.104C1027.35 454.24 1027.8 452.92 1027.8 451.144V448.048C1027.15 448.984 1026.25 449.764 1025.1 450.388C1023.97 451.012 1022.68 451.324 1021.21 451.324C1019.53 451.324 1018 450.892 1016.61 450.028C1015.21 449.164 1014.11 447.952 1013.29 446.392C1012.5 444.808 1012.11 442.996 1012.11 440.956C1012.11 438.94 1012.5 437.152 1013.29 435.592C1014.11 434.032 1015.2 432.832 1016.57 431.992C1017.96 431.152 1019.51 430.732 1021.21 430.732ZM1027.8 441.028C1027.8 439.804 1027.56 438.76 1027.08 437.896C1026.6 437.008 1025.95 436.336 1025.14 435.88C1024.32 435.4 1023.45 435.16 1022.51 435.16C1021.57 435.16 1020.71 435.388 1019.92 435.844C1019.13 436.3 1018.48 436.972 1017.97 437.86C1017.49 438.724 1017.25 439.756 1017.25 440.956C1017.25 442.156 1017.49 443.212 1017.97 444.124C1018.48 445.012 1019.13 445.696 1019.92 446.176C1020.73 446.656 1021.6 446.896 1022.51 446.896C1023.45 446.896 1024.32 446.668 1025.14 446.212C1025.95 445.732 1026.6 445.06 1027.08 444.196C1027.56 443.308 1027.8 442.252 1027.8 441.028ZM1056.63 431.056V451H1051.55V448.48C1050.9 449.344 1050.05 450.028 1049 450.532C1047.96 451.012 1046.84 451.252 1045.61 451.252C1044.05 451.252 1042.67 450.928 1041.47 450.28C1040.27 449.608 1039.32 448.636 1038.63 447.364C1037.96 446.068 1037.62 444.532 1037.62 442.756V431.056H1042.66V442.036C1042.66 443.62 1043.06 444.844 1043.85 445.708C1044.64 446.548 1045.72 446.968 1047.09 446.968C1048.48 446.968 1049.57 446.548 1050.36 445.708C1051.16 444.844 1051.55 443.62 1051.55 442.036V431.056H1056.63ZM1072.65 430.768C1075.03 430.768 1076.95 431.524 1078.41 433.036C1079.88 434.524 1080.61 436.612 1080.61 439.3V451H1075.57V439.984C1075.57 438.4 1075.17 437.188 1074.38 436.348C1073.59 435.484 1072.51 435.052 1071.14 435.052C1069.75 435.052 1068.65 435.484 1067.83 436.348C1067.04 437.188 1066.64 438.4 1066.64 439.984V451H1061.6V431.056H1066.64V433.54C1067.31 432.676 1068.17 432.004 1069.2 431.524C1070.25 431.02 1071.41 430.768 1072.65 430.768ZM1084.11 440.956C1084.11 438.94 1084.5 437.152 1085.29 435.592C1086.11 434.032 1087.2 432.832 1088.57 431.992C1089.96 431.152 1091.51 430.732 1093.21 430.732C1094.7 430.732 1096 431.032 1097.1 431.632C1098.23 432.232 1099.13 432.988 1099.8 433.9V431.056H1104.88V451H1099.8V448.084C1099.15 449.02 1098.25 449.8 1097.1 450.424C1095.97 451.024 1094.67 451.324 1093.18 451.324C1091.5 451.324 1089.96 450.892 1088.57 450.028C1087.2 449.164 1086.11 447.952 1085.29 446.392C1084.5 444.808 1084.11 442.996 1084.11 440.956ZM1099.8 441.028C1099.8 439.804 1099.56 438.76 1099.08 437.896C1098.6 437.008 1097.95 436.336 1097.14 435.88C1096.32 435.4 1095.45 435.16 1094.51 435.16C1093.57 435.16 1092.71 435.388 1091.92 435.844C1091.13 436.3 1090.48 436.972 1089.97 437.86C1089.49 438.724 1089.25 439.756 1089.25 440.956C1089.25 442.156 1089.49 443.212 1089.97 444.124C1090.48 445.012 1091.13 445.696 1091.92 446.176C1092.73 446.656 1093.6 446.896 1094.51 446.896C1095.45 446.896 1096.32 446.668 1097.14 446.212C1097.95 445.732 1098.6 445.06 1099.08 444.196C1099.56 443.308 1099.8 442.252 1099.8 441.028ZM1137.21 431.056V451H1132.13V448.48C1131.48 449.344 1130.63 450.028 1129.57 450.532C1128.54 451.012 1127.41 451.252 1126.19 451.252C1124.63 451.252 1123.25 450.928 1122.05 450.28C1120.85 449.608 1119.9 448.636 1119.21 447.364C1118.53 446.068 1118.2 444.532 1118.2 442.756V431.056H1123.24V442.036C1123.24 443.62 1123.63 444.844 1124.43 445.708C1125.22 446.548 1126.3 446.968 1127.67 446.968C1129.06 446.968 1130.15 446.548 1130.94 445.708C1131.73 444.844 1132.13 443.62 1132.13 442.036V431.056H1137.21ZM1153.23 430.768C1155.61 430.768 1157.53 431.524 1158.99 433.036C1160.46 434.524 1161.19 436.612 1161.19 439.3V451H1156.15V439.984C1156.15 438.4 1155.75 437.188 1154.96 436.348C1154.17 435.484 1153.09 435.052 1151.72 435.052C1150.33 435.052 1149.22 435.484 1148.41 436.348C1147.62 437.188 1147.22 438.4 1147.22 439.984V451H1142.18V431.056H1147.22V433.54C1147.89 432.676 1148.74 432.004 1149.78 431.524C1150.83 431.02 1151.98 430.768 1153.23 430.768ZM1171.85 435.196V444.844C1171.85 445.516 1172 446.008 1172.32 446.32C1172.65 446.608 1173.2 446.752 1173.97 446.752H1176.31V451H1173.14C1168.9 451 1166.77 448.936 1166.77 444.808V435.196H1164.4V431.056H1166.77V426.124H1171.85V431.056H1176.31V435.196H1171.85ZM1198.77 431.056V451H1193.69V448.48C1193.04 449.344 1192.19 450.028 1191.13 450.532C1190.1 451.012 1188.97 451.252 1187.75 451.252C1186.19 451.252 1184.81 450.928 1183.61 450.28C1182.41 449.608 1181.46 448.636 1180.77 447.364C1180.09 446.068 1179.76 444.532 1179.76 442.756V431.056H1184.8V442.036C1184.8 443.62 1185.19 444.844 1185.99 445.708C1186.78 446.548 1187.86 446.968 1189.23 446.968C1190.62 446.968 1191.71 446.548 1192.5 445.708C1193.29 444.844 1193.69 443.62 1193.69 442.036V431.056H1198.77ZM1215.55 451L1208.78 442.504V451H1203.74V424.36H1208.78V439.516L1215.47 431.056H1222.03L1213.24 441.064L1222.1 451H1215.55Z" fill="white"/>
<path d="M362.856 231.616H349.512L347.304 238H340.248L352.296 204.448H360.12L372.168 238H365.064L362.856 231.616ZM361.032 226.24L356.184 212.224L351.336 226.24H361.032ZM398.525 210.976C400.509 210.976 402.253 211.376 403.757 212.176C405.261 212.944 406.445 213.952 407.309 215.2V211.408H414.077V238.192C414.077 240.656 413.581 242.848 412.589 244.768C411.597 246.72 410.109 248.256 408.125 249.376C406.141 250.528 403.741 251.104 400.925 251.104C397.149 251.104 394.045 250.224 391.613 248.464C389.213 246.704 387.853 244.304 387.533 241.264H394.205C394.557 242.48 395.309 243.44 396.461 244.144C397.645 244.88 399.069 245.248 400.733 245.248C402.685 245.248 404.269 244.656 405.485 243.472C406.701 242.32 407.309 240.56 407.309 238.192V234.064C406.445 235.312 405.245 236.352 403.709 237.184C402.205 238.016 400.477 238.432 398.525 238.432C396.285 238.432 394.237 237.856 392.381 236.704C390.525 235.552 389.053 233.936 387.965 231.856C386.909 229.744 386.381 227.328 386.381 224.608C386.381 221.92 386.909 219.536 387.965 217.456C389.053 215.376 390.509 213.776 392.333 212.656C394.189 211.536 396.253 210.976 398.525 210.976ZM407.309 224.704C407.309 223.072 406.989 221.68 406.349 220.528C405.709 219.344 404.845 218.448 403.757 217.84C402.669 217.2 401.501 216.88 400.253 216.88C399.005 216.88 397.853 217.184 396.797 217.792C395.741 218.4 394.877 219.296 394.205 220.48C393.565 221.632 393.245 223.008 393.245 224.608C393.245 226.208 393.565 227.616 394.205 228.832C394.877 230.016 395.741 230.928 396.797 231.568C397.885 232.208 399.037 232.528 400.253 232.528C401.501 232.528 402.669 232.224 403.757 231.616C404.845 230.976 405.709 230.08 406.349 228.928C406.989 227.744 407.309 226.336 407.309 224.704ZM427.36 215.536C428.224 214.128 429.344 213.024 430.72 212.224C432.128 211.424 433.728 211.024 435.52 211.024V218.08H433.744C431.632 218.08 430.032 218.576 428.944 219.568C427.888 220.56 427.36 222.288 427.36 224.752V238H420.64V211.408H427.36V215.536ZM464.766 224.128C464.766 225.088 464.702 225.952 464.574 226.72H445.134C445.294 228.64 445.966 230.144 447.15 231.232C448.334 232.32 449.79 232.864 451.518 232.864C454.014 232.864 455.79 231.792 456.846 229.648H464.094C463.326 232.208 461.854 234.32 459.678 235.984C457.502 237.616 454.83 238.432 451.662 238.432C449.102 238.432 446.798 237.872 444.75 236.752C442.734 235.6 441.15 233.984 439.998 231.904C438.878 229.824 438.318 227.424 438.318 224.704C438.318 221.952 438.878 219.536 439.998 217.456C441.118 215.376 442.686 213.776 444.702 212.656C446.718 211.536 449.038 210.976 451.662 210.976C454.19 210.976 456.446 211.52 458.43 212.608C460.446 213.696 461.998 215.248 463.086 217.264C464.206 219.248 464.766 221.536 464.766 224.128ZM457.806 222.208C457.774 220.48 457.15 219.104 455.934 218.08C454.718 217.024 453.23 216.496 451.47 216.496C449.806 216.496 448.398 217.008 447.246 218.032C446.126 219.024 445.438 220.416 445.182 222.208H457.806ZM467.943 224.608C467.943 221.92 468.471 219.536 469.527 217.456C470.615 215.376 472.071 213.776 473.895 212.656C475.751 211.536 477.815 210.976 480.087 210.976C482.071 210.976 483.799 211.376 485.271 212.176C486.775 212.976 487.975 213.984 488.871 215.2V211.408H495.639V238H488.871V234.112C488.007 235.36 486.807 236.4 485.271 237.232C483.767 238.032 482.023 238.432 480.039 238.432C477.799 238.432 475.751 237.856 473.895 236.704C472.071 235.552 470.615 233.936 469.527 231.856C468.471 229.744 467.943 227.328 467.943 224.608ZM488.871 224.704C488.871 223.072 488.551 221.68 487.911 220.528C487.271 219.344 486.407 218.448 485.319 217.84C484.231 217.2 483.063 216.88 481.815 216.88C480.567 216.88 479.415 217.184 478.359 217.792C477.303 218.4 476.439 219.296 475.767 220.48C475.127 221.632 474.807 223.008 474.807 224.608C474.807 226.208 475.127 227.616 475.767 228.832C476.439 230.016 477.303 230.928 478.359 231.568C479.447 232.208 480.599 232.528 481.815 232.528C483.063 232.528 484.231 232.224 485.319 231.616C486.407 230.976 487.271 230.08 487.911 228.928C488.551 227.744 488.871 226.336 488.871 224.704ZM510.027 216.928V229.792C510.027 230.688 510.235 231.344 510.651 231.76C511.099 232.144 511.835 232.336 512.859 232.336H515.979V238H511.755C506.091 238 503.259 235.248 503.259 229.744V216.928H500.091V211.408H503.259V204.832H510.027V211.408H515.979V216.928H510.027ZM544.442 216.928H539.786V238H532.97V216.928H529.946V211.408H532.97V210.064C532.97 206.8 533.898 204.4 535.754 202.864C537.61 201.328 540.41 200.608 544.154 200.704V206.368C542.522 206.336 541.386 206.608 540.746 207.184C540.106 207.76 539.786 208.8 539.786 210.304V211.408H544.442V216.928ZM573.9 211.408V238H567.132V234.64C566.268 235.792 565.132 236.704 563.724 237.376C562.348 238.016 560.844 238.336 559.212 238.336C557.132 238.336 555.292 237.904 553.692 237.04C552.092 236.144 550.828 234.848 549.9 233.152C549.004 231.424 548.556 229.376 548.556 227.008V211.408H555.276V226.048C555.276 228.16 555.804 229.792 556.86 230.944C557.916 232.064 559.356 232.624 561.18 232.624C563.036 232.624 564.492 232.064 565.548 230.944C566.604 229.792 567.132 228.16 567.132 226.048V211.408H573.9ZM588.355 216.928V229.792C588.355 230.688 588.563 231.344 588.979 231.76C589.427 232.144 590.163 232.336 591.187 232.336H594.307V238H590.083C584.419 238 581.587 235.248 581.587 229.744V216.928H578.419V211.408H581.587V204.832H588.355V211.408H594.307V216.928H588.355ZM624.244 211.408V238H617.476V234.64C616.612 235.792 615.476 236.704 614.068 237.376C612.692 238.016 611.188 238.336 609.556 238.336C607.476 238.336 605.636 237.904 604.036 237.04C602.436 236.144 601.172 234.848 600.244 233.152C599.348 231.424 598.9 229.376 598.9 227.008V211.408H605.62V226.048C605.62 228.16 606.148 229.792 607.204 230.944C608.26 232.064 609.7 232.624 611.524 232.624C613.38 232.624 614.836 232.064 615.892 230.944C616.948 229.792 617.476 228.16 617.476 226.048V211.408H624.244ZM637.595 215.536C638.459 214.128 639.579 213.024 640.955 212.224C642.363 211.424 643.963 211.024 645.755 211.024V218.08H643.979C641.867 218.08 640.267 218.576 639.179 219.568C638.123 220.56 637.595 222.288 637.595 224.752V238H630.875V211.408H637.595V215.536ZM675.001 224.128C675.001 225.088 674.937 225.952 674.809 226.72H655.369C655.529 228.64 656.201 230.144 657.385 231.232C658.569 232.32 660.025 232.864 661.753 232.864C664.249 232.864 666.025 231.792 667.081 229.648H674.329C673.561 232.208 672.089 234.32 669.913 235.984C667.737 237.616 665.065 238.432 661.897 238.432C659.337 238.432 657.033 237.872 654.985 236.752C652.969 235.6 651.385 233.984 650.233 231.904C649.113 229.824 648.553 227.424 648.553 224.704C648.553 221.952 649.113 219.536 650.233 217.456C651.353 215.376 652.921 213.776 654.937 212.656C656.953 211.536 659.273 210.976 661.897 210.976C664.425 210.976 666.681 211.52 668.665 212.608C670.681 213.696 672.233 215.248 673.321 217.264C674.441 219.248 675.001 221.536 675.001 224.128ZM668.041 222.208C668.009 220.48 667.385 219.104 666.169 218.08C664.953 217.024 663.465 216.496 661.705 216.496C660.041 216.496 658.633 217.008 657.481 218.032C656.361 219.024 655.673 220.416 655.417 222.208H668.041ZM682.882 238.336C681.666 238.336 680.658 237.968 679.858 237.232C679.09 236.464 678.706 235.52 678.706 234.4C678.706 233.28 679.09 232.352 679.858 231.616C680.658 230.848 681.666 230.464 682.882 230.464C684.066 230.464 685.042 230.848 685.81 231.616C686.578 232.352 686.962 233.28 686.962 234.4C686.962 235.52 686.578 236.464 685.81 237.232C685.042 237.968 684.066 238.336 682.882 238.336ZM710.532 204.496V238H703.812V204.496H710.532ZM724.995 216.928V229.792C724.995 230.688 725.203 231.344 725.619 231.76C726.067 232.144 726.803 232.336 727.827 232.336H730.947V238H726.723C721.059 238 718.227 235.248 718.227 229.744V216.928H715.059V211.408H718.227V204.832H724.995V211.408H730.947V216.928H724.995ZM737.125 204.496H744.181L738.997 216.592H734.389L737.125 204.496ZM759.176 238.432C757 238.432 755.048 238.048 753.32 237.28C751.592 236.48 750.216 235.408 749.192 234.064C748.2 232.72 747.656 231.232 747.56 229.6H754.328C754.456 230.624 754.952 231.472 755.816 232.144C756.712 232.816 757.816 233.152 759.128 233.152C760.408 233.152 761.4 232.896 762.104 232.384C762.84 231.872 763.208 231.216 763.208 230.416C763.208 229.552 762.76 228.912 761.864 228.496C761 228.048 759.608 227.568 757.688 227.056C755.704 226.576 754.072 226.08 752.792 225.568C751.544 225.056 750.456 224.272 749.528 223.216C748.632 222.16 748.184 220.736 748.184 218.944C748.184 217.472 748.6 216.128 749.432 214.912C750.296 213.696 751.512 212.736 753.08 212.032C754.68 211.328 756.552 210.976 758.696 210.976C761.864 210.976 764.392 211.776 766.28 213.376C768.168 214.944 769.208 217.072 769.4 219.76H762.968C762.872 218.704 762.424 217.872 761.624 217.264C760.856 216.624 759.816 216.304 758.504 216.304C757.288 216.304 756.344 216.528 755.672 216.976C755.032 217.424 754.712 218.048 754.712 218.848C754.712 219.744 755.16 220.432 756.056 220.912C756.952 221.36 758.344 221.824 760.232 222.304C762.152 222.784 763.736 223.28 764.984 223.792C766.232 224.304 767.304 225.104 768.2 226.192C769.128 227.248 769.608 228.656 769.64 230.416C769.64 231.952 769.208 233.328 768.344 234.544C767.512 235.76 766.296 236.72 764.696 237.424C763.128 238.096 761.288 238.432 759.176 238.432ZM823.457 211.408L815.681 238H808.433L803.585 219.424L798.737 238H791.441L783.617 211.408H790.433L795.137 231.664L800.225 211.408H807.329L812.321 231.616L817.025 211.408H823.457ZM842.069 211.024C844.085 211.024 845.877 211.472 847.445 212.368C849.013 213.232 850.229 214.528 851.093 216.256C851.989 217.952 852.437 220 852.437 222.4V238H845.717V223.312C845.717 221.2 845.189 219.584 844.133 218.464C843.077 217.312 841.637 216.736 839.813 216.736C837.957 216.736 836.485 217.312 835.397 218.464C834.341 219.584 833.813 221.2 833.813 223.312V238H827.093V202.48H833.813V214.72C834.677 213.568 835.829 212.672 837.269 212.032C838.709 211.36 840.309 211.024 842.069 211.024ZM857.1 224.608C857.1 221.92 857.628 219.536 858.684 217.456C859.772 215.376 861.228 213.776 863.052 212.656C864.908 211.536 866.972 210.976 869.244 210.976C871.228 210.976 872.956 211.376 874.428 212.176C875.932 212.976 877.132 213.984 878.028 215.2V211.408H884.796V238H878.028V234.112C877.164 235.36 875.964 236.4 874.428 237.232C872.924 238.032 871.18 238.432 869.196 238.432C866.956 238.432 864.908 237.856 863.052 236.704C861.228 235.552 859.772 233.936 858.684 231.856C857.628 229.744 857.1 227.328 857.1 224.608ZM878.028 224.704C878.028 223.072 877.708 221.68 877.068 220.528C876.428 219.344 875.564 218.448 874.476 217.84C873.388 217.2 872.22 216.88 870.972 216.88C869.724 216.88 868.572 217.184 867.516 217.792C866.46 218.4 865.596 219.296 864.924 220.48C864.284 221.632 863.964 223.008 863.964 224.608C863.964 226.208 864.284 227.616 864.924 228.832C865.596 230.016 866.46 230.928 867.516 231.568C868.604 232.208 869.756 232.528 870.972 232.528C872.22 232.528 873.388 232.224 874.476 231.616C875.564 230.976 876.428 230.08 877.068 228.928C877.708 227.744 878.028 226.336 878.028 224.704ZM899.183 216.928V229.792C899.183 230.688 899.391 231.344 899.807 231.76C900.255 232.144 900.991 232.336 902.015 232.336H905.135V238H900.911C895.247 238 892.415 235.248 892.415 229.744V216.928H889.247V211.408H892.415V204.832H899.183V211.408H905.135V216.928H899.183ZM954.43 211.024C957.694 211.024 960.318 212.032 962.302 214.048C964.318 216.032 965.326 218.816 965.326 222.4V238H958.606V223.312C958.606 221.232 958.078 219.648 957.022 218.56C955.966 217.44 954.526 216.88 952.702 216.88C950.878 216.88 949.422 217.44 948.334 218.56C947.278 219.648 946.75 221.232 946.75 223.312V238H940.03V223.312C940.03 221.232 939.502 219.648 938.446 218.56C937.39 217.44 935.95 216.88 934.126 216.88C932.27 216.88 930.798 217.44 929.71 218.56C928.654 219.648 928.126 221.232 928.126 223.312V238H921.406V211.408H928.126V214.624C928.99 213.504 930.094 212.624 931.438 211.984C932.814 211.344 934.318 211.024 935.95 211.024C938.03 211.024 939.886 211.472 941.518 212.368C943.15 213.232 944.414 214.48 945.31 216.112C946.174 214.576 947.422 213.344 949.054 212.416C950.718 211.488 952.51 211.024 954.43 211.024ZM969.975 224.608C969.975 221.92 970.503 219.536 971.559 217.456C972.647 215.376 974.103 213.776 975.927 212.656C977.783 211.536 979.847 210.976 982.119 210.976C984.103 210.976 985.831 211.376 987.303 212.176C988.807 212.976 990.007 213.984 990.903 215.2V211.408H997.671V238H990.903V234.112C990.039 235.36 988.839 236.4 987.303 237.232C985.799 238.032 984.055 238.432 982.071 238.432C979.831 238.432 977.783 237.856 975.927 236.704C974.103 235.552 972.647 233.936 971.559 231.856C970.503 229.744 969.975 227.328 969.975 224.608ZM990.903 224.704C990.903 223.072 990.583 221.68 989.943 220.528C989.303 219.344 988.439 218.448 987.351 217.84C986.263 217.2 985.095 216.88 983.847 216.88C982.599 216.88 981.447 217.184 980.391 217.792C979.335 218.4 978.471 219.296 977.799 220.48C977.159 221.632 976.839 223.008 976.839 224.608C976.839 226.208 977.159 227.616 977.799 228.832C978.471 230.016 979.335 230.928 980.391 231.568C981.479 232.208 982.631 232.528 983.847 232.528C985.095 232.528 986.263 232.224 987.351 231.616C988.439 230.976 989.303 230.08 989.943 228.928C990.583 227.744 990.903 226.336 990.903 224.704ZM1019.98 238L1010.95 226.672V238H1004.23V202.48H1010.95V222.688L1019.88 211.408H1028.62L1016.91 224.752L1028.71 238H1019.98ZM1056.99 224.128C1056.99 225.088 1056.92 225.952 1056.79 226.72H1037.35C1037.51 228.64 1038.19 230.144 1039.37 231.232C1040.55 232.32 1042.01 232.864 1043.74 232.864C1046.23 232.864 1048.01 231.792 1049.07 229.648H1056.31C1055.55 232.208 1054.07 234.32 1051.9 235.984C1049.72 237.616 1047.05 238.432 1043.88 238.432C1041.32 238.432 1039.02 237.872 1036.97 236.752C1034.95 235.6 1033.37 233.984 1032.22 231.904C1031.1 229.824 1030.54 227.424 1030.54 224.704C1030.54 221.952 1031.1 219.536 1032.22 217.456C1033.34 215.376 1034.91 213.776 1036.92 212.656C1038.94 211.536 1041.26 210.976 1043.88 210.976C1046.41 210.976 1048.67 211.52 1050.65 212.608C1052.67 213.696 1054.22 215.248 1055.31 217.264C1056.43 219.248 1056.99 221.536 1056.99 224.128ZM1050.03 222.208C1049.99 220.48 1049.37 219.104 1048.15 218.08C1046.94 217.024 1045.45 216.496 1043.69 216.496C1042.03 216.496 1040.62 217.008 1039.47 218.032C1038.35 219.024 1037.66 220.416 1037.4 222.208H1050.03ZM1072.07 238.432C1069.89 238.432 1067.94 238.048 1066.21 237.28C1064.48 236.48 1063.11 235.408 1062.08 234.064C1061.09 232.72 1060.55 231.232 1060.45 229.6H1067.22C1067.35 230.624 1067.84 231.472 1068.71 232.144C1069.6 232.816 1070.71 233.152 1072.02 233.152C1073.3 233.152 1074.29 232.896 1074.99 232.384C1075.73 231.872 1076.1 231.216 1076.1 230.416C1076.1 229.552 1075.65 228.912 1074.75 228.496C1073.89 228.048 1072.5 227.568 1070.58 227.056C1068.59 226.576 1066.96 226.08 1065.68 225.568C1064.43 225.056 1063.35 224.272 1062.42 223.216C1061.52 222.16 1061.07 220.736 1061.07 218.944C1061.07 217.472 1061.49 216.128 1062.32 214.912C1063.19 213.696 1064.4 212.736 1065.97 212.032C1067.57 211.328 1069.44 210.976 1071.59 210.976C1074.75 210.976 1077.28 211.776 1079.17 213.376C1081.06 214.944 1082.1 217.072 1082.29 219.76H1075.86C1075.76 218.704 1075.31 217.872 1074.51 217.264C1073.75 216.624 1072.71 216.304 1071.39 216.304C1070.18 216.304 1069.23 216.528 1068.56 216.976C1067.92 217.424 1067.6 218.048 1067.6 218.848C1067.6 219.744 1068.05 220.432 1068.95 220.912C1069.84 221.36 1071.23 221.824 1073.12 222.304C1075.04 222.784 1076.63 223.28 1077.87 223.792C1079.12 224.304 1080.19 225.104 1081.09 226.192C1082.02 227.248 1082.5 228.656 1082.53 230.416C1082.53 231.952 1082.1 233.328 1081.23 234.544C1080.4 235.76 1079.19 236.72 1077.59 237.424C1076.02 238.096 1074.18 238.432 1072.07 238.432ZM1124.59 211.408V238H1117.82V234.64C1116.96 235.792 1115.82 236.704 1114.41 237.376C1113.04 238.016 1111.53 238.336 1109.9 238.336C1107.82 238.336 1105.98 237.904 1104.38 237.04C1102.78 236.144 1101.52 234.848 1100.59 233.152C1099.69 231.424 1099.24 229.376 1099.24 227.008V211.408H1105.96V226.048C1105.96 228.16 1106.49 229.792 1107.55 230.944C1108.6 232.064 1110.04 232.624 1111.87 232.624C1113.72 232.624 1115.18 232.064 1116.24 230.944C1117.29 229.792 1117.82 228.16 1117.82 226.048V211.408H1124.59ZM1141.39 238.432C1139.22 238.432 1137.27 238.048 1135.54 237.28C1133.81 236.48 1132.43 235.408 1131.41 234.064C1130.42 232.72 1129.87 231.232 1129.78 229.6H1136.55C1136.67 230.624 1137.17 231.472 1138.03 232.144C1138.93 232.816 1140.03 233.152 1141.35 233.152C1142.63 233.152 1143.62 232.896 1144.32 232.384C1145.06 231.872 1145.43 231.216 1145.43 230.416C1145.43 229.552 1144.98 228.912 1144.08 228.496C1143.22 228.048 1141.83 227.568 1139.91 227.056C1137.92 226.576 1136.29 226.08 1135.01 225.568C1133.76 225.056 1132.67 224.272 1131.75 223.216C1130.85 222.16 1130.4 220.736 1130.4 218.944C1130.4 217.472 1130.82 216.128 1131.65 214.912C1132.51 213.696 1133.73 212.736 1135.3 212.032C1136.9 211.328 1138.77 210.976 1140.91 210.976C1144.08 210.976 1146.61 211.776 1148.5 213.376C1150.39 214.944 1151.43 217.072 1151.62 219.76H1145.19C1145.09 218.704 1144.64 217.872 1143.84 217.264C1143.07 216.624 1142.03 216.304 1140.72 216.304C1139.51 216.304 1138.56 216.528 1137.89 216.976C1137.25 217.424 1136.93 218.048 1136.93 218.848C1136.93 219.744 1137.38 220.432 1138.27 220.912C1139.17 221.36 1140.56 221.824 1142.45 222.304C1144.37 222.784 1145.95 223.28 1147.2 223.792C1148.45 224.304 1149.52 225.104 1150.42 226.192C1151.35 227.248 1151.83 228.656 1151.86 230.416C1151.86 231.952 1151.43 233.328 1150.56 234.544C1149.73 235.76 1148.51 236.72 1146.91 237.424C1145.35 238.096 1143.51 238.432 1141.39 238.432ZM1160.35 238.336C1159.13 238.336 1158.13 237.968 1157.33 237.232C1156.56 236.464 1156.17 235.52 1156.17 234.4C1156.17 233.28 1156.56 232.352 1157.33 231.616C1158.13 230.848 1159.13 230.464 1160.35 230.464C1161.53 230.464 1162.51 230.848 1163.28 231.616C1164.05 232.352 1164.43 233.28 1164.43 234.4C1164.43 235.52 1164.05 236.464 1163.28 237.232C1162.51 237.968 1161.53 238.336 1160.35 238.336Z" fill="white"/>
<path d="M476.88 321.872V347H471.84V330.656L465.108 347H461.292L454.524 330.656V347H449.484V321.872H455.208L463.2 340.556L471.192 321.872H476.88ZM500.403 336.596C500.403 337.316 500.355 337.964 500.259 338.54H485.679C485.799 339.98 486.303 341.108 487.191 341.924C488.079 342.74 489.171 343.148 490.467 343.148C492.339 343.148 493.671 342.344 494.463 340.736H499.899C499.323 342.656 498.219 344.24 496.587 345.488C494.955 346.712 492.951 347.324 490.575 347.324C488.655 347.324 486.927 346.904 485.391 346.064C483.879 345.2 482.691 343.988 481.827 342.428C480.987 340.868 480.567 339.068 480.567 337.028C480.567 334.964 480.987 333.152 481.827 331.592C482.667 330.032 483.843 328.832 485.355 327.992C486.867 327.152 488.607 326.732 490.575 326.732C492.471 326.732 494.163 327.14 495.651 327.956C497.163 328.772 498.327 329.936 499.143 331.448C499.983 332.936 500.403 334.652 500.403 336.596ZM495.183 335.156C495.159 333.86 494.691 332.828 493.779 332.06C492.867 331.268 491.751 330.872 490.431 330.872C489.183 330.872 488.127 331.256 487.263 332.024C486.423 332.768 485.907 333.812 485.715 335.156H495.183ZM515.134 326.768C517.51 326.768 519.43 327.524 520.894 329.036C522.358 330.524 523.09 332.612 523.09 335.3V347H518.05V335.984C518.05 334.4 517.654 333.188 516.862 332.348C516.07 331.484 514.99 331.052 513.622 331.052C512.23 331.052 511.126 331.484 510.31 332.348C509.518 333.188 509.122 334.4 509.122 335.984V347H504.082V327.056H509.122V329.54C509.794 328.676 510.646 328.004 511.678 327.524C512.734 327.02 513.886 326.768 515.134 326.768ZM526.586 337.028C526.586 334.964 527.006 333.164 527.846 331.628C528.686 330.068 529.85 328.868 531.338 328.028C532.826 327.164 534.53 326.732 536.45 326.732C538.922 326.732 540.962 327.356 542.57 328.604C544.202 329.828 545.294 331.556 545.846 333.788H540.41C540.122 332.924 539.63 332.252 538.934 331.772C538.262 331.268 537.422 331.016 536.414 331.016C534.974 331.016 533.834 331.544 532.994 332.6C532.154 333.632 531.734 335.108 531.734 337.028C531.734 338.924 532.154 340.4 532.994 341.456C533.834 342.488 534.974 343.004 536.414 343.004C538.454 343.004 539.786 342.092 540.41 340.268H545.846C545.294 342.428 544.202 344.144 542.57 345.416C540.938 346.688 538.898 347.324 536.45 347.324C534.53 347.324 532.826 346.904 531.338 346.064C529.85 345.2 528.686 344 527.846 342.464C527.006 340.904 526.586 339.092 526.586 337.028ZM552.095 324.68C551.207 324.68 550.463 324.404 549.863 323.852C549.287 323.276 548.999 322.568 548.999 321.728C548.999 320.888 549.287 320.192 549.863 319.64C550.463 319.064 551.207 318.776 552.095 318.776C552.983 318.776 553.715 319.064 554.291 319.64C554.891 320.192 555.191 320.888 555.191 321.728C555.191 322.568 554.891 323.276 554.291 323.852C553.715 324.404 552.983 324.68 552.095 324.68ZM554.579 327.056V347H549.539V327.056H554.579ZM564.598 329.936C565.246 329.024 566.134 328.268 567.262 327.668C568.414 327.044 569.722 326.732 571.186 326.732C572.89 326.732 574.426 327.152 575.794 327.992C577.186 328.832 578.278 330.032 579.07 331.592C579.886 333.128 580.294 334.916 580.294 336.956C580.294 338.996 579.886 340.808 579.07 342.392C578.278 343.952 577.186 345.164 575.794 346.028C574.426 346.892 572.89 347.324 571.186 347.324C569.722 347.324 568.426 347.024 567.298 346.424C566.194 345.824 565.294 345.068 564.598 344.156V356.504H559.558V327.056H564.598V329.936ZM575.146 336.956C575.146 335.756 574.894 334.724 574.39 333.86C573.91 332.972 573.262 332.3 572.446 331.844C571.654 331.388 570.79 331.16 569.854 331.16C568.942 331.16 568.078 331.4 567.262 331.88C566.47 332.336 565.822 333.008 565.318 333.896C564.838 334.784 564.598 335.828 564.598 337.028C564.598 338.228 564.838 339.272 565.318 340.16C565.822 341.048 566.47 341.732 567.262 342.212C568.078 342.668 568.942 342.896 569.854 342.896C570.79 342.896 571.654 342.656 572.446 342.176C573.262 341.696 573.91 341.012 574.39 340.124C574.894 339.236 575.146 338.18 575.146 336.956ZM589.825 331.196V340.844C589.825 341.516 589.981 342.008 590.293 342.32C590.629 342.608 591.181 342.752 591.949 342.752H594.289V347H591.121C586.873 347 584.749 344.936 584.749 340.808V331.196H582.373V327.056H584.749V322.124H589.825V327.056H594.289V331.196H589.825ZM596.618 336.956C596.618 334.94 597.014 333.152 597.806 331.592C598.622 330.032 599.714 328.832 601.082 327.992C602.474 327.152 604.022 326.732 605.726 326.732C607.214 326.732 608.51 327.032 609.614 327.632C610.742 328.232 611.642 328.988 612.314 329.9V327.056H617.39V347H612.314V344.084C611.666 345.02 610.766 345.8 609.614 346.424C608.486 347.024 607.178 347.324 605.69 347.324C604.01 347.324 602.474 346.892 601.082 346.028C599.714 345.164 598.622 343.952 597.806 342.392C597.014 340.808 596.618 338.996 596.618 336.956ZM612.314 337.028C612.314 335.804 612.074 334.76 611.594 333.896C611.114 333.008 610.466 332.336 609.65 331.88C608.834 331.4 607.958 331.16 607.022 331.16C606.086 331.16 605.222 331.388 604.43 331.844C603.638 332.3 602.99 332.972 602.486 333.86C602.006 334.724 601.766 335.756 601.766 336.956C601.766 338.156 602.006 339.212 602.486 340.124C602.99 341.012 603.638 341.696 604.43 342.176C605.246 342.656 606.11 342.896 607.022 342.896C607.958 342.896 608.834 342.668 609.65 342.212C610.466 341.732 611.114 341.06 611.594 340.196C612.074 339.308 612.314 338.252 612.314 337.028ZM634.12 347L627.352 338.504V347H622.312V320.36H627.352V335.516L634.048 327.056H640.6L631.816 337.064L640.672 347H634.12ZM642.04 336.956C642.04 334.94 642.436 333.152 643.228 331.592C644.044 330.032 645.136 328.832 646.504 327.992C647.896 327.152 649.444 326.732 651.148 326.732C652.636 326.732 653.932 327.032 655.036 327.632C656.164 328.232 657.064 328.988 657.736 329.9V327.056H662.812V347H657.736V344.084C657.088 345.02 656.188 345.8 655.036 346.424C653.908 347.024 652.6 347.324 651.112 347.324C649.432 347.324 647.896 346.892 646.504 346.028C645.136 345.164 644.044 343.952 643.228 342.392C642.436 340.808 642.04 338.996 642.04 336.956ZM657.736 337.028C657.736 335.804 657.496 334.76 657.016 333.896C656.536 333.008 655.888 332.336 655.072 331.88C654.256 331.4 653.38 331.16 652.444 331.16C651.508 331.16 650.644 331.388 649.852 331.844C649.06 332.3 648.412 332.972 647.908 333.86C647.428 334.724 647.188 335.756 647.188 336.956C647.188 338.156 647.428 339.212 647.908 340.124C648.412 341.012 649.06 341.696 649.852 342.176C650.668 342.656 651.532 342.896 652.444 342.896C653.38 342.896 654.256 342.668 655.072 342.212C655.888 341.732 656.536 341.06 657.016 340.196C657.496 339.308 657.736 338.252 657.736 337.028ZM678.786 326.768C681.162 326.768 683.082 327.524 684.546 329.036C686.01 330.524 686.742 332.612 686.742 335.3V347H681.702V335.984C681.702 334.4 681.306 333.188 680.514 332.348C679.722 331.484 678.642 331.052 677.274 331.052C675.882 331.052 674.778 331.484 673.962 332.348C673.17 333.188 672.774 334.4 672.774 335.984V347H667.734V327.056H672.774V329.54C673.446 328.676 674.298 328.004 675.33 327.524C676.386 327.02 677.538 326.768 678.786 326.768ZM707.745 347.324C706.113 347.324 704.649 347.036 703.353 346.46C702.057 345.86 701.025 345.056 700.257 344.048C699.513 343.04 699.105 341.924 699.033 340.7H704.109C704.205 341.468 704.577 342.104 705.225 342.608C705.897 343.112 706.725 343.364 707.709 343.364C708.669 343.364 709.413 343.172 709.941 342.788C710.493 342.404 710.769 341.912 710.769 341.312C710.769 340.664 710.433 340.184 709.761 339.872C709.113 339.536 708.069 339.176 706.629 338.792C705.141 338.432 703.917 338.06 702.957 337.676C702.021 337.292 701.205 336.704 700.509 335.912C699.837 335.12 699.501 334.052 699.501 332.708C699.501 331.604 699.813 330.596 700.437 329.684C701.085 328.772 701.997 328.052 703.173 327.524C704.373 326.996 705.777 326.732 707.385 326.732C709.761 326.732 711.657 327.332 713.073 328.532C714.489 329.708 715.269 331.304 715.413 333.32H710.589C710.517 332.528 710.181 331.904 709.581 331.448C709.005 330.968 708.225 330.728 707.241 330.728C706.329 330.728 705.621 330.896 705.117 331.232C704.637 331.568 704.397 332.036 704.397 332.636C704.397 333.308 704.733 333.824 705.405 334.184C706.077 334.52 707.121 334.868 708.537 335.228C709.977 335.588 711.165 335.96 712.101 336.344C713.037 336.728 713.841 337.328 714.513 338.144C715.209 338.936 715.569 339.992 715.593 341.312C715.593 342.464 715.269 343.496 714.621 344.408C713.997 345.32 713.085 346.04 711.885 346.568C710.709 347.072 709.329 347.324 707.745 347.324ZM738.27 336.596C738.27 337.316 738.222 337.964 738.126 338.54H723.546C723.666 339.98 724.17 341.108 725.058 341.924C725.946 342.74 727.038 343.148 728.334 343.148C730.206 343.148 731.538 342.344 732.33 340.736H737.766C737.19 342.656 736.086 344.24 734.454 345.488C732.822 346.712 730.818 347.324 728.442 347.324C726.522 347.324 724.794 346.904 723.258 346.064C721.746 345.2 720.558 343.988 719.694 342.428C718.854 340.868 718.434 339.068 718.434 337.028C718.434 334.964 718.854 333.152 719.694 331.592C720.534 330.032 721.71 328.832 723.222 327.992C724.734 327.152 726.474 326.732 728.442 326.732C730.338 326.732 732.03 327.14 733.518 327.956C735.03 328.772 736.194 329.936 737.01 331.448C737.85 332.936 738.27 334.652 738.27 336.596ZM733.05 335.156C733.026 333.86 732.558 332.828 731.646 332.06C730.734 331.268 729.618 330.872 728.298 330.872C727.05 330.872 725.994 331.256 725.13 332.024C724.29 332.768 723.774 333.812 723.582 335.156H733.05ZM750.805 347.324C748.885 347.324 747.157 346.904 745.621 346.064C744.085 345.2 742.873 343.988 741.985 342.428C741.121 340.868 740.689 339.068 740.689 337.028C740.689 334.988 741.133 333.188 742.021 331.628C742.933 330.068 744.169 328.868 745.729 328.028C747.289 327.164 749.029 326.732 750.949 326.732C752.869 326.732 754.609 327.164 756.169 328.028C757.729 328.868 758.953 330.068 759.841 331.628C760.753 333.188 761.209 334.988 761.209 337.028C761.209 339.068 760.741 340.868 759.805 342.428C758.893 343.988 757.645 345.2 756.061 346.064C754.501 346.904 752.749 347.324 750.805 347.324ZM750.805 342.932C751.717 342.932 752.569 342.716 753.361 342.284C754.177 341.828 754.825 341.156 755.305 340.268C755.785 339.38 756.025 338.3 756.025 337.028C756.025 335.132 755.521 333.68 754.513 332.672C753.529 331.64 752.317 331.124 750.877 331.124C749.437 331.124 748.225 331.64 747.241 332.672C746.281 333.68 745.801 335.132 745.801 337.028C745.801 338.924 746.269 340.388 747.205 341.42C748.165 342.428 749.365 342.932 750.805 342.932ZM769.946 330.152C770.594 329.096 771.434 328.268 772.466 327.668C773.522 327.068 774.722 326.768 776.066 326.768V332.06H774.734C773.15 332.06 771.95 332.432 771.134 333.176C770.342 333.92 769.946 335.216 769.946 337.064V347H764.906V327.056H769.946V330.152ZM778.165 336.956C778.165 334.94 778.561 333.152 779.353 331.592C780.169 330.032 781.261 328.832 782.629 327.992C784.021 327.152 785.569 326.732 787.273 326.732C788.761 326.732 790.057 327.032 791.161 327.632C792.289 328.232 793.189 328.988 793.861 329.9V327.056H798.937V347H793.861V344.084C793.213 345.02 792.313 345.8 791.161 346.424C790.033 347.024 788.725 347.324 787.237 347.324C785.557 347.324 784.021 346.892 782.629 346.028C781.261 345.164 780.169 343.952 779.353 342.392C778.561 340.808 778.165 338.996 778.165 336.956ZM793.861 337.028C793.861 335.804 793.621 334.76 793.141 333.896C792.661 333.008 792.013 332.336 791.197 331.88C790.381 331.4 789.505 331.16 788.569 331.16C787.633 331.16 786.769 331.388 785.977 331.844C785.185 332.3 784.537 332.972 784.033 333.86C783.553 334.724 783.313 335.756 783.313 336.956C783.313 338.156 783.553 339.212 784.033 340.124C784.537 341.012 785.185 341.696 785.977 342.176C786.793 342.656 787.657 342.896 788.569 342.896C789.505 342.896 790.381 342.668 791.197 342.212C792.013 341.732 792.661 341.06 793.141 340.196C793.621 339.308 793.861 338.252 793.861 337.028ZM814.911 326.768C817.287 326.768 819.207 327.524 820.671 329.036C822.135 330.524 822.867 332.612 822.867 335.3V347H817.827V335.984C817.827 334.4 817.431 333.188 816.639 332.348C815.847 331.484 814.767 331.052 813.399 331.052C812.007 331.052 810.903 331.484 810.087 332.348C809.295 333.188 808.899 334.4 808.899 335.984V347H803.859V327.056H808.899V329.54C809.571 328.676 810.423 328.004 811.455 327.524C812.511 327.02 813.663 326.768 814.911 326.768ZM835.472 326.732C836.96 326.732 838.268 327.032 839.396 327.632C840.524 328.208 841.412 328.964 842.06 329.9V327.056H847.136V347.144C847.136 348.992 846.764 350.636 846.02 352.076C845.276 353.54 844.16 354.692 842.672 355.532C841.184 356.396 839.384 356.828 837.272 356.828C834.44 356.828 832.112 356.168 830.288 354.848C828.488 353.528 827.468 351.728 827.228 349.448H832.232C832.496 350.36 833.06 351.08 833.924 351.608C834.812 352.16 835.88 352.436 837.128 352.436C838.592 352.436 839.78 351.992 840.692 351.104C841.604 350.24 842.06 348.92 842.06 347.144V344.048C841.412 344.984 840.512 345.764 839.36 346.388C838.232 347.012 836.936 347.324 835.472 347.324C833.792 347.324 832.256 346.892 830.864 346.028C829.472 345.164 828.368 343.952 827.552 342.392C826.76 340.808 826.364 338.996 826.364 336.956C826.364 334.94 826.76 333.152 827.552 331.592C828.368 330.032 829.46 328.832 830.828 327.992C832.22 327.152 833.768 326.732 835.472 326.732ZM842.06 337.028C842.06 335.804 841.82 334.76 841.34 333.896C840.86 333.008 840.212 332.336 839.396 331.88C838.58 331.4 837.704 331.16 836.768 331.16C835.832 331.16 834.968 331.388 834.176 331.844C833.384 332.3 832.736 332.972 832.232 333.86C831.752 334.724 831.512 335.756 831.512 336.956C831.512 338.156 831.752 339.212 832.232 340.124C832.736 341.012 833.384 341.696 834.176 342.176C834.992 342.656 835.856 342.896 836.768 342.896C837.704 342.896 838.58 342.668 839.396 342.212C840.212 341.732 840.86 341.06 841.34 340.196C841.82 339.308 842.06 338.252 842.06 337.028ZM865.676 329.936C866.324 329.024 867.212 328.268 868.34 327.668C869.492 327.044 870.8 326.732 872.264 326.732C873.968 326.732 875.504 327.152 876.872 327.992C878.264 328.832 879.356 330.032 880.148 331.592C880.964 333.128 881.372 334.916 881.372 336.956C881.372 338.996 880.964 340.808 880.148 342.392C879.356 343.952 878.264 345.164 876.872 346.028C875.504 346.892 873.968 347.324 872.264 347.324C870.8 347.324 869.504 347.024 868.376 346.424C867.272 345.824 866.372 345.068 865.676 344.156V356.504H860.636V327.056H865.676V329.936ZM876.224 336.956C876.224 335.756 875.972 334.724 875.468 333.86C874.988 332.972 874.34 332.3 873.524 331.844C872.732 331.388 871.868 331.16 870.932 331.16C870.02 331.16 869.156 331.4 868.34 331.88C867.548 332.336 866.9 333.008 866.396 333.896C865.916 334.784 865.676 335.828 865.676 337.028C865.676 338.228 865.916 339.272 866.396 340.16C866.9 341.048 867.548 341.732 868.34 342.212C869.156 342.668 870.02 342.896 870.932 342.896C871.868 342.896 872.732 342.656 873.524 342.176C874.34 341.696 874.988 341.012 875.468 340.124C875.972 339.236 876.224 338.18 876.224 336.956ZM903.575 336.596C903.575 337.316 903.527 337.964 903.431 338.54H888.851C888.971 339.98 889.475 341.108 890.363 341.924C891.251 342.74 892.343 343.148 893.639 343.148C895.511 343.148 896.843 342.344 897.635 340.736H903.071C902.495 342.656 901.391 344.24 899.759 345.488C898.127 346.712 896.123 347.324 893.747 347.324C891.827 347.324 890.099 346.904 888.563 346.064C887.051 345.2 885.863 343.988 884.999 342.428C884.159 340.868 883.739 339.068 883.739 337.028C883.739 334.964 884.159 333.152 884.999 331.592C885.839 330.032 887.015 328.832 888.527 327.992C890.039 327.152 891.779 326.732 893.747 326.732C895.643 326.732 897.335 327.14 898.823 327.956C900.335 328.772 901.499 329.936 902.315 331.448C903.155 332.936 903.575 334.652 903.575 336.596ZM898.355 335.156C898.331 333.86 897.863 332.828 896.951 332.06C896.039 331.268 894.923 330.872 893.603 330.872C892.355 330.872 891.299 331.256 890.435 332.024C889.595 332.768 889.079 333.812 888.887 335.156H898.355ZM918.306 326.768C920.682 326.768 922.602 327.524 924.066 329.036C925.53 330.524 926.262 332.612 926.262 335.3V347H921.222V335.984C921.222 334.4 920.826 333.188 920.034 332.348C919.242 331.484 918.162 331.052 916.794 331.052C915.402 331.052 914.298 331.484 913.482 332.348C912.69 333.188 912.294 334.4 912.294 335.984V347H907.254V327.056H912.294V329.54C912.966 328.676 913.818 328.004 914.85 327.524C915.906 327.02 917.058 326.768 918.306 326.768ZM949.882 327.056V347H944.806V344.48C944.158 345.344 943.306 346.028 942.25 346.532C941.218 347.012 940.09 347.252 938.866 347.252C937.306 347.252 935.926 346.928 934.726 346.28C933.526 345.608 932.578 344.636 931.882 343.364C931.21 342.068 930.874 340.532 930.874 338.756V327.056H935.914V338.036C935.914 339.62 936.31 340.844 937.102 341.708C937.894 342.548 938.974 342.968 940.342 342.968C941.734 342.968 942.826 342.548 943.618 341.708C944.41 340.844 944.806 339.62 944.806 338.036V327.056H949.882ZM959.895 320.36V347H954.855V320.36H959.895ZM967.431 324.68C966.543 324.68 965.799 324.404 965.199 323.852C964.623 323.276 964.335 322.568 964.335 321.728C964.335 320.888 964.623 320.192 965.199 319.64C965.799 319.064 966.543 318.776 967.431 318.776C968.319 318.776 969.051 319.064 969.627 319.64C970.227 320.192 970.527 320.888 970.527 321.728C970.527 322.568 970.227 323.276 969.627 323.852C969.051 324.404 968.319 324.68 967.431 324.68ZM969.915 327.056V347H964.875V327.056H969.915ZM982.526 347.324C980.894 347.324 979.43 347.036 978.134 346.46C976.838 345.86 975.806 345.056 975.038 344.048C974.294 343.04 973.886 341.924 973.814 340.7H978.89C978.986 341.468 979.358 342.104 980.006 342.608C980.678 343.112 981.506 343.364 982.49 343.364C983.45 343.364 984.194 343.172 984.722 342.788C985.274 342.404 985.55 341.912 985.55 341.312C985.55 340.664 985.214 340.184 984.542 339.872C983.894 339.536 982.85 339.176 981.41 338.792C979.922 338.432 978.698 338.06 977.738 337.676C976.802 337.292 975.986 336.704 975.29 335.912C974.618 335.12 974.282 334.052 974.282 332.708C974.282 331.604 974.594 330.596 975.218 329.684C975.866 328.772 976.778 328.052 977.954 327.524C979.154 326.996 980.558 326.732 982.166 326.732C984.542 326.732 986.438 327.332 987.854 328.532C989.27 329.708 990.05 331.304 990.194 333.32H985.37C985.298 332.528 984.962 331.904 984.362 331.448C983.786 330.968 983.006 330.728 982.022 330.728C981.11 330.728 980.402 330.896 979.898 331.232C979.418 331.568 979.178 332.036 979.178 332.636C979.178 333.308 979.514 333.824 980.186 334.184C980.858 334.52 981.902 334.868 983.318 335.228C984.758 335.588 985.946 335.96 986.882 336.344C987.818 336.728 988.622 337.328 989.294 338.144C989.99 338.936 990.35 339.992 990.374 341.312C990.374 342.464 990.05 343.496 989.402 344.408C988.778 345.32 987.866 346.04 986.666 346.568C985.49 347.072 984.11 347.324 982.526 347.324Z" fill="#FFBA17"/>
</svg>
