<svg width="1440" height="650" viewBox="0 0 1440 650" fill="none" xmlns="http://www.w3.org/2000/svg">
<rect width="1440" height="650" fill="black"/>
<path d="M235.98 433.432C235.404 432.376 234.612 431.572 233.604 431.02C232.596 430.468 231.42 430.192 230.076 430.192C228.588 430.192 227.268 430.528 226.116 431.2C224.964 431.872 224.064 432.832 223.416 434.08C222.768 435.328 222.444 436.768 222.444 438.4C222.444 440.08 222.768 441.544 223.416 442.792C224.088 444.04 225.012 445 226.188 445.672C227.364 446.344 228.732 446.68 230.292 446.68C232.212 446.68 233.784 446.176 235.008 445.168C236.232 444.136 237.036 442.708 237.42 440.884H228.78V437.032H242.388V441.424C242.052 443.176 241.332 444.796 240.228 446.284C239.124 447.772 237.696 448.972 235.944 449.884C234.216 450.772 232.272 451.216 230.112 451.216C227.688 451.216 225.492 450.676 223.524 449.596C221.58 448.492 220.044 446.968 218.916 445.024C217.812 443.08 217.26 440.872 217.26 438.4C217.26 435.928 217.812 433.72 218.916 431.776C220.044 429.808 221.58 428.284 223.524 427.204C225.492 426.1 227.676 425.548 230.076 425.548C232.908 425.548 235.368 426.244 237.456 427.636C239.544 429.004 240.984 430.936 241.776 433.432H235.98ZM254.973 451.324C253.053 451.324 251.325 450.904 249.789 450.064C248.253 449.2 247.041 447.988 246.153 446.428C245.289 444.868 244.857 443.068 244.857 441.028C244.857 438.988 245.301 437.188 246.189 435.628C247.101 434.068 248.337 432.868 249.897 432.028C251.457 431.164 253.197 430.732 255.117 430.732C257.037 430.732 258.777 431.164 260.337 432.028C261.897 432.868 263.121 434.068 264.009 435.628C264.921 437.188 265.377 438.988 265.377 441.028C265.377 443.068 264.909 444.868 263.973 446.428C263.061 447.988 261.813 449.2 260.229 450.064C258.669 450.904 256.917 451.324 254.973 451.324ZM254.973 446.932C255.885 446.932 256.737 446.716 257.529 446.284C258.345 445.828 258.993 445.156 259.473 444.268C259.953 443.38 260.193 442.3 260.193 441.028C260.193 439.132 259.689 437.68 258.681 436.672C257.697 435.64 256.485 435.124 255.045 435.124C253.605 435.124 252.393 435.64 251.409 436.672C250.449 437.68 249.969 439.132 249.969 441.028C249.969 442.924 250.437 444.388 251.373 445.42C252.333 446.428 253.533 446.932 254.973 446.932ZM274.114 447.004H282.394V451H269.074V425.872H274.114V447.004ZM288.153 428.68C287.265 428.68 286.521 428.404 285.921 427.852C285.345 427.276 285.057 426.568 285.057 425.728C285.057 424.888 285.345 424.192 285.921 423.64C286.521 423.064 287.265 422.776 288.153 422.776C289.041 422.776 289.773 423.064 290.349 423.64C290.949 424.192 291.249 424.888 291.249 425.728C291.249 426.568 290.949 427.276 290.349 427.852C289.773 428.404 289.041 428.68 288.153 428.68ZM290.637 431.056V451H285.597V431.056H290.637ZM301.485 435.196V444.844C301.485 445.516 301.641 446.008 301.953 446.32C302.289 446.608 302.841 446.752 303.609 446.752H305.949V451H302.781C298.533 451 296.409 448.936 296.409 444.808V435.196H294.033V431.056H296.409V426.124H301.485V431.056H305.949V435.196H301.485ZM328.114 440.596C328.114 441.316 328.066 441.964 327.97 442.54H313.39C313.51 443.98 314.014 445.108 314.902 445.924C315.79 446.74 316.882 447.148 318.178 447.148C320.05 447.148 321.382 446.344 322.174 444.736H327.61C327.034 446.656 325.93 448.24 324.298 449.488C322.666 450.712 320.662 451.324 318.286 451.324C316.366 451.324 314.638 450.904 313.102 450.064C311.59 449.2 310.402 447.988 309.538 446.428C308.698 444.868 308.278 443.068 308.278 441.028C308.278 438.964 308.698 437.152 309.538 435.592C310.378 434.032 311.554 432.832 313.066 431.992C314.578 431.152 316.318 430.732 318.286 430.732C320.182 430.732 321.874 431.14 323.362 431.956C324.874 432.772 326.038 433.936 326.854 435.448C327.694 436.936 328.114 438.652 328.114 440.596ZM322.894 439.156C322.87 437.86 322.402 436.828 321.49 436.06C320.578 435.268 319.462 434.872 318.142 434.872C316.894 434.872 315.838 435.256 314.974 436.024C314.134 436.768 313.618 437.812 313.426 439.156H322.894ZM365.139 430.768C367.587 430.768 369.555 431.524 371.043 433.036C372.555 434.524 373.311 436.612 373.311 439.3V451H368.271V439.984C368.271 438.424 367.875 437.236 367.083 436.42C366.291 435.58 365.211 435.16 363.843 435.16C362.475 435.16 361.383 435.58 360.567 436.42C359.775 437.236 359.379 438.424 359.379 439.984V451H354.339V439.984C354.339 438.424 353.943 437.236 353.151 436.42C352.359 435.58 351.279 435.16 349.911 435.16C348.519 435.16 347.415 435.58 346.599 436.42C345.807 437.236 345.411 438.424 345.411 439.984V451H340.371V431.056H345.411V433.468C346.059 432.628 346.887 431.968 347.895 431.488C348.927 431.008 350.055 430.768 351.279 430.768C352.839 430.768 354.231 431.104 355.455 431.776C356.679 432.424 357.627 433.36 358.299 434.584C358.947 433.432 359.883 432.508 361.107 431.812C362.355 431.116 363.699 430.768 365.139 430.768ZM396.633 440.596C396.633 441.316 396.585 441.964 396.489 442.54H381.909C382.029 443.98 382.533 445.108 383.421 445.924C384.309 446.74 385.401 447.148 386.697 447.148C388.569 447.148 389.901 446.344 390.693 444.736H396.129C395.553 446.656 394.449 448.24 392.817 449.488C391.185 450.712 389.181 451.324 386.805 451.324C384.885 451.324 383.157 450.904 381.621 450.064C380.109 449.2 378.921 447.988 378.057 446.428C377.217 444.868 376.797 443.068 376.797 441.028C376.797 438.964 377.217 437.152 378.057 435.592C378.897 434.032 380.073 432.832 381.585 431.992C383.097 431.152 384.837 430.732 386.805 430.732C388.701 430.732 390.393 431.14 391.881 431.956C393.393 432.772 394.557 433.936 395.373 435.448C396.213 436.936 396.633 438.652 396.633 440.596ZM391.413 439.156C391.389 437.86 390.921 436.828 390.009 436.06C389.097 435.268 387.981 434.872 386.661 434.872C385.413 434.872 384.357 435.256 383.493 436.024C382.653 436.768 382.137 437.812 381.945 439.156H391.413ZM425.08 430.768C427.528 430.768 429.496 431.524 430.984 433.036C432.496 434.524 433.252 436.612 433.252 439.3V451H428.212V439.984C428.212 438.424 427.816 437.236 427.024 436.42C426.232 435.58 425.152 435.16 423.784 435.16C422.416 435.16 421.324 435.58 420.508 436.42C419.716 437.236 419.32 438.424 419.32 439.984V451H414.28V439.984C414.28 438.424 413.884 437.236 413.092 436.42C412.3 435.58 411.22 435.16 409.852 435.16C408.46 435.16 407.356 435.58 406.54 436.42C405.748 437.236 405.352 438.424 405.352 439.984V451H400.312V431.056H405.352V433.468C406 432.628 406.828 431.968 407.836 431.488C408.868 431.008 409.996 430.768 411.22 430.768C412.78 430.768 414.172 431.104 415.396 431.776C416.62 432.424 417.568 433.36 418.24 434.584C418.888 433.432 419.824 432.508 421.048 431.812C422.296 431.116 423.64 430.768 425.08 430.768ZM443.075 433.936C443.723 433.024 444.611 432.268 445.739 431.668C446.891 431.044 448.199 430.732 449.663 430.732C451.367 430.732 452.903 431.152 454.271 431.992C455.663 432.832 456.755 434.032 457.547 435.592C458.363 437.128 458.771 438.916 458.771 440.956C458.771 442.996 458.363 444.808 457.547 446.392C456.755 447.952 455.663 449.164 454.271 450.028C452.903 450.892 451.367 451.324 449.663 451.324C448.199 451.324 446.903 451.024 445.775 450.424C444.671 449.824 443.771 449.068 443.075 448.156V460.504H438.035V431.056H443.075V433.936ZM453.623 440.956C453.623 439.756 453.371 438.724 452.867 437.86C452.387 436.972 451.739 436.3 450.923 435.844C450.131 435.388 449.267 435.16 448.331 435.16C447.419 435.16 446.555 435.4 445.739 435.88C444.947 436.336 444.299 437.008 443.795 437.896C443.315 438.784 443.075 439.828 443.075 441.028C443.075 442.228 443.315 443.272 443.795 444.16C444.299 445.048 444.947 445.732 445.739 446.212C446.555 446.668 447.419 446.896 448.331 446.896C449.267 446.896 450.131 446.656 450.923 446.176C451.739 445.696 452.387 445.012 452.867 444.124C453.371 443.236 453.623 442.18 453.623 440.956ZM481.261 431.056V451H476.185V448.48C475.537 449.344 474.685 450.028 473.629 450.532C472.597 451.012 471.469 451.252 470.245 451.252C468.685 451.252 467.305 450.928 466.105 450.28C464.905 449.608 463.957 448.636 463.261 447.364C462.589 446.068 462.253 444.532 462.253 442.756V431.056H467.293V442.036C467.293 443.62 467.689 444.844 468.481 445.708C469.273 446.548 470.353 446.968 471.721 446.968C473.113 446.968 474.205 446.548 474.997 445.708C475.789 444.844 476.185 443.62 476.185 442.036V431.056H481.261ZM497.286 430.768C499.662 430.768 501.582 431.524 503.046 433.036C504.51 434.524 505.242 436.612 505.242 439.3V451H500.202V439.984C500.202 438.4 499.806 437.188 499.014 436.348C498.222 435.484 497.142 435.052 495.774 435.052C494.382 435.052 493.278 435.484 492.462 436.348C491.67 437.188 491.274 438.4 491.274 439.984V451H486.234V431.056H491.274V433.54C491.946 432.676 492.798 432.004 493.83 431.524C494.886 431.02 496.038 430.768 497.286 430.768ZM529.115 431.056L516.767 460.432H511.403L515.723 450.496L507.731 431.056H513.383L518.531 444.988L523.751 431.056H529.115ZM530.536 440.956C530.536 438.94 530.932 437.152 531.724 435.592C532.54 434.032 533.632 432.832 535 431.992C536.392 431.152 537.94 430.732 539.644 430.732C541.132 430.732 542.428 431.032 543.532 431.632C544.66 432.232 545.56 432.988 546.232 433.9V431.056H551.308V451H546.232V448.084C545.584 449.02 544.684 449.8 543.532 450.424C542.404 451.024 541.096 451.324 539.608 451.324C537.928 451.324 536.392 450.892 535 450.028C533.632 449.164 532.54 447.952 531.724 446.392C530.932 444.808 530.536 442.996 530.536 440.956ZM546.232 441.028C546.232 439.804 545.992 438.76 545.512 437.896C545.032 437.008 544.384 436.336 543.568 435.88C542.752 435.4 541.876 435.16 540.94 435.16C540.004 435.16 539.14 435.388 538.348 435.844C537.556 436.3 536.908 436.972 536.404 437.86C535.924 438.724 535.684 439.756 535.684 440.956C535.684 442.156 535.924 443.212 536.404 444.124C536.908 445.012 537.556 445.696 538.348 446.176C539.164 446.656 540.028 446.896 540.94 446.896C541.876 446.896 542.752 446.668 543.568 446.212C544.384 445.732 545.032 445.06 545.512 444.196C545.992 443.308 546.232 442.252 546.232 441.028ZM558.786 428.68C557.898 428.68 557.154 428.404 556.554 427.852C555.978 427.276 555.69 426.568 555.69 425.728C555.69 424.888 555.978 424.192 556.554 423.64C557.154 423.064 557.898 422.776 558.786 422.776C559.674 422.776 560.406 423.064 560.982 423.64C561.582 424.192 561.882 424.888 561.882 425.728C561.882 426.568 561.582 427.276 560.982 427.852C560.406 428.404 559.674 428.68 558.786 428.68ZM561.27 431.056V451H556.23V431.056H561.27ZM583.972 435.196H580.48V451H575.368V435.196H573.1V431.056H575.368V430.048C575.368 427.6 576.064 425.8 577.456 424.648C578.848 423.496 580.948 422.956 583.756 423.028V427.276C582.532 427.252 581.68 427.456 581.2 427.888C580.72 428.32 580.48 429.1 580.48 430.228V431.056H583.972V435.196ZM589.794 428.68C588.906 428.68 588.162 428.404 587.562 427.852C586.986 427.276 586.698 426.568 586.698 425.728C586.698 424.888 586.986 424.192 587.562 423.64C588.162 423.064 588.906 422.776 589.794 422.776C590.682 422.776 591.414 423.064 591.99 423.64C592.59 424.192 592.89 424.888 592.89 425.728C592.89 426.568 592.59 427.276 591.99 427.852C591.414 428.404 590.682 428.68 589.794 428.68ZM592.278 431.056V451H587.238V431.056H592.278ZM603.125 435.196V444.844C603.125 445.516 603.281 446.008 603.593 446.32C603.929 446.608 604.481 446.752 605.249 446.752H607.589V451H604.421C600.173 451 598.049 448.936 598.049 444.808V435.196H595.673V431.056H598.049V426.124H603.125V431.056H607.589V435.196H603.125ZM630.042 431.056V451H624.966V448.48C624.318 449.344 623.466 450.028 622.41 450.532C621.378 451.012 620.25 451.252 619.026 451.252C617.466 451.252 616.086 450.928 614.886 450.28C613.686 449.608 612.738 448.636 612.042 447.364C611.37 446.068 611.034 444.532 611.034 442.756V431.056H616.074V442.036C616.074 443.62 616.47 444.844 617.262 445.708C618.054 446.548 619.134 446.968 620.502 446.968C621.894 446.968 622.986 446.548 623.778 445.708C624.57 444.844 624.966 443.62 624.966 442.036V431.056H630.042ZM640.055 434.152C640.703 433.096 641.543 432.268 642.575 431.668C643.631 431.068 644.831 430.768 646.175 430.768V436.06H644.843C643.259 436.06 642.059 436.432 641.243 437.176C640.451 437.92 640.055 439.216 640.055 441.064V451H635.015V431.056H640.055V434.152ZM656.852 441.028C656.852 438.964 657.272 437.164 658.112 435.628C658.952 434.068 660.116 432.868 661.604 432.028C663.092 431.164 664.796 430.732 666.716 430.732C669.188 430.732 671.228 431.356 672.836 432.604C674.468 433.828 675.56 435.556 676.112 437.788H670.676C670.388 436.924 669.896 436.252 669.2 435.772C668.528 435.268 667.688 435.016 666.68 435.016C665.24 435.016 664.1 435.544 663.26 436.6C662.42 437.632 662 439.108 662 441.028C662 442.924 662.42 444.4 663.26 445.456C664.1 446.488 665.24 447.004 666.68 447.004C668.72 447.004 670.052 446.092 670.676 444.268H676.112C675.56 446.428 674.468 448.144 672.836 449.416C671.204 450.688 669.164 451.324 666.716 451.324C664.796 451.324 663.092 450.904 661.604 450.064C660.116 449.2 658.952 448 658.112 446.464C657.272 444.904 656.852 443.092 656.852 441.028ZM691.036 430.768C692.548 430.768 693.892 431.104 695.068 431.776C696.244 432.424 697.156 433.396 697.804 434.692C698.476 435.964 698.812 437.5 698.812 439.3V451H693.772V439.984C693.772 438.4 693.376 437.188 692.584 436.348C691.792 435.484 690.712 435.052 689.344 435.052C687.952 435.052 686.848 435.484 686.032 436.348C685.24 437.188 684.844 438.4 684.844 439.984V451H679.804V424.36H684.844V433.54C685.492 432.676 686.356 432.004 687.436 431.524C688.516 431.02 689.716 430.768 691.036 430.768ZM702.309 440.956C702.309 438.94 702.705 437.152 703.497 435.592C704.313 434.032 705.405 432.832 706.773 431.992C708.165 431.152 709.713 430.732 711.417 430.732C712.905 430.732 714.201 431.032 715.305 431.632C716.433 432.232 717.333 432.988 718.005 433.9V431.056H723.081V451H718.005V448.084C717.357 449.02 716.457 449.8 715.305 450.424C714.177 451.024 712.869 451.324 711.381 451.324C709.701 451.324 708.165 450.892 706.773 450.028C705.405 449.164 704.313 447.952 703.497 446.392C702.705 444.808 702.309 442.996 702.309 440.956ZM718.005 441.028C718.005 439.804 717.765 438.76 717.285 437.896C716.805 437.008 716.157 436.336 715.341 435.88C714.525 435.4 713.649 435.16 712.713 435.16C711.777 435.16 710.913 435.388 710.121 435.844C709.329 436.3 708.681 436.972 708.177 437.86C707.697 438.724 707.457 439.756 707.457 440.956C707.457 442.156 707.697 443.212 708.177 444.124C708.681 445.012 709.329 445.696 710.121 446.176C710.937 446.656 711.801 446.896 712.713 446.896C713.649 446.896 714.525 446.668 715.341 446.212C716.157 445.732 716.805 445.06 717.285 444.196C717.765 443.308 718.005 442.252 718.005 441.028ZM733.044 424.36V451H728.004V424.36H733.044ZM743.063 424.36V451H738.023V424.36H743.063ZM766.583 440.596C766.583 441.316 766.535 441.964 766.439 442.54H751.859C751.979 443.98 752.483 445.108 753.371 445.924C754.259 446.74 755.351 447.148 756.647 447.148C758.519 447.148 759.851 446.344 760.643 444.736H766.079C765.503 446.656 764.399 448.24 762.767 449.488C761.135 450.712 759.131 451.324 756.755 451.324C754.835 451.324 753.107 450.904 751.571 450.064C750.059 449.2 748.871 447.988 748.007 446.428C747.167 444.868 746.747 443.068 746.747 441.028C746.747 438.964 747.167 437.152 748.007 435.592C748.847 434.032 750.023 432.832 751.535 431.992C753.047 431.152 754.787 430.732 756.755 430.732C758.651 430.732 760.343 431.14 761.831 431.956C763.343 432.772 764.507 433.936 765.323 435.448C766.163 436.936 766.583 438.652 766.583 440.596ZM761.363 439.156C761.339 437.86 760.871 436.828 759.959 436.06C759.047 435.268 757.931 434.872 756.611 434.872C755.363 434.872 754.307 435.256 753.443 436.024C752.603 436.768 752.087 437.812 751.895 439.156H761.363ZM781.313 430.768C783.689 430.768 785.609 431.524 787.073 433.036C788.537 434.524 789.269 436.612 789.269 439.3V451H784.229V439.984C784.229 438.4 783.833 437.188 783.041 436.348C782.249 435.484 781.169 435.052 779.801 435.052C778.409 435.052 777.305 435.484 776.489 436.348C775.697 437.188 775.301 438.4 775.301 439.984V451H770.261V431.056H775.301V433.54C775.973 432.676 776.825 432.004 777.857 431.524C778.913 431.02 780.065 430.768 781.313 430.768ZM801.874 430.732C803.362 430.732 804.67 431.032 805.798 431.632C806.926 432.208 807.814 432.964 808.462 433.9V431.056H813.538V451.144C813.538 452.992 813.166 454.636 812.422 456.076C811.678 457.54 810.562 458.692 809.074 459.532C807.586 460.396 805.786 460.828 803.674 460.828C800.842 460.828 798.514 460.168 796.69 458.848C794.89 457.528 793.87 455.728 793.63 453.448H798.634C798.898 454.36 799.462 455.08 800.326 455.608C801.214 456.16 802.282 456.436 803.53 456.436C804.994 456.436 806.182 455.992 807.094 455.104C808.006 454.24 808.462 452.92 808.462 451.144V448.048C807.814 448.984 806.914 449.764 805.762 450.388C804.634 451.012 803.338 451.324 801.874 451.324C800.194 451.324 798.658 450.892 797.266 450.028C795.874 449.164 794.77 447.952 793.954 446.392C793.162 444.808 792.766 442.996 792.766 440.956C792.766 438.94 793.162 437.152 793.954 435.592C794.77 434.032 795.862 432.832 797.23 431.992C798.622 431.152 800.17 430.732 801.874 430.732ZM808.462 441.028C808.462 439.804 808.222 438.76 807.742 437.896C807.262 437.008 806.614 436.336 805.798 435.88C804.982 435.4 804.106 435.16 803.17 435.16C802.234 435.16 801.37 435.388 800.578 435.844C799.786 436.3 799.138 436.972 798.634 437.86C798.154 438.724 797.914 439.756 797.914 440.956C797.914 442.156 798.154 443.212 798.634 444.124C799.138 445.012 799.786 445.696 800.578 446.176C801.394 446.656 802.258 446.896 803.17 446.896C804.106 446.896 804.982 446.668 805.798 446.212C806.614 445.732 807.262 445.06 807.742 444.196C808.222 443.308 808.462 442.252 808.462 441.028ZM837.001 440.596C837.001 441.316 836.953 441.964 836.857 442.54H822.277C822.397 443.98 822.901 445.108 823.789 445.924C824.677 446.74 825.769 447.148 827.065 447.148C828.937 447.148 830.269 446.344 831.061 444.736H836.497C835.921 446.656 834.817 448.24 833.185 449.488C831.553 450.712 829.549 451.324 827.173 451.324C825.253 451.324 823.525 450.904 821.989 450.064C820.477 449.2 819.289 447.988 818.425 446.428C817.585 444.868 817.165 443.068 817.165 441.028C817.165 438.964 817.585 437.152 818.425 435.592C819.265 434.032 820.441 432.832 821.953 431.992C823.465 431.152 825.205 430.732 827.173 430.732C829.069 430.732 830.761 431.14 832.249 431.956C833.761 432.772 834.925 433.936 835.741 435.448C836.581 436.936 837.001 438.652 837.001 440.596ZM831.781 439.156C831.757 437.86 831.289 436.828 830.377 436.06C829.465 435.268 828.349 434.872 827.029 434.872C825.781 434.872 824.725 435.256 823.861 436.024C823.021 436.768 822.505 437.812 822.313 439.156H831.781ZM868.337 431.056L855.989 460.432H850.625L854.945 450.496L846.953 431.056H852.605L857.753 444.988L862.973 431.056H868.337ZM869.758 440.956C869.758 438.94 870.154 437.152 870.946 435.592C871.762 434.032 872.854 432.832 874.222 431.992C875.614 431.152 877.162 430.732 878.866 430.732C880.354 430.732 881.65 431.032 882.754 431.632C883.882 432.232 884.782 432.988 885.454 433.9V431.056H890.53V451H885.454V448.084C884.806 449.02 883.906 449.8 882.754 450.424C881.626 451.024 880.318 451.324 878.83 451.324C877.15 451.324 875.614 450.892 874.222 450.028C872.854 449.164 871.762 447.952 870.946 446.392C870.154 444.808 869.758 442.996 869.758 440.956ZM885.454 441.028C885.454 439.804 885.214 438.76 884.734 437.896C884.254 437.008 883.606 436.336 882.79 435.88C881.974 435.4 881.098 435.16 880.162 435.16C879.226 435.16 878.362 435.388 877.57 435.844C876.778 436.3 876.13 436.972 875.626 437.86C875.146 438.724 874.906 439.756 874.906 440.956C874.906 442.156 875.146 443.212 875.626 444.124C876.13 445.012 876.778 445.696 877.57 446.176C878.386 446.656 879.25 446.896 880.162 446.896C881.098 446.896 881.974 446.668 882.79 446.212C883.606 445.732 884.254 445.06 884.734 444.196C885.214 443.308 885.454 442.252 885.454 441.028ZM906.505 430.768C908.881 430.768 910.801 431.524 912.265 433.036C913.729 434.524 914.461 436.612 914.461 439.3V451H909.421V439.984C909.421 438.4 909.025 437.188 908.233 436.348C907.441 435.484 906.361 435.052 904.993 435.052C903.601 435.052 902.497 435.484 901.681 436.348C900.889 437.188 900.493 438.4 900.493 439.984V451H895.453V431.056H900.493V433.54C901.165 432.676 902.017 432.004 903.049 431.524C904.105 431.02 905.257 430.768 906.505 430.768ZM927.066 430.732C928.554 430.732 929.862 431.032 930.99 431.632C932.118 432.208 933.006 432.964 933.654 433.9V431.056H938.73V451.144C938.73 452.992 938.358 454.636 937.614 456.076C936.87 457.54 935.754 458.692 934.266 459.532C932.778 460.396 930.978 460.828 928.866 460.828C926.034 460.828 923.706 460.168 921.882 458.848C920.082 457.528 919.062 455.728 918.822 453.448H923.826C924.09 454.36 924.654 455.08 925.518 455.608C926.406 456.16 927.474 456.436 928.722 456.436C930.186 456.436 931.374 455.992 932.286 455.104C933.198 454.24 933.654 452.92 933.654 451.144V448.048C933.006 448.984 932.106 449.764 930.954 450.388C929.826 451.012 928.53 451.324 927.066 451.324C925.386 451.324 923.85 450.892 922.458 450.028C921.066 449.164 919.962 447.952 919.146 446.392C918.354 444.808 917.958 442.996 917.958 440.956C917.958 438.94 918.354 437.152 919.146 435.592C919.962 434.032 921.054 432.832 922.422 431.992C923.814 431.152 925.362 430.732 927.066 430.732ZM933.654 441.028C933.654 439.804 933.414 438.76 932.934 437.896C932.454 437.008 931.806 436.336 930.99 435.88C930.174 435.4 929.298 435.16 928.362 435.16C927.426 435.16 926.562 435.388 925.77 435.844C924.978 436.3 924.33 436.972 923.826 437.86C923.346 438.724 923.106 439.756 923.106 440.956C923.106 442.156 923.346 443.212 923.826 444.124C924.33 445.012 924.978 445.696 925.77 446.176C926.586 446.656 927.45 446.896 928.362 446.896C929.298 446.896 930.174 446.668 930.99 446.212C931.806 445.732 932.454 445.06 932.934 444.196C933.414 443.308 933.654 442.252 933.654 441.028ZM957.27 433.972C957.918 433.012 958.806 432.232 959.934 431.632C961.086 431.032 962.394 430.732 963.858 430.732C965.562 430.732 967.098 431.152 968.466 431.992C969.858 432.832 970.95 434.032 971.742 435.592C972.558 437.128 972.966 438.916 972.966 440.956C972.966 442.996 972.558 444.808 971.742 446.392C970.95 447.952 969.858 449.164 968.466 450.028C967.098 450.892 965.562 451.324 963.858 451.324C962.37 451.324 961.062 451.036 959.934 450.46C958.83 449.86 957.942 449.092 957.27 448.156V451H952.23V424.36H957.27V433.972ZM967.818 440.956C967.818 439.756 967.566 438.724 967.062 437.86C966.582 436.972 965.934 436.3 965.118 435.844C964.326 435.388 963.462 435.16 962.526 435.16C961.614 435.16 960.75 435.4 959.934 435.88C959.142 436.336 958.494 437.008 957.99 437.896C957.51 438.784 957.27 439.828 957.27 441.028C957.27 442.228 957.51 443.272 957.99 444.16C958.494 445.048 959.142 445.732 959.934 446.212C960.75 446.668 961.614 446.896 962.526 446.896C963.462 446.896 964.326 446.656 965.118 446.176C965.934 445.696 966.582 445.012 967.062 444.124C967.566 443.236 967.818 442.18 967.818 440.956ZM995.169 440.596C995.169 441.316 995.121 441.964 995.025 442.54H980.445C980.565 443.98 981.069 445.108 981.957 445.924C982.845 446.74 983.937 447.148 985.233 447.148C987.105 447.148 988.437 446.344 989.229 444.736H994.665C994.089 446.656 992.985 448.24 991.353 449.488C989.721 450.712 987.717 451.324 985.341 451.324C983.421 451.324 981.693 450.904 980.157 450.064C978.645 449.2 977.457 447.988 976.593 446.428C975.753 444.868 975.333 443.068 975.333 441.028C975.333 438.964 975.753 437.152 976.593 435.592C977.433 434.032 978.609 432.832 980.121 431.992C981.633 431.152 983.373 430.732 985.341 430.732C987.237 430.732 988.929 431.14 990.417 431.956C991.929 432.772 993.093 433.936 993.909 435.448C994.749 436.936 995.169 438.652 995.169 440.596ZM989.949 439.156C989.925 437.86 989.457 436.828 988.545 436.06C987.633 435.268 986.517 434.872 985.197 434.872C983.949 434.872 982.893 435.256 982.029 436.024C981.189 436.768 980.673 437.812 980.481 439.156H989.949ZM1003.89 434.152C1004.54 433.096 1005.38 432.268 1006.41 431.668C1007.46 431.068 1008.66 430.768 1010.01 430.768V436.06H1008.68C1007.09 436.06 1005.89 436.432 1005.08 437.176C1004.28 437.92 1003.89 439.216 1003.89 441.064V451H998.847V431.056H1003.89V434.152ZM1021.21 430.732C1022.7 430.732 1024.01 431.032 1025.14 431.632C1026.27 432.208 1027.15 432.964 1027.8 433.9V431.056H1032.88V451.144C1032.88 452.992 1032.51 454.636 1031.76 456.076C1031.02 457.54 1029.9 458.692 1028.41 459.532C1026.93 460.396 1025.13 460.828 1023.01 460.828C1020.18 460.828 1017.85 460.168 1016.03 458.848C1014.23 457.528 1013.21 455.728 1012.97 453.448H1017.97C1018.24 454.36 1018.8 455.08 1019.67 455.608C1020.55 456.16 1021.62 456.436 1022.87 456.436C1024.33 456.436 1025.52 455.992 1026.43 455.104C1027.35 454.24 1027.8 452.92 1027.8 451.144V448.048C1027.15 448.984 1026.25 449.764 1025.1 450.388C1023.97 451.012 1022.68 451.324 1021.21 451.324C1019.53 451.324 1018 450.892 1016.61 450.028C1015.21 449.164 1014.11 447.952 1013.29 446.392C1012.5 444.808 1012.11 442.996 1012.11 440.956C1012.11 438.94 1012.5 437.152 1013.29 435.592C1014.11 434.032 1015.2 432.832 1016.57 431.992C1017.96 431.152 1019.51 430.732 1021.21 430.732ZM1027.8 441.028C1027.8 439.804 1027.56 438.76 1027.08 437.896C1026.6 437.008 1025.95 436.336 1025.14 435.88C1024.32 435.4 1023.45 435.16 1022.51 435.16C1021.57 435.16 1020.71 435.388 1019.92 435.844C1019.13 436.3 1018.48 436.972 1017.97 437.86C1017.49 438.724 1017.25 439.756 1017.25 440.956C1017.25 442.156 1017.49 443.212 1017.97 444.124C1018.48 445.012 1019.13 445.696 1019.92 446.176C1020.73 446.656 1021.6 446.896 1022.51 446.896C1023.45 446.896 1024.32 446.668 1025.14 446.212C1025.95 445.732 1026.6 445.06 1027.08 444.196C1027.56 443.308 1027.8 442.252 1027.8 441.028ZM1056.63 431.056V451H1051.55V448.48C1050.9 449.344 1050.05 450.028 1049 450.532C1047.96 451.012 1046.84 451.252 1045.61 451.252C1044.05 451.252 1042.67 450.928 1041.47 450.28C1040.27 449.608 1039.32 448.636 1038.63 447.364C1037.96 446.068 1037.62 444.532 1037.62 442.756V431.056H1042.66V442.036C1042.66 443.62 1043.06 444.844 1043.85 445.708C1044.64 446.548 1045.72 446.968 1047.09 446.968C1048.48 446.968 1049.57 446.548 1050.36 445.708C1051.16 444.844 1051.55 443.62 1051.55 442.036V431.056H1056.63ZM1072.65 430.768C1075.03 430.768 1076.95 431.524 1078.41 433.036C1079.88 434.524 1080.61 436.612 1080.61 439.3V451H1075.57V439.984C1075.57 438.4 1075.17 437.188 1074.38 436.348C1073.59 435.484 1072.51 435.052 1071.14 435.052C1069.75 435.052 1068.65 435.484 1067.83 436.348C1067.04 437.188 1066.64 438.4 1066.64 439.984V451H1061.6V431.056H1066.64V433.54C1067.31 432.676 1068.17 432.004 1069.2 431.524C1070.25 431.02 1071.41 430.768 1072.65 430.768ZM1084.11 440.956C1084.11 438.94 1084.5 437.152 1085.29 435.592C1086.11 434.032 1087.2 432.832 1088.57 431.992C1089.96 431.152 1091.51 430.732 1093.21 430.732C1094.7 430.732 1096 431.032 1097.1 431.632C1098.23 432.232 1099.13 432.988 1099.8 433.9V431.056H1104.88V451H1099.8V448.084C1099.15 449.02 1098.25 449.8 1097.1 450.424C1095.97 451.024 1094.67 451.324 1093.18 451.324C1091.5 451.324 1089.96 450.892 1088.57 450.028C1087.2 449.164 1086.11 447.952 1085.29 446.392C1084.5 444.808 1084.11 442.996 1084.11 440.956ZM1099.8 441.028C1099.8 439.804 1099.56 438.76 1099.08 437.896C1098.6 437.008 1097.95 436.336 1097.14 435.88C1096.32 435.4 1095.45 435.16 1094.51 435.16C1093.57 435.16 1092.71 435.388 1091.92 435.844C1091.13 436.3 1090.48 436.972 1089.97 437.86C1089.49 438.724 1089.25 439.756 1089.25 440.956C1089.25 442.156 1089.49 443.212 1089.97 444.124C1090.48 445.012 1091.13 445.696 1091.92 446.176C1092.73 446.656 1093.6 446.896 1094.51 446.896C1095.45 446.896 1096.32 446.668 1097.14 446.212C1097.95 445.732 1098.6 445.06 1099.08 444.196C1099.56 443.308 1099.8 442.252 1099.8 441.028ZM1137.21 431.056V451H1132.13V448.48C1131.48 449.344 1130.63 450.028 1129.57 450.532C1128.54 451.012 1127.41 451.252 1126.19 451.252C1124.63 451.252 1123.25 450.928 1122.05 450.28C1120.85 449.608 1119.9 448.636 1119.21 447.364C1118.53 446.068 1118.2 444.532 1118.2 442.756V431.056H1123.24V442.036C1123.24 443.62 1123.63 444.844 1124.43 445.708C1125.22 446.548 1126.3 446.968 1127.67 446.968C1129.06 446.968 1130.15 446.548 1130.94 445.708C1131.73 444.844 1132.13 443.62 1132.13 442.036V431.056H1137.21ZM1153.23 430.768C1155.61 430.768 1157.53 431.524 1158.99 433.036C1160.46 434.524 1161.19 436.612 1161.19 439.3V451H1156.15V439.984C1156.15 438.4 1155.75 437.188 1154.96 436.348C1154.17 435.484 1153.09 435.052 1151.72 435.052C1150.33 435.052 1149.22 435.484 1148.41 436.348C1147.62 437.188 1147.22 438.4 1147.22 439.984V451H1142.18V431.056H1147.22V433.54C1147.89 432.676 1148.74 432.004 1149.78 431.524C1150.83 431.02 1151.98 430.768 1153.23 430.768ZM1171.85 435.196V444.844C1171.85 445.516 1172 446.008 1172.32 446.32C1172.65 446.608 1173.2 446.752 1173.97 446.752H1176.31V451H1173.14C1168.9 451 1166.77 448.936 1166.77 444.808V435.196H1164.4V431.056H1166.77V426.124H1171.85V431.056H1176.31V435.196H1171.85ZM1198.77 431.056V451H1193.69V448.48C1193.04 449.344 1192.19 450.028 1191.13 450.532C1190.1 451.012 1188.97 451.252 1187.75 451.252C1186.19 451.252 1184.81 450.928 1183.61 450.28C1182.41 449.608 1181.46 448.636 1180.77 447.364C1180.09 446.068 1179.76 444.532 1179.76 442.756V431.056H1184.8V442.036C1184.8 443.62 1185.19 444.844 1185.99 445.708C1186.78 446.548 1187.86 446.968 1189.23 446.968C1190.62 446.968 1191.71 446.548 1192.5 445.708C1193.29 444.844 1193.69 443.62 1193.69 442.036V431.056H1198.77ZM1215.55 451L1208.78 442.504V451H1203.74V424.36H1208.78V439.516L1215.47 431.056H1222.03L1213.24 441.064L1222.1 451H1215.55Z" fill="white"/>
<path d="M362.856 231.616H349.512L347.304 238H340.248L352.296 204.448H360.12L372.168 238H365.064L362.856 231.616ZM361.032 226.24L356.184 212.224L351.336 226.24H361.032ZM398.525 210.976C400.509 210.976 402.253 211.376 403.757 212.176C405.261 212.944 406.445 213.952 407.309 215.2V211.408H414.077V238.192C414.077 240.656 413.581 242.848 412.589 244.768C411.597 246.72 410.109 248.256 408.125 249.376C406.141 250.528 403.741 251.104 400.925 251.104C397.149 251.104 394.045 250.224 391.613 248.464C389.213 246.704 387.853 244.304 387.533 241.264H394.205C394.557 242.48 395.309 243.44 396.461 244.144C397.645 244.88 399.069 245.248 400.733 245.248C402.685 245.248 404.269 244.656 405.485 243.472C406.701 242.32 407.309 240.56 407.309 238.192V234.064C406.445 235.312 405.245 236.352 403.709 237.184C402.205 238.016 400.477 238.432 398.525 238.432C396.285 238.432 394.237 237.856 392.381 236.704C390.525 235.552 389.053 233.936 387.965 231.856C386.909 229.744 386.381 227.328 386.381 224.608C386.381 221.92 386.909 219.536 387.965 217.456C389.053 215.376 390.509 213.776 392.333 212.656C394.189 211.536 396.253 210.976 398.525 210.976ZM407.309 224.704C407.309 223.072 406.989 221.68 406.349 220.528C405.709 219.344 404.845 218.448 403.757 217.84C402.669 217.2 401.501 216.88 400.253 216.88C399.005 216.88 397.853 217.184 396.797 217.792C395.741 218.4 394.877 219.296 394.205 220.48C393.565 221.632 393.245 223.008 393.245 224.608C393.245 226.208 393.565 227.616 394.205 228.832C394.877 230.016 395.741 230.928 396.797 231.568C397.885 232.208 399.037 232.528 400.253 232.528C401.501 232.528 402.669 232.224 403.757 231.616C404.845 230.976 405.709 230.08 406.349 228.928C406.989 227.744 407.309 226.336 407.309 224.704ZM427.36 215.536C428.224 214.128 429.344 213.024 430.72 212.224C432.128 211.424 433.728 211.024 435.52 211.024V218.08H433.744C431.632 218.08 430.032 218.576 428.944 219.568C427.888 220.56 427.36 222.288 427.36 224.752V238H420.64V211.408H427.36V215.536ZM464.766 224.128C464.766 225.088 464.702 225.952 464.574 226.72H445.134C445.294 228.64 445.966 230.144 447.15 231.232C448.334 232.32 449.79 232.864 451.518 232.864C454.014 232.864 455.79 231.792 456.846 229.648H464.094C463.326 232.208 461.854 234.32 459.678 235.984C457.502 237.616 454.83 238.432 451.662 238.432C449.102 238.432 446.798 237.872 444.75 236.752C442.734 235.6 441.15 233.984 439.998 231.904C438.878 229.824 438.318 227.424 438.318 224.704C438.318 221.952 438.878 219.536 439.998 217.456C441.118 215.376 442.686 213.776 444.702 212.656C446.718 211.536 449.038 210.976 451.662 210.976C454.19 210.976 456.446 211.52 458.43 212.608C460.446 213.696 461.998 215.248 463.086 217.264C464.206 219.248 464.766 221.536 464.766 224.128ZM457.806 222.208C457.774 220.48 457.15 219.104 455.934 218.08C454.718 217.024 453.23 216.496 451.47 216.496C449.806 216.496 448.398 217.008 447.246 218.032C446.126 219.024 445.438 220.416 445.182 222.208H457.806ZM467.943 224.608C467.943 221.92 468.471 219.536 469.527 217.456C470.615 215.376 472.071 213.776 473.895 212.656C475.751 211.536 477.815 210.976 480.087 210.976C482.071 210.976 483.799 211.376 485.271 212.176C486.775 212.976 487.975 213.984 488.871 215.2V211.408H495.639V238H488.871V234.112C488.007 235.36 486.807 236.4 485.271 237.232C483.767 238.032 482.023 238.432 480.039 238.432C477.799 238.432 475.751 237.856 473.895 236.704C472.071 235.552 470.615 233.936 469.527 231.856C468.471 229.744 467.943 227.328 467.943 224.608ZM488.871 224.704C488.871 223.072 488.551 221.68 487.911 220.528C487.271 219.344 486.407 218.448 485.319 217.84C484.231 217.2 483.063 216.88 481.815 216.88C480.567 216.88 479.415 217.184 478.359 217.792C477.303 218.4 476.439 219.296 475.767 220.48C475.127 221.632 474.807 223.008 474.807 224.608C474.807 226.208 475.127 227.616 475.767 228.832C476.439 230.016 477.303 230.928 478.359 231.568C479.447 232.208 480.599 232.528 481.815 232.528C483.063 232.528 484.231 232.224 485.319 231.616C486.407 230.976 487.271 230.08 487.911 228.928C488.551 227.744 488.871 226.336 488.871 224.704ZM510.027 216.928V229.792C510.027 230.688 510.235 231.344 510.651 231.76C511.099 232.144 511.835 232.336 512.859 232.336H515.979V238H511.755C506.091 238 503.259 235.248 503.259 229.744V216.928H500.091V211.408H503.259V204.832H510.027V211.408H515.979V216.928H510.027ZM544.442 216.928H539.786V238H532.97V216.928H529.946V211.408H532.97V210.064C532.97 206.8 533.898 204.4 535.754 202.864C537.61 201.328 540.41 200.608 544.154 200.704V206.368C542.522 206.336 541.386 206.608 540.746 207.184C540.106 207.76 539.786 208.8 539.786 210.304V211.408H544.442V216.928ZM573.9 211.408V238H567.132V234.64C566.268 235.792 565.132 236.704 563.724 237.376C562.348 238.016 560.844 238.336 559.212 238.336C557.132 238.336 555.292 237.904 553.692 237.04C552.092 236.144 550.828 234.848 549.9 233.152C549.004 231.424 548.556 229.376 548.556 227.008V211.408H555.276V226.048C555.276 228.16 555.804 229.792 556.86 230.944C557.916 232.064 559.356 232.624 561.18 232.624C563.036 232.624 564.492 232.064 565.548 230.944C566.604 229.792 567.132 228.16 567.132 226.048V211.408H573.9ZM588.355 216.928V229.792C588.355 230.688 588.563 231.344 588.979 231.76C589.427 232.144 590.163 232.336 591.187 232.336H594.307V238H590.083C584.419 238 581.587 235.248 581.587 229.744V216.928H578.419V211.408H581.587V204.832H588.355V211.408H594.307V216.928H588.355ZM624.244 211.408V238H617.476V234.64C616.612 235.792 615.476 236.704 614.068 237.376C612.692 238.016 611.188 238.336 609.556 238.336C607.476 238.336 605.636 237.904 604.036 237.04C602.436 236.144 601.172 234.848 600.244 233.152C599.348 231.424 598.9 229.376 598.9 227.008V211.408H605.62V226.048C605.62 228.16 606.148 229.792 607.204 230.944C608.26 232.064 609.7 232.624 611.524 232.624C613.38 232.624 614.836 232.064 615.892 230.944C616.948 229.792 617.476 228.16 617.476 226.048V211.408H624.244ZM637.595 215.536C638.459 214.128 639.579 213.024 640.955 212.224C642.363 211.424 643.963 211.024 645.755 211.024V218.08H643.979C641.867 218.08 640.267 218.576 639.179 219.568C638.123 220.56 637.595 222.288 637.595 224.752V238H630.875V211.408H637.595V215.536ZM675.001 224.128C675.001 225.088 674.937 225.952 674.809 226.72H655.369C655.529 228.64 656.201 230.144 657.385 231.232C658.569 232.32 660.025 232.864 661.753 232.864C664.249 232.864 666.025 231.792 667.081 229.648H674.329C673.561 232.208 672.089 234.32 669.913 235.984C667.737 237.616 665.065 238.432 661.897 238.432C659.337 238.432 657.033 237.872 654.985 236.752C652.969 235.6 651.385 233.984 650.233 231.904C649.113 229.824 648.553 227.424 648.553 224.704C648.553 221.952 649.113 219.536 650.233 217.456C651.353 215.376 652.921 213.776 654.937 212.656C656.953 211.536 659.273 210.976 661.897 210.976C664.425 210.976 666.681 211.52 668.665 212.608C670.681 213.696 672.233 215.248 673.321 217.264C674.441 219.248 675.001 221.536 675.001 224.128ZM668.041 222.208C668.009 220.48 667.385 219.104 666.169 218.08C664.953 217.024 663.465 216.496 661.705 216.496C660.041 216.496 658.633 217.008 657.481 218.032C656.361 219.024 655.673 220.416 655.417 222.208H668.041ZM682.882 238.336C681.666 238.336 680.658 237.968 679.858 237.232C679.09 236.464 678.706 235.52 678.706 234.4C678.706 233.28 679.09 232.352 679.858 231.616C680.658 230.848 681.666 230.464 682.882 230.464C684.066 230.464 685.042 230.848 685.81 231.616C686.578 232.352 686.962 233.28 686.962 234.4C686.962 235.52 686.578 236.464 685.81 237.232C685.042 237.968 684.066 238.336 682.882 238.336ZM710.532 204.496V238H703.812V204.496H710.532ZM724.995 216.928V229.792C724.995 230.688 725.203 231.344 725.619 231.76C726.067 232.144 726.803 232.336 727.827 232.336H730.947V238H726.723C721.059 238 718.227 235.248 718.227 229.744V216.928H715.059V211.408H718.227V204.832H724.995V211.408H730.947V216.928H724.995ZM737.125 204.496H744.181L738.997 216.592H734.389L737.125 204.496ZM759.176 238.432C757 238.432 755.048 238.048 753.32 237.28C751.592 236.48 750.216 235.408 749.192 234.064C748.2 232.72 747.656 231.232 747.56 229.6H754.328C754.456 230.624 754.952 231.472 755.816 232.144C756.712 232.816 757.816 233.152 759.128 233.152C760.408 233.152 761.4 232.896 762.104 232.384C762.84 231.872 763.208 231.216 763.208 230.416C763.208 229.552 762.76 228.912 761.864 228.496C761 228.048 759.608 227.568 757.688 227.056C755.704 226.576 754.072 226.08 752.792 225.568C751.544 225.056 750.456 224.272 749.528 223.216C748.632 222.16 748.184 220.736 748.184 218.944C748.184 217.472 748.6 216.128 749.432 214.912C750.296 213.696 751.512 212.736 753.08 212.032C754.68 211.328 756.552 210.976 758.696 210.976C761.864 210.976 764.392 211.776 766.28 213.376C768.168 214.944 769.208 217.072 769.4 219.76H762.968C762.872 218.704 762.424 217.872 761.624 217.264C760.856 216.624 759.816 216.304 758.504 216.304C757.288 216.304 756.344 216.528 755.672 216.976C755.032 217.424 754.712 218.048 754.712 218.848C754.712 219.744 755.16 220.432 756.056 220.912C756.952 221.36 758.344 221.824 760.232 222.304C762.152 222.784 763.736 223.28 764.984 223.792C766.232 224.304 767.304 225.104 768.2 226.192C769.128 227.248 769.608 228.656 769.64 230.416C769.64 231.952 769.208 233.328 768.344 234.544C767.512 235.76 766.296 236.72 764.696 237.424C763.128 238.096 761.288 238.432 759.176 238.432ZM823.457 211.408L815.681 238H808.433L803.585 219.424L798.737 238H791.441L783.617 211.408H790.433L795.137 231.664L800.225 211.408H807.329L812.321 231.616L817.025 211.408H823.457ZM842.069 211.024C844.085 211.024 845.877 211.472 847.445 212.368C849.013 213.232 850.229 214.528 851.093 216.256C851.989 217.952 852.437 220 852.437 222.4V238H845.717V223.312C845.717 221.2 845.189 219.584 844.133 218.464C843.077 217.312 841.637 216.736 839.813 216.736C837.957 216.736 836.485 217.312 835.397 218.464C834.341 219.584 833.813 221.2 833.813 223.312V238H827.093V202.48H833.813V214.72C834.677 213.568 835.829 212.672 837.269 212.032C838.709 211.36 840.309 211.024 842.069 211.024ZM857.1 224.608C857.1 221.92 857.628 219.536 858.684 217.456C859.772 215.376 861.228 213.776 863.052 212.656C864.908 211.536 866.972 210.976 869.244 210.976C871.228 210.976 872.956 211.376 874.428 212.176C875.932 212.976 877.132 213.984 878.028 215.2V211.408H884.796V238H878.028V234.112C877.164 235.36 875.964 236.4 874.428 237.232C872.924 238.032 871.18 238.432 869.196 238.432C866.956 238.432 864.908 237.856 863.052 236.704C861.228 235.552 859.772 233.936 858.684 231.856C857.628 229.744 857.1 227.328 857.1 224.608ZM878.028 224.704C878.028 223.072 877.708 221.68 877.068 220.528C876.428 219.344 875.564 218.448 874.476 217.84C873.388 217.2 872.22 216.88 870.972 216.88C869.724 216.88 868.572 217.184 867.516 217.792C866.46 218.4 865.596 219.296 864.924 220.48C864.284 221.632 863.964 223.008 863.964 224.608C863.964 226.208 864.284 227.616 864.924 228.832C865.596 230.016 866.46 230.928 867.516 231.568C868.604 232.208 869.756 232.528 870.972 232.528C872.22 232.528 873.388 232.224 874.476 231.616C875.564 230.976 876.428 230.08 877.068 228.928C877.708 227.744 878.028 226.336 878.028 224.704ZM899.183 216.928V229.792C899.183 230.688 899.391 231.344 899.807 231.76C900.255 232.144 900.991 232.336 902.015 232.336H905.135V238H900.911C895.247 238 892.415 235.248 892.415 229.744V216.928H889.247V211.408H892.415V204.832H899.183V211.408H905.135V216.928H899.183ZM954.43 211.024C957.694 211.024 960.318 212.032 962.302 214.048C964.318 216.032 965.326 218.816 965.326 222.4V238H958.606V223.312C958.606 221.232 958.078 219.648 957.022 218.56C955.966 217.44 954.526 216.88 952.702 216.88C950.878 216.88 949.422 217.44 948.334 218.56C947.278 219.648 946.75 221.232 946.75 223.312V238H940.03V223.312C940.03 221.232 939.502 219.648 938.446 218.56C937.39 217.44 935.95 216.88 934.126 216.88C932.27 216.88 930.798 217.44 929.71 218.56C928.654 219.648 928.126 221.232 928.126 223.312V238H921.406V211.408H928.126V214.624C928.99 213.504 930.094 212.624 931.438 211.984C932.814 211.344 934.318 211.024 935.95 211.024C938.03 211.024 939.886 211.472 941.518 212.368C943.15 213.232 944.414 214.48 945.31 216.112C946.174 214.576 947.422 213.344 949.054 212.416C950.718 211.488 952.51 211.024 954.43 211.024ZM969.975 224.608C969.975 221.92 970.503 219.536 971.559 217.456C972.647 215.376 974.103 213.776 975.927 212.656C977.783 211.536 979.847 210.976 982.119 210.976C984.103 210.976 985.831 211.376 987.303 212.176C988.807 212.976 990.007 213.984 990.903 215.2V211.408H997.671V238H990.903V234.112C990.039 235.36 988.839 236.4 987.303 237.232C985.799 238.032 984.055 238.432 982.071 238.432C979.831 238.432 977.783 237.856 975.927 236.704C974.103 235.552 972.647 233.936 971.559 231.856C970.503 229.744 969.975 227.328 969.975 224.608ZM990.903 224.704C990.903 223.072 990.583 221.68 989.943 220.528C989.303 219.344 988.439 218.448 987.351 217.84C986.263 217.2 985.095 216.88 983.847 216.88C982.599 216.88 981.447 217.184 980.391 217.792C979.335 218.4 978.471 219.296 977.799 220.48C977.159 221.632 976.839 223.008 976.839 224.608C976.839 226.208 977.159 227.616 977.799 228.832C978.471 230.016 979.335 230.928 980.391 231.568C981.479 232.208 982.631 232.528 983.847 232.528C985.095 232.528 986.263 232.224 987.351 231.616C988.439 230.976 989.303 230.08 989.943 228.928C990.583 227.744 990.903 226.336 990.903 224.704ZM1019.98 238L1010.95 226.672V238H1004.23V202.48H1010.95V222.688L1019.88 211.408H1028.62L1016.91 224.752L1028.71 238H1019.98ZM1056.99 224.128C1056.99 225.088 1056.92 225.952 1056.79 226.72H1037.35C1037.51 228.64 1038.19 230.144 1039.37 231.232C1040.55 232.32 1042.01 232.864 1043.74 232.864C1046.23 232.864 1048.01 231.792 1049.07 229.648H1056.31C1055.55 232.208 1054.07 234.32 1051.9 235.984C1049.72 237.616 1047.05 238.432 1043.88 238.432C1041.32 238.432 1039.02 237.872 1036.97 236.752C1034.95 235.6 1033.37 233.984 1032.22 231.904C1031.1 229.824 1030.54 227.424 1030.54 224.704C1030.54 221.952 1031.1 219.536 1032.22 217.456C1033.34 215.376 1034.91 213.776 1036.92 212.656C1038.94 211.536 1041.26 210.976 1043.88 210.976C1046.41 210.976 1048.67 211.52 1050.65 212.608C1052.67 213.696 1054.22 215.248 1055.31 217.264C1056.43 219.248 1056.99 221.536 1056.99 224.128ZM1050.03 222.208C1049.99 220.48 1049.37 219.104 1048.15 218.08C1046.94 217.024 1045.45 216.496 1043.69 216.496C1042.03 216.496 1040.62 217.008 1039.47 218.032C1038.35 219.024 1037.66 220.416 1037.4 222.208H1050.03ZM1072.07 238.432C1069.89 238.432 1067.94 238.048 1066.21 237.28C1064.48 236.48 1063.11 235.408 1062.08 234.064C1061.09 232.72 1060.55 231.232 1060.45 229.6H1067.22C1067.35 230.624 1067.84 231.472 1068.71 232.144C1069.6 232.816 1070.71 233.152 1072.02 233.152C1073.3 233.152 1074.29 232.896 1074.99 232.384C1075.73 231.872 1076.1 231.216 1076.1 230.416C1076.1 229.552 1075.65 228.912 1074.75 228.496C1073.89 228.048 1072.5 227.568 1070.58 227.056C1068.59 226.576 1066.96 226.08 1065.68 225.568C1064.43 225.056 1063.35 224.272 1062.42 223.216C1061.52 222.16 1061.07 220.736 1061.07 218.944C1061.07 217.472 1061.49 216.128 1062.32 214.912C1063.19 213.696 1064.4 212.736 1065.97 212.032C1067.57 211.328 1069.44 210.976 1071.59 210.976C1074.75 210.976 1077.28 211.776 1079.17 213.376C1081.06 214.944 1082.1 217.072 1082.29 219.76H1075.86C1075.76 218.704 1075.31 217.872 1074.51 217.264C1073.75 216.624 1072.71 216.304 1071.39 216.304C1070.18 216.304 1069.23 216.528 1068.56 216.976C1067.92 217.424 1067.6 218.048 1067.6 218.848C1067.6 219.744 1068.05 220.432 1068.95 220.912C1069.84 221.36 1071.23 221.824 1073.12 222.304C1075.04 222.784 1076.63 223.28 1077.87 223.792C1079.12 224.304 1080.19 225.104 1081.09 226.192C1082.02 227.248 1082.5 228.656 1082.53 230.416C1082.53 231.952 1082.1 233.328 1081.23 234.544C1080.4 235.76 1079.19 236.72 1077.59 237.424C1076.02 238.096 1074.18 238.432 1072.07 238.432ZM1124.59 211.408V238H1117.82V234.64C1116.96 235.792 1115.82 236.704 1114.41 237.376C1113.04 238.016 1111.53 238.336 1109.9 238.336C1107.82 238.336 1105.98 237.904 1104.38 237.04C1102.78 236.144 1101.52 234.848 1100.59 233.152C1099.69 231.424 1099.24 229.376 1099.24 227.008V211.408H1105.96V226.048C1105.96 228.16 1106.49 229.792 1107.55 230.944C1108.6 232.064 1110.04 232.624 1111.87 232.624C1113.72 232.624 1115.18 232.064 1116.24 230.944C1117.29 229.792 1117.82 228.16 1117.82 226.048V211.408H1124.59ZM1141.39 238.432C1139.22 238.432 1137.27 238.048 1135.54 237.28C1133.81 236.48 1132.43 235.408 1131.41 234.064C1130.42 232.72 1129.87 231.232 1129.78 229.6H1136.55C1136.67 230.624 1137.17 231.472 1138.03 232.144C1138.93 232.816 1140.03 233.152 1141.35 233.152C1142.63 233.152 1143.62 232.896 1144.32 232.384C1145.06 231.872 1145.43 231.216 1145.43 230.416C1145.43 229.552 1144.98 228.912 1144.08 228.496C1143.22 228.048 1141.83 227.568 1139.91 227.056C1137.92 226.576 1136.29 226.08 1135.01 225.568C1133.76 225.056 1132.67 224.272 1131.75 223.216C1130.85 222.16 1130.4 220.736 1130.4 218.944C1130.4 217.472 1130.82 216.128 1131.65 214.912C1132.51 213.696 1133.73 212.736 1135.3 212.032C1136.9 211.328 1138.77 210.976 1140.91 210.976C1144.08 210.976 1146.61 211.776 1148.5 213.376C1150.39 214.944 1151.43 217.072 1151.62 219.76H1145.19C1145.09 218.704 1144.64 217.872 1143.84 217.264C1143.07 216.624 1142.03 216.304 1140.72 216.304C1139.51 216.304 1138.56 216.528 1137.89 216.976C1137.25 217.424 1136.93 218.048 1136.93 218.848C1136.93 219.744 1137.38 220.432 1138.27 220.912C1139.17 221.36 1140.56 221.824 1142.45 222.304C1144.37 222.784 1145.95 223.28 1147.2 223.792C1148.45 224.304 1149.52 225.104 1150.42 226.192C1151.35 227.248 1151.83 228.656 1151.86 230.416C1151.86 231.952 1151.43 233.328 1150.56 234.544C1149.73 235.76 1148.51 236.72 1146.91 237.424C1145.35 238.096 1143.51 238.432 1141.39 238.432ZM1160.35 238.336C1159.13 238.336 1158.13 237.968 1157.33 237.232C1156.56 236.464 1156.17 235.52 1156.17 234.4C1156.17 233.28 1156.56 232.352 1157.33 231.616C1158.13 230.848 1159.13 230.464 1160.35 230.464C1161.53 230.464 1162.51 230.848 1163.28 231.616C1164.05 232.352 1164.43 233.28 1164.43 234.4C1164.43 235.52 1164.05 236.464 1163.28 237.232C1162.51 237.968 1161.53 238.336 1160.35 238.336Z" fill="white"/>
<path d="M509.88 321.872V347H504.84V330.656L498.108 347H494.292L487.524 330.656V347H482.484V321.872H488.208L496.2 340.556L504.192 321.872H509.88ZM533.403 336.596C533.403 337.316 533.355 337.964 533.259 338.54H518.679C518.799 339.98 519.303 341.108 520.191 341.924C521.079 342.74 522.171 343.148 523.467 343.148C525.339 343.148 526.671 342.344 527.463 340.736H532.899C532.323 342.656 531.219 344.24 529.587 345.488C527.955 346.712 525.951 347.324 523.575 347.324C521.655 347.324 519.927 346.904 518.391 346.064C516.879 345.2 515.691 343.988 514.827 342.428C513.987 340.868 513.567 339.068 513.567 337.028C513.567 334.964 513.987 333.152 514.827 331.592C515.667 330.032 516.843 328.832 518.355 327.992C519.867 327.152 521.607 326.732 523.575 326.732C525.471 326.732 527.163 327.14 528.651 327.956C530.163 328.772 531.327 329.936 532.143 331.448C532.983 332.936 533.403 334.652 533.403 336.596ZM528.183 335.156C528.159 333.86 527.691 332.828 526.779 332.06C525.867 331.268 524.751 330.872 523.431 330.872C522.183 330.872 521.127 331.256 520.263 332.024C519.423 332.768 518.907 333.812 518.715 335.156H528.183ZM548.134 326.768C550.51 326.768 552.43 327.524 553.894 329.036C555.358 330.524 556.09 332.612 556.09 335.3V347H551.05V335.984C551.05 334.4 550.654 333.188 549.862 332.348C549.07 331.484 547.99 331.052 546.622 331.052C545.23 331.052 544.126 331.484 543.31 332.348C542.518 333.188 542.122 334.4 542.122 335.984V347H537.082V327.056H542.122V329.54C542.794 328.676 543.646 328.004 544.678 327.524C545.734 327.02 546.886 326.768 548.134 326.768ZM559.586 336.956C559.586 334.94 559.982 333.152 560.774 331.592C561.59 330.032 562.682 328.832 564.05 327.992C565.442 327.152 566.99 326.732 568.694 326.732C570.182 326.732 571.478 327.032 572.582 327.632C573.71 328.232 574.61 328.988 575.282 329.9V327.056H580.358V347H575.282V344.084C574.634 345.02 573.734 345.8 572.582 346.424C571.454 347.024 570.146 347.324 568.658 347.324C566.978 347.324 565.442 346.892 564.05 346.028C562.682 345.164 561.59 343.952 560.774 342.392C559.982 340.808 559.586 338.996 559.586 336.956ZM575.282 337.028C575.282 335.804 575.042 334.76 574.562 333.896C574.082 333.008 573.434 332.336 572.618 331.88C571.802 331.4 570.926 331.16 569.99 331.16C569.054 331.16 568.19 331.388 567.398 331.844C566.606 332.3 565.958 332.972 565.454 333.86C564.974 334.724 564.734 335.756 564.734 336.956C564.734 338.156 564.974 339.212 565.454 340.124C565.958 341.012 566.606 341.696 567.398 342.176C568.214 342.656 569.078 342.896 569.99 342.896C570.926 342.896 571.802 342.668 572.618 342.212C573.434 341.732 574.082 341.06 574.562 340.196C575.042 339.308 575.282 338.252 575.282 337.028ZM610.049 326.768C612.497 326.768 614.465 327.524 615.953 329.036C617.465 330.524 618.221 332.612 618.221 335.3V347H613.181V335.984C613.181 334.424 612.785 333.236 611.993 332.42C611.201 331.58 610.121 331.16 608.753 331.16C607.385 331.16 606.293 331.58 605.477 332.42C604.685 333.236 604.289 334.424 604.289 335.984V347H599.249V335.984C599.249 334.424 598.853 333.236 598.061 332.42C597.269 331.58 596.189 331.16 594.821 331.16C593.429 331.16 592.325 331.58 591.509 332.42C590.717 333.236 590.321 334.424 590.321 335.984V347H585.281V327.056H590.321V329.468C590.969 328.628 591.797 327.968 592.805 327.488C593.837 327.008 594.965 326.768 596.189 326.768C597.749 326.768 599.141 327.104 600.365 327.776C601.589 328.424 602.537 329.36 603.209 330.584C603.857 329.432 604.793 328.508 606.017 327.812C607.265 327.116 608.609 326.768 610.049 326.768ZM628.044 329.936C628.692 329.024 629.58 328.268 630.708 327.668C631.86 327.044 633.168 326.732 634.632 326.732C636.336 326.732 637.872 327.152 639.24 327.992C640.632 328.832 641.724 330.032 642.516 331.592C643.332 333.128 643.74 334.916 643.74 336.956C643.74 338.996 643.332 340.808 642.516 342.392C641.724 343.952 640.632 345.164 639.24 346.028C637.872 346.892 636.336 347.324 634.632 347.324C633.168 347.324 631.872 347.024 630.744 346.424C629.64 345.824 628.74 345.068 628.044 344.156V356.504H623.004V327.056H628.044V329.936ZM638.592 336.956C638.592 335.756 638.34 334.724 637.836 333.86C637.356 332.972 636.708 332.3 635.892 331.844C635.1 331.388 634.236 331.16 633.3 331.16C632.388 331.16 631.524 331.4 630.708 331.88C629.916 332.336 629.268 333.008 628.764 333.896C628.284 334.784 628.044 335.828 628.044 337.028C628.044 338.228 628.284 339.272 628.764 340.16C629.268 341.048 629.916 341.732 630.708 342.212C631.524 342.668 632.388 342.896 633.3 342.896C634.236 342.896 635.1 342.656 635.892 342.176C636.708 341.696 637.356 341.012 637.836 340.124C638.34 339.236 638.592 338.18 638.592 336.956ZM649.958 324.68C649.07 324.68 648.326 324.404 647.726 323.852C647.15 323.276 646.862 322.568 646.862 321.728C646.862 320.888 647.15 320.192 647.726 319.64C648.326 319.064 649.07 318.776 649.958 318.776C650.846 318.776 651.578 319.064 652.154 319.64C652.754 320.192 653.054 320.888 653.054 321.728C653.054 322.568 652.754 323.276 652.154 323.852C651.578 324.404 650.846 324.68 649.958 324.68ZM652.442 327.056V347H647.402V327.056H652.442ZM662.462 320.36V347H657.422V320.36H662.462ZM679.249 347L672.481 338.504V347H667.441V320.36H672.481V335.516L679.177 327.056H685.729L676.945 337.064L685.801 347H679.249ZM687.168 336.956C687.168 334.94 687.564 333.152 688.356 331.592C689.172 330.032 690.264 328.832 691.632 327.992C693.024 327.152 694.572 326.732 696.276 326.732C697.764 326.732 699.06 327.032 700.164 327.632C701.292 328.232 702.192 328.988 702.864 329.9V327.056H707.94V347H702.864V344.084C702.216 345.02 701.316 345.8 700.164 346.424C699.036 347.024 697.728 347.324 696.24 347.324C694.56 347.324 693.024 346.892 691.632 346.028C690.264 345.164 689.172 343.952 688.356 342.392C687.564 340.808 687.168 338.996 687.168 336.956ZM702.864 337.028C702.864 335.804 702.624 334.76 702.144 333.896C701.664 333.008 701.016 332.336 700.2 331.88C699.384 331.4 698.508 331.16 697.572 331.16C696.636 331.16 695.772 331.388 694.98 331.844C694.188 332.3 693.54 332.972 693.036 333.86C692.556 334.724 692.316 335.756 692.316 336.956C692.316 338.156 692.556 339.212 693.036 340.124C693.54 341.012 694.188 341.696 694.98 342.176C695.796 342.656 696.66 342.896 697.572 342.896C698.508 342.896 699.384 342.668 700.2 342.212C701.016 341.732 701.664 341.06 702.144 340.196C702.624 339.308 702.864 338.252 702.864 337.028ZM723.915 326.768C726.291 326.768 728.211 327.524 729.675 329.036C731.139 330.524 731.871 332.612 731.871 335.3V347H726.831V335.984C726.831 334.4 726.435 333.188 725.643 332.348C724.851 331.484 723.771 331.052 722.403 331.052C721.011 331.052 719.907 331.484 719.091 332.348C718.299 333.188 717.903 334.4 717.903 335.984V347H712.863V327.056H717.903V329.54C718.575 328.676 719.427 328.004 720.459 327.524C721.515 327.02 722.667 326.768 723.915 326.768ZM747.798 324.68C746.886 324.68 746.13 324.404 745.53 323.852C744.954 323.276 744.666 322.568 744.666 321.728C744.666 320.888 744.954 320.192 745.53 319.64C746.13 319.064 746.886 318.776 747.798 318.776C748.686 318.776 749.418 319.064 749.994 319.64C750.57 320.192 750.858 320.888 750.858 321.728C750.858 322.568 750.57 323.276 749.994 323.852C749.418 324.404 748.686 324.68 747.798 324.68ZM750.282 350.276C750.282 352.484 749.73 354.068 748.626 355.028C747.546 356.012 745.986 356.504 743.946 356.504H741.714V352.22H743.154C743.922 352.22 744.462 352.064 744.774 351.752C745.086 351.464 745.242 350.984 745.242 350.312V327.056H750.282V350.276ZM773.801 336.596C773.801 337.316 773.753 337.964 773.657 338.54H759.077C759.197 339.98 759.701 341.108 760.589 341.924C761.477 342.74 762.569 343.148 763.865 343.148C765.737 343.148 767.069 342.344 767.861 340.736H773.297C772.721 342.656 771.617 344.24 769.985 345.488C768.353 346.712 766.349 347.324 763.973 347.324C762.053 347.324 760.325 346.904 758.789 346.064C757.277 345.2 756.089 343.988 755.225 342.428C754.385 340.868 753.965 339.068 753.965 337.028C753.965 334.964 754.385 333.152 755.225 331.592C756.065 330.032 757.241 328.832 758.753 327.992C760.265 327.152 762.005 326.732 763.973 326.732C765.869 326.732 767.561 327.14 769.049 327.956C770.561 328.772 771.725 329.936 772.541 331.448C773.381 332.936 773.801 334.652 773.801 336.596ZM768.581 335.156C768.557 333.86 768.089 332.828 767.177 332.06C766.265 331.268 765.149 330.872 763.829 330.872C762.581 330.872 761.525 331.256 760.661 332.024C759.821 332.768 759.305 333.812 759.113 335.156H768.581ZM788.532 326.768C790.908 326.768 792.828 327.524 794.292 329.036C795.756 330.524 796.488 332.612 796.488 335.3V347H791.448V335.984C791.448 334.4 791.052 333.188 790.26 332.348C789.468 331.484 788.388 331.052 787.02 331.052C785.628 331.052 784.524 331.484 783.708 332.348C782.916 333.188 782.52 334.4 782.52 335.984V347H777.48V327.056H782.52V329.54C783.192 328.676 784.044 328.004 785.076 327.524C786.132 327.02 787.284 326.768 788.532 326.768ZM799.985 336.956C799.985 334.94 800.381 333.152 801.173 331.592C801.989 330.032 803.093 328.832 804.485 327.992C805.877 327.152 807.425 326.732 809.129 326.732C810.425 326.732 811.661 327.02 812.837 327.596C814.013 328.148 814.949 328.892 815.645 329.828V320.36H820.757V347H815.645V344.048C815.021 345.032 814.145 345.824 813.017 346.424C811.889 347.024 810.581 347.324 809.093 347.324C807.413 347.324 805.877 346.892 804.485 346.028C803.093 345.164 801.989 343.952 801.173 342.392C800.381 340.808 799.985 338.996 799.985 336.956ZM815.681 337.028C815.681 335.804 815.441 334.76 814.961 333.896C814.481 333.008 813.833 332.336 813.017 331.88C812.201 331.4 811.325 331.16 810.389 331.16C809.453 331.16 808.589 331.388 807.797 331.844C807.005 332.3 806.357 332.972 805.853 333.86C805.373 334.724 805.133 335.756 805.133 336.956C805.133 338.156 805.373 339.212 805.853 340.124C806.357 341.012 807.005 341.696 807.797 342.176C808.613 342.656 809.477 342.896 810.389 342.896C811.325 342.896 812.201 342.668 813.017 342.212C813.833 341.732 814.481 341.06 814.961 340.196C815.441 339.308 815.681 338.252 815.681 337.028ZM844.219 336.596C844.219 337.316 844.171 337.964 844.075 338.54H829.495C829.615 339.98 830.119 341.108 831.007 341.924C831.895 342.74 832.987 343.148 834.283 343.148C836.155 343.148 837.487 342.344 838.279 340.736H843.715C843.139 342.656 842.035 344.24 840.403 345.488C838.771 346.712 836.767 347.324 834.391 347.324C832.471 347.324 830.743 346.904 829.207 346.064C827.695 345.2 826.507 343.988 825.643 342.428C824.803 340.868 824.383 339.068 824.383 337.028C824.383 334.964 824.803 333.152 825.643 331.592C826.483 330.032 827.659 328.832 829.171 327.992C830.683 327.152 832.423 326.732 834.391 326.732C836.287 326.732 837.979 327.14 839.467 327.956C840.979 328.772 842.143 329.936 842.959 331.448C843.799 332.936 844.219 334.652 844.219 336.596ZM838.999 335.156C838.975 333.86 838.507 332.828 837.595 332.06C836.683 331.268 835.567 330.872 834.247 330.872C832.999 330.872 831.943 331.256 831.079 332.024C830.239 332.768 829.723 333.812 829.531 335.156H838.999ZM852.938 320.36V347H847.898V320.36H852.938ZM856.622 336.956C856.622 334.94 857.018 333.152 857.81 331.592C858.626 330.032 859.718 328.832 861.086 327.992C862.478 327.152 864.026 326.732 865.73 326.732C867.218 326.732 868.514 327.032 869.618 327.632C870.746 328.232 871.646 328.988 872.318 329.9V327.056H877.394V347H872.318V344.084C871.67 345.02 870.77 345.8 869.618 346.424C868.49 347.024 867.182 347.324 865.694 347.324C864.014 347.324 862.478 346.892 861.086 346.028C859.718 345.164 858.626 343.952 857.81 342.392C857.018 340.808 856.622 338.996 856.622 336.956ZM872.318 337.028C872.318 335.804 872.078 334.76 871.598 333.896C871.118 333.008 870.47 332.336 869.654 331.88C868.838 331.4 867.962 331.16 867.026 331.16C866.09 331.16 865.226 331.388 864.434 331.844C863.642 332.3 862.994 332.972 862.49 333.86C862.01 334.724 861.77 335.756 861.77 336.956C861.77 338.156 862.01 339.212 862.49 340.124C862.994 341.012 863.642 341.696 864.434 342.176C865.25 342.656 866.114 342.896 867.026 342.896C867.962 342.896 868.838 342.668 869.654 342.212C870.47 341.732 871.118 341.06 871.598 340.196C872.078 339.308 872.318 338.252 872.318 337.028ZM889.598 336.956C889.598 334.94 889.994 333.152 890.786 331.592C891.602 330.032 892.706 328.832 894.098 327.992C895.49 327.152 897.038 326.732 898.742 326.732C900.038 326.732 901.274 327.02 902.45 327.596C903.626 328.148 904.562 328.892 905.258 329.828V320.36H910.37V347H905.258V344.048C904.634 345.032 903.758 345.824 902.63 346.424C901.502 347.024 900.194 347.324 898.706 347.324C897.026 347.324 895.49 346.892 894.098 346.028C892.706 345.164 891.602 343.952 890.786 342.392C889.994 340.808 889.598 338.996 889.598 336.956ZM905.294 337.028C905.294 335.804 905.054 334.76 904.574 333.896C904.094 333.008 903.446 332.336 902.63 331.88C901.814 331.4 900.938 331.16 900.002 331.16C899.066 331.16 898.202 331.388 897.41 331.844C896.618 332.3 895.97 332.972 895.466 333.86C894.986 334.724 894.746 335.756 894.746 336.956C894.746 338.156 894.986 339.212 895.466 340.124C895.97 341.012 896.618 341.696 897.41 342.176C898.226 342.656 899.09 342.896 900.002 342.896C900.938 342.896 901.814 342.668 902.63 342.212C903.446 341.732 904.094 341.06 904.574 340.196C905.054 339.308 905.294 338.252 905.294 337.028ZM934.121 327.056V347H929.045V344.48C928.397 345.344 927.545 346.028 926.489 346.532C925.457 347.012 924.329 347.252 923.105 347.252C921.545 347.252 920.165 346.928 918.965 346.28C917.765 345.608 916.817 344.636 916.121 343.364C915.449 342.068 915.113 340.532 915.113 338.756V327.056H920.153V338.036C920.153 339.62 920.549 340.844 921.341 341.708C922.133 342.548 923.213 342.968 924.581 342.968C925.973 342.968 927.065 342.548 927.857 341.708C928.649 340.844 929.045 339.62 929.045 338.036V327.056H934.121ZM950.145 326.768C952.521 326.768 954.441 327.524 955.905 329.036C957.369 330.524 958.101 332.612 958.101 335.3V347H953.061V335.984C953.061 334.4 952.665 333.188 951.873 332.348C951.081 331.484 950.001 331.052 948.633 331.052C947.241 331.052 946.137 331.484 945.321 332.348C944.529 333.188 944.133 334.4 944.133 335.984V347H939.093V327.056H944.133V329.54C944.805 328.676 945.657 328.004 946.689 327.524C947.745 327.02 948.897 326.768 950.145 326.768ZM965.45 324.68C964.562 324.68 963.818 324.404 963.218 323.852C962.642 323.276 962.354 322.568 962.354 321.728C962.354 320.888 962.642 320.192 963.218 319.64C963.818 319.064 964.562 318.776 965.45 318.776C966.338 318.776 967.07 319.064 967.646 319.64C968.246 320.192 968.546 320.888 968.546 321.728C968.546 322.568 968.246 323.276 967.646 323.852C967.07 324.404 966.338 324.68 965.45 324.68ZM967.934 327.056V347H962.894V327.056H967.934ZM971.618 336.956C971.618 334.94 972.014 333.152 972.806 331.592C973.622 330.032 974.714 328.832 976.082 327.992C977.474 327.152 979.022 326.732 980.726 326.732C982.214 326.732 983.51 327.032 984.614 327.632C985.742 328.232 986.642 328.988 987.314 329.9V327.056H992.39V347H987.314V344.084C986.666 345.02 985.766 345.8 984.614 346.424C983.486 347.024 982.178 347.324 980.69 347.324C979.01 347.324 977.474 346.892 976.082 346.028C974.714 345.164 973.622 343.952 972.806 342.392C972.014 340.808 971.618 338.996 971.618 336.956ZM987.314 337.028C987.314 335.804 987.074 334.76 986.594 333.896C986.114 333.008 985.466 332.336 984.65 331.88C983.834 331.4 982.958 331.16 982.022 331.16C981.086 331.16 980.222 331.388 979.43 331.844C978.638 332.3 977.99 332.972 977.486 333.86C977.006 334.724 976.766 335.756 976.766 336.956C976.766 338.156 977.006 339.212 977.486 340.124C977.99 341.012 978.638 341.696 979.43 342.176C980.246 342.656 981.11 342.896 982.022 342.896C982.958 342.896 983.834 342.668 984.65 342.212C985.466 341.732 986.114 341.06 986.594 340.196C987.074 339.308 987.314 338.252 987.314 337.028Z" fill="#FFBA17"/>
</svg>
