<svg width="1440" height="650" viewBox="0 0 1440 650" fill="none" xmlns="http://www.w3.org/2000/svg">
<rect width="1440" height="650" fill="black"/>
<path d="M235.98 433.432C235.404 432.376 234.612 431.572 233.604 431.02C232.596 430.468 231.42 430.192 230.076 430.192C228.588 430.192 227.268 430.528 226.116 431.2C224.964 431.872 224.064 432.832 223.416 434.08C222.768 435.328 222.444 436.768 222.444 438.4C222.444 440.08 222.768 441.544 223.416 442.792C224.088 444.04 225.012 445 226.188 445.672C227.364 446.344 228.732 446.68 230.292 446.68C232.212 446.68 233.784 446.176 235.008 445.168C236.232 444.136 237.036 442.708 237.42 440.884H228.78V437.032H242.388V441.424C242.052 443.176 241.332 444.796 240.228 446.284C239.124 447.772 237.696 448.972 235.944 449.884C234.216 450.772 232.272 451.216 230.112 451.216C227.688 451.216 225.492 450.676 223.524 449.596C221.58 448.492 220.044 446.968 218.916 445.024C217.812 443.08 217.26 440.872 217.26 438.4C217.26 435.928 217.812 433.72 218.916 431.776C220.044 429.808 221.58 428.284 223.524 427.204C225.492 426.1 227.676 425.548 230.076 425.548C232.908 425.548 235.368 426.244 237.456 427.636C239.544 429.004 240.984 430.936 241.776 433.432H235.98ZM254.973 451.324C253.053 451.324 251.325 450.904 249.789 450.064C248.253 449.2 247.041 447.988 246.153 446.428C245.289 444.868 244.857 443.068 244.857 441.028C244.857 438.988 245.301 437.188 246.189 435.628C247.101 434.068 248.337 432.868 249.897 432.028C251.457 431.164 253.197 430.732 255.117 430.732C257.037 430.732 258.777 431.164 260.337 432.028C261.897 432.868 263.121 434.068 264.009 435.628C264.921 437.188 265.377 438.988 265.377 441.028C265.377 443.068 264.909 444.868 263.973 446.428C263.061 447.988 261.813 449.2 260.229 450.064C258.669 450.904 256.917 451.324 254.973 451.324ZM254.973 446.932C255.885 446.932 256.737 446.716 257.529 446.284C258.345 445.828 258.993 445.156 259.473 444.268C259.953 443.38 260.193 442.3 260.193 441.028C260.193 439.132 259.689 437.68 258.681 436.672C257.697 435.64 256.485 435.124 255.045 435.124C253.605 435.124 252.393 435.64 251.409 436.672C250.449 437.68 249.969 439.132 249.969 441.028C249.969 442.924 250.437 444.388 251.373 445.42C252.333 446.428 253.533 446.932 254.973 446.932ZM274.114 447.004H282.394V451H269.074V425.872H274.114V447.004ZM288.153 428.68C287.265 428.68 286.521 428.404 285.921 427.852C285.345 427.276 285.057 426.568 285.057 425.728C285.057 424.888 285.345 424.192 285.921 423.64C286.521 423.064 287.265 422.776 288.153 422.776C289.041 422.776 289.773 423.064 290.349 423.64C290.949 424.192 291.249 424.888 291.249 425.728C291.249 426.568 290.949 427.276 290.349 427.852C289.773 428.404 289.041 428.68 288.153 428.68ZM290.637 431.056V451H285.597V431.056H290.637ZM301.485 435.196V444.844C301.485 445.516 301.641 446.008 301.953 446.32C302.289 446.608 302.841 446.752 303.609 446.752H305.949V451H302.781C298.533 451 296.409 448.936 296.409 444.808V435.196H294.033V431.056H296.409V426.124H301.485V431.056H305.949V435.196H301.485ZM328.114 440.596C328.114 441.316 328.066 441.964 327.97 442.54H313.39C313.51 443.98 314.014 445.108 314.902 445.924C315.79 446.74 316.882 447.148 318.178 447.148C320.05 447.148 321.382 446.344 322.174 444.736H327.61C327.034 446.656 325.93 448.24 324.298 449.488C322.666 450.712 320.662 451.324 318.286 451.324C316.366 451.324 314.638 450.904 313.102 450.064C311.59 449.2 310.402 447.988 309.538 446.428C308.698 444.868 308.278 443.068 308.278 441.028C308.278 438.964 308.698 437.152 309.538 435.592C310.378 434.032 311.554 432.832 313.066 431.992C314.578 431.152 316.318 430.732 318.286 430.732C320.182 430.732 321.874 431.14 323.362 431.956C324.874 432.772 326.038 433.936 326.854 435.448C327.694 436.936 328.114 438.652 328.114 440.596ZM322.894 439.156C322.87 437.86 322.402 436.828 321.49 436.06C320.578 435.268 319.462 434.872 318.142 434.872C316.894 434.872 315.838 435.256 314.974 436.024C314.134 436.768 313.618 437.812 313.426 439.156H322.894ZM365.139 430.768C367.587 430.768 369.555 431.524 371.043 433.036C372.555 434.524 373.311 436.612 373.311 439.3V451H368.271V439.984C368.271 438.424 367.875 437.236 367.083 436.42C366.291 435.58 365.211 435.16 363.843 435.16C362.475 435.16 361.383 435.58 360.567 436.42C359.775 437.236 359.379 438.424 359.379 439.984V451H354.339V439.984C354.339 438.424 353.943 437.236 353.151 436.42C352.359 435.58 351.279 435.16 349.911 435.16C348.519 435.16 347.415 435.58 346.599 436.42C345.807 437.236 345.411 438.424 345.411 439.984V451H340.371V431.056H345.411V433.468C346.059 432.628 346.887 431.968 347.895 431.488C348.927 431.008 350.055 430.768 351.279 430.768C352.839 430.768 354.231 431.104 355.455 431.776C356.679 432.424 357.627 433.36 358.299 434.584C358.947 433.432 359.883 432.508 361.107 431.812C362.355 431.116 363.699 430.768 365.139 430.768ZM396.633 440.596C396.633 441.316 396.585 441.964 396.489 442.54H381.909C382.029 443.98 382.533 445.108 383.421 445.924C384.309 446.74 385.401 447.148 386.697 447.148C388.569 447.148 389.901 446.344 390.693 444.736H396.129C395.553 446.656 394.449 448.24 392.817 449.488C391.185 450.712 389.181 451.324 386.805 451.324C384.885 451.324 383.157 450.904 381.621 450.064C380.109 449.2 378.921 447.988 378.057 446.428C377.217 444.868 376.797 443.068 376.797 441.028C376.797 438.964 377.217 437.152 378.057 435.592C378.897 434.032 380.073 432.832 381.585 431.992C383.097 431.152 384.837 430.732 386.805 430.732C388.701 430.732 390.393 431.14 391.881 431.956C393.393 432.772 394.557 433.936 395.373 435.448C396.213 436.936 396.633 438.652 396.633 440.596ZM391.413 439.156C391.389 437.86 390.921 436.828 390.009 436.06C389.097 435.268 387.981 434.872 386.661 434.872C385.413 434.872 384.357 435.256 383.493 436.024C382.653 436.768 382.137 437.812 381.945 439.156H391.413ZM425.08 430.768C427.528 430.768 429.496 431.524 430.984 433.036C432.496 434.524 433.252 436.612 433.252 439.3V451H428.212V439.984C428.212 438.424 427.816 437.236 427.024 436.42C426.232 435.58 425.152 435.16 423.784 435.16C422.416 435.16 421.324 435.58 420.508 436.42C419.716 437.236 419.32 438.424 419.32 439.984V451H414.28V439.984C414.28 438.424 413.884 437.236 413.092 436.42C412.3 435.58 411.22 435.16 409.852 435.16C408.46 435.16 407.356 435.58 406.54 436.42C405.748 437.236 405.352 438.424 405.352 439.984V451H400.312V431.056H405.352V433.468C406 432.628 406.828 431.968 407.836 431.488C408.868 431.008 409.996 430.768 411.22 430.768C412.78 430.768 414.172 431.104 415.396 431.776C416.62 432.424 417.568 433.36 418.24 434.584C418.888 433.432 419.824 432.508 421.048 431.812C422.296 431.116 423.64 430.768 425.08 430.768ZM443.075 433.936C443.723 433.024 444.611 432.268 445.739 431.668C446.891 431.044 448.199 430.732 449.663 430.732C451.367 430.732 452.903 431.152 454.271 431.992C455.663 432.832 456.755 434.032 457.547 435.592C458.363 437.128 458.771 438.916 458.771 440.956C458.771 442.996 458.363 444.808 457.547 446.392C456.755 447.952 455.663 449.164 454.271 450.028C452.903 450.892 451.367 451.324 449.663 451.324C448.199 451.324 446.903 451.024 445.775 450.424C444.671 449.824 443.771 449.068 443.075 448.156V460.504H438.035V431.056H443.075V433.936ZM453.623 440.956C453.623 439.756 453.371 438.724 452.867 437.86C452.387 436.972 451.739 436.3 450.923 435.844C450.131 435.388 449.267 435.16 448.331 435.16C447.419 435.16 446.555 435.4 445.739 435.88C444.947 436.336 444.299 437.008 443.795 437.896C443.315 438.784 443.075 439.828 443.075 441.028C443.075 442.228 443.315 443.272 443.795 444.16C444.299 445.048 444.947 445.732 445.739 446.212C446.555 446.668 447.419 446.896 448.331 446.896C449.267 446.896 450.131 446.656 450.923 446.176C451.739 445.696 452.387 445.012 452.867 444.124C453.371 443.236 453.623 442.18 453.623 440.956ZM481.261 431.056V451H476.185V448.48C475.537 449.344 474.685 450.028 473.629 450.532C472.597 451.012 471.469 451.252 470.245 451.252C468.685 451.252 467.305 450.928 466.105 450.28C464.905 449.608 463.957 448.636 463.261 447.364C462.589 446.068 462.253 444.532 462.253 442.756V431.056H467.293V442.036C467.293 443.62 467.689 444.844 468.481 445.708C469.273 446.548 470.353 446.968 471.721 446.968C473.113 446.968 474.205 446.548 474.997 445.708C475.789 444.844 476.185 443.62 476.185 442.036V431.056H481.261ZM497.286 430.768C499.662 430.768 501.582 431.524 503.046 433.036C504.51 434.524 505.242 436.612 505.242 439.3V451H500.202V439.984C500.202 438.4 499.806 437.188 499.014 436.348C498.222 435.484 497.142 435.052 495.774 435.052C494.382 435.052 493.278 435.484 492.462 436.348C491.67 437.188 491.274 438.4 491.274 439.984V451H486.234V431.056H491.274V433.54C491.946 432.676 492.798 432.004 493.83 431.524C494.886 431.02 496.038 430.768 497.286 430.768ZM529.115 431.056L516.767 460.432H511.403L515.723 450.496L507.731 431.056H513.383L518.531 444.988L523.751 431.056H529.115ZM530.536 440.956C530.536 438.94 530.932 437.152 531.724 435.592C532.54 434.032 533.632 432.832 535 431.992C536.392 431.152 537.94 430.732 539.644 430.732C541.132 430.732 542.428 431.032 543.532 431.632C544.66 432.232 545.56 432.988 546.232 433.9V431.056H551.308V451H546.232V448.084C545.584 449.02 544.684 449.8 543.532 450.424C542.404 451.024 541.096 451.324 539.608 451.324C537.928 451.324 536.392 450.892 535 450.028C533.632 449.164 532.54 447.952 531.724 446.392C530.932 444.808 530.536 442.996 530.536 440.956ZM546.232 441.028C546.232 439.804 545.992 438.76 545.512 437.896C545.032 437.008 544.384 436.336 543.568 435.88C542.752 435.4 541.876 435.16 540.94 435.16C540.004 435.16 539.14 435.388 538.348 435.844C537.556 436.3 536.908 436.972 536.404 437.86C535.924 438.724 535.684 439.756 535.684 440.956C535.684 442.156 535.924 443.212 536.404 444.124C536.908 445.012 537.556 445.696 538.348 446.176C539.164 446.656 540.028 446.896 540.94 446.896C541.876 446.896 542.752 446.668 543.568 446.212C544.384 445.732 545.032 445.06 545.512 444.196C545.992 443.308 546.232 442.252 546.232 441.028ZM558.786 428.68C557.898 428.68 557.154 428.404 556.554 427.852C555.978 427.276 555.69 426.568 555.69 425.728C555.69 424.888 555.978 424.192 556.554 423.64C557.154 423.064 557.898 422.776 558.786 422.776C559.674 422.776 560.406 423.064 560.982 423.64C561.582 424.192 561.882 424.888 561.882 425.728C561.882 426.568 561.582 427.276 560.982 427.852C560.406 428.404 559.674 428.68 558.786 428.68ZM561.27 431.056V451H556.23V431.056H561.27ZM583.972 435.196H580.48V451H575.368V435.196H573.1V431.056H575.368V430.048C575.368 427.6 576.064 425.8 577.456 424.648C578.848 423.496 580.948 422.956 583.756 423.028V427.276C582.532 427.252 581.68 427.456 581.2 427.888C580.72 428.32 580.48 429.1 580.48 430.228V431.056H583.972V435.196ZM589.794 428.68C588.906 428.68 588.162 428.404 587.562 427.852C586.986 427.276 586.698 426.568 586.698 425.728C586.698 424.888 586.986 424.192 587.562 423.64C588.162 423.064 588.906 422.776 589.794 422.776C590.682 422.776 591.414 423.064 591.99 423.64C592.59 424.192 592.89 424.888 592.89 425.728C592.89 426.568 592.59 427.276 591.99 427.852C591.414 428.404 590.682 428.68 589.794 428.68ZM592.278 431.056V451H587.238V431.056H592.278ZM603.125 435.196V444.844C603.125 445.516 603.281 446.008 603.593 446.32C603.929 446.608 604.481 446.752 605.249 446.752H607.589V451H604.421C600.173 451 598.049 448.936 598.049 444.808V435.196H595.673V431.056H598.049V426.124H603.125V431.056H607.589V435.196H603.125ZM630.042 431.056V451H624.966V448.48C624.318 449.344 623.466 450.028 622.41 450.532C621.378 451.012 620.25 451.252 619.026 451.252C617.466 451.252 616.086 450.928 614.886 450.28C613.686 449.608 612.738 448.636 612.042 447.364C611.37 446.068 611.034 444.532 611.034 442.756V431.056H616.074V442.036C616.074 443.62 616.47 444.844 617.262 445.708C618.054 446.548 619.134 446.968 620.502 446.968C621.894 446.968 622.986 446.548 623.778 445.708C624.57 444.844 624.966 443.62 624.966 442.036V431.056H630.042ZM640.055 434.152C640.703 433.096 641.543 432.268 642.575 431.668C643.631 431.068 644.831 430.768 646.175 430.768V436.06H644.843C643.259 436.06 642.059 436.432 641.243 437.176C640.451 437.92 640.055 439.216 640.055 441.064V451H635.015V431.056H640.055V434.152ZM656.852 441.028C656.852 438.964 657.272 437.164 658.112 435.628C658.952 434.068 660.116 432.868 661.604 432.028C663.092 431.164 664.796 430.732 666.716 430.732C669.188 430.732 671.228 431.356 672.836 432.604C674.468 433.828 675.56 435.556 676.112 437.788H670.676C670.388 436.924 669.896 436.252 669.2 435.772C668.528 435.268 667.688 435.016 666.68 435.016C665.24 435.016 664.1 435.544 663.26 436.6C662.42 437.632 662 439.108 662 441.028C662 442.924 662.42 444.4 663.26 445.456C664.1 446.488 665.24 447.004 666.68 447.004C668.72 447.004 670.052 446.092 670.676 444.268H676.112C675.56 446.428 674.468 448.144 672.836 449.416C671.204 450.688 669.164 451.324 666.716 451.324C664.796 451.324 663.092 450.904 661.604 450.064C660.116 449.2 658.952 448 658.112 446.464C657.272 444.904 656.852 443.092 656.852 441.028ZM691.036 430.768C692.548 430.768 693.892 431.104 695.068 431.776C696.244 432.424 697.156 433.396 697.804 434.692C698.476 435.964 698.812 437.5 698.812 439.3V451H693.772V439.984C693.772 438.4 693.376 437.188 692.584 436.348C691.792 435.484 690.712 435.052 689.344 435.052C687.952 435.052 686.848 435.484 686.032 436.348C685.24 437.188 684.844 438.4 684.844 439.984V451H679.804V424.36H684.844V433.54C685.492 432.676 686.356 432.004 687.436 431.524C688.516 431.02 689.716 430.768 691.036 430.768ZM702.309 440.956C702.309 438.94 702.705 437.152 703.497 435.592C704.313 434.032 705.405 432.832 706.773 431.992C708.165 431.152 709.713 430.732 711.417 430.732C712.905 430.732 714.201 431.032 715.305 431.632C716.433 432.232 717.333 432.988 718.005 433.9V431.056H723.081V451H718.005V448.084C717.357 449.02 716.457 449.8 715.305 450.424C714.177 451.024 712.869 451.324 711.381 451.324C709.701 451.324 708.165 450.892 706.773 450.028C705.405 449.164 704.313 447.952 703.497 446.392C702.705 444.808 702.309 442.996 702.309 440.956ZM718.005 441.028C718.005 439.804 717.765 438.76 717.285 437.896C716.805 437.008 716.157 436.336 715.341 435.88C714.525 435.4 713.649 435.16 712.713 435.16C711.777 435.16 710.913 435.388 710.121 435.844C709.329 436.3 708.681 436.972 708.177 437.86C707.697 438.724 707.457 439.756 707.457 440.956C707.457 442.156 707.697 443.212 708.177 444.124C708.681 445.012 709.329 445.696 710.121 446.176C710.937 446.656 711.801 446.896 712.713 446.896C713.649 446.896 714.525 446.668 715.341 446.212C716.157 445.732 716.805 445.06 717.285 444.196C717.765 443.308 718.005 442.252 718.005 441.028ZM733.044 424.36V451H728.004V424.36H733.044ZM743.063 424.36V451H738.023V424.36H743.063ZM766.583 440.596C766.583 441.316 766.535 441.964 766.439 442.54H751.859C751.979 443.98 752.483 445.108 753.371 445.924C754.259 446.74 755.351 447.148 756.647 447.148C758.519 447.148 759.851 446.344 760.643 444.736H766.079C765.503 446.656 764.399 448.24 762.767 449.488C761.135 450.712 759.131 451.324 756.755 451.324C754.835 451.324 753.107 450.904 751.571 450.064C750.059 449.2 748.871 447.988 748.007 446.428C747.167 444.868 746.747 443.068 746.747 441.028C746.747 438.964 747.167 437.152 748.007 435.592C748.847 434.032 750.023 432.832 751.535 431.992C753.047 431.152 754.787 430.732 756.755 430.732C758.651 430.732 760.343 431.14 761.831 431.956C763.343 432.772 764.507 433.936 765.323 435.448C766.163 436.936 766.583 438.652 766.583 440.596ZM761.363 439.156C761.339 437.86 760.871 436.828 759.959 436.06C759.047 435.268 757.931 434.872 756.611 434.872C755.363 434.872 754.307 435.256 753.443 436.024C752.603 436.768 752.087 437.812 751.895 439.156H761.363ZM781.313 430.768C783.689 430.768 785.609 431.524 787.073 433.036C788.537 434.524 789.269 436.612 789.269 439.3V451H784.229V439.984C784.229 438.4 783.833 437.188 783.041 436.348C782.249 435.484 781.169 435.052 779.801 435.052C778.409 435.052 777.305 435.484 776.489 436.348C775.697 437.188 775.301 438.4 775.301 439.984V451H770.261V431.056H775.301V433.54C775.973 432.676 776.825 432.004 777.857 431.524C778.913 431.02 780.065 430.768 781.313 430.768ZM801.874 430.732C803.362 430.732 804.67 431.032 805.798 431.632C806.926 432.208 807.814 432.964 808.462 433.9V431.056H813.538V451.144C813.538 452.992 813.166 454.636 812.422 456.076C811.678 457.54 810.562 458.692 809.074 459.532C807.586 460.396 805.786 460.828 803.674 460.828C800.842 460.828 798.514 460.168 796.69 458.848C794.89 457.528 793.87 455.728 793.63 453.448H798.634C798.898 454.36 799.462 455.08 800.326 455.608C801.214 456.16 802.282 456.436 803.53 456.436C804.994 456.436 806.182 455.992 807.094 455.104C808.006 454.24 808.462 452.92 808.462 451.144V448.048C807.814 448.984 806.914 449.764 805.762 450.388C804.634 451.012 803.338 451.324 801.874 451.324C800.194 451.324 798.658 450.892 797.266 450.028C795.874 449.164 794.77 447.952 793.954 446.392C793.162 444.808 792.766 442.996 792.766 440.956C792.766 438.94 793.162 437.152 793.954 435.592C794.77 434.032 795.862 432.832 797.23 431.992C798.622 431.152 800.17 430.732 801.874 430.732ZM808.462 441.028C808.462 439.804 808.222 438.76 807.742 437.896C807.262 437.008 806.614 436.336 805.798 435.88C804.982 435.4 804.106 435.16 803.17 435.16C802.234 435.16 801.37 435.388 800.578 435.844C799.786 436.3 799.138 436.972 798.634 437.86C798.154 438.724 797.914 439.756 797.914 440.956C797.914 442.156 798.154 443.212 798.634 444.124C799.138 445.012 799.786 445.696 800.578 446.176C801.394 446.656 802.258 446.896 803.17 446.896C804.106 446.896 804.982 446.668 805.798 446.212C806.614 445.732 807.262 445.06 807.742 444.196C808.222 443.308 808.462 442.252 808.462 441.028ZM837.001 440.596C837.001 441.316 836.953 441.964 836.857 442.54H822.277C822.397 443.98 822.901 445.108 823.789 445.924C824.677 446.74 825.769 447.148 827.065 447.148C828.937 447.148 830.269 446.344 831.061 444.736H836.497C835.921 446.656 834.817 448.24 833.185 449.488C831.553 450.712 829.549 451.324 827.173 451.324C825.253 451.324 823.525 450.904 821.989 450.064C820.477 449.2 819.289 447.988 818.425 446.428C817.585 444.868 817.165 443.068 817.165 441.028C817.165 438.964 817.585 437.152 818.425 435.592C819.265 434.032 820.441 432.832 821.953 431.992C823.465 431.152 825.205 430.732 827.173 430.732C829.069 430.732 830.761 431.14 832.249 431.956C833.761 432.772 834.925 433.936 835.741 435.448C836.581 436.936 837.001 438.652 837.001 440.596ZM831.781 439.156C831.757 437.86 831.289 436.828 830.377 436.06C829.465 435.268 828.349 434.872 827.029 434.872C825.781 434.872 824.725 435.256 823.861 436.024C823.021 436.768 822.505 437.812 822.313 439.156H831.781ZM868.337 431.056L855.989 460.432H850.625L854.945 450.496L846.953 431.056H852.605L857.753 444.988L862.973 431.056H868.337ZM869.758 440.956C869.758 438.94 870.154 437.152 870.946 435.592C871.762 434.032 872.854 432.832 874.222 431.992C875.614 431.152 877.162 430.732 878.866 430.732C880.354 430.732 881.65 431.032 882.754 431.632C883.882 432.232 884.782 432.988 885.454 433.9V431.056H890.53V451H885.454V448.084C884.806 449.02 883.906 449.8 882.754 450.424C881.626 451.024 880.318 451.324 878.83 451.324C877.15 451.324 875.614 450.892 874.222 450.028C872.854 449.164 871.762 447.952 870.946 446.392C870.154 444.808 869.758 442.996 869.758 440.956ZM885.454 441.028C885.454 439.804 885.214 438.76 884.734 437.896C884.254 437.008 883.606 436.336 882.79 435.88C881.974 435.4 881.098 435.16 880.162 435.16C879.226 435.16 878.362 435.388 877.57 435.844C876.778 436.3 876.13 436.972 875.626 437.86C875.146 438.724 874.906 439.756 874.906 440.956C874.906 442.156 875.146 443.212 875.626 444.124C876.13 445.012 876.778 445.696 877.57 446.176C878.386 446.656 879.25 446.896 880.162 446.896C881.098 446.896 881.974 446.668 882.79 446.212C883.606 445.732 884.254 445.06 884.734 444.196C885.214 443.308 885.454 442.252 885.454 441.028ZM906.505 430.768C908.881 430.768 910.801 431.524 912.265 433.036C913.729 434.524 914.461 436.612 914.461 439.3V451H909.421V439.984C909.421 438.4 909.025 437.188 908.233 436.348C907.441 435.484 906.361 435.052 904.993 435.052C903.601 435.052 902.497 435.484 901.681 436.348C900.889 437.188 900.493 438.4 900.493 439.984V451H895.453V431.056H900.493V433.54C901.165 432.676 902.017 432.004 903.049 431.524C904.105 431.02 905.257 430.768 906.505 430.768ZM927.066 430.732C928.554 430.732 929.862 431.032 930.99 431.632C932.118 432.208 933.006 432.964 933.654 433.9V431.056H938.73V451.144C938.73 452.992 938.358 454.636 937.614 456.076C936.87 457.54 935.754 458.692 934.266 459.532C932.778 460.396 930.978 460.828 928.866 460.828C926.034 460.828 923.706 460.168 921.882 458.848C920.082 457.528 919.062 455.728 918.822 453.448H923.826C924.09 454.36 924.654 455.08 925.518 455.608C926.406 456.16 927.474 456.436 928.722 456.436C930.186 456.436 931.374 455.992 932.286 455.104C933.198 454.24 933.654 452.92 933.654 451.144V448.048C933.006 448.984 932.106 449.764 930.954 450.388C929.826 451.012 928.53 451.324 927.066 451.324C925.386 451.324 923.85 450.892 922.458 450.028C921.066 449.164 919.962 447.952 919.146 446.392C918.354 444.808 917.958 442.996 917.958 440.956C917.958 438.94 918.354 437.152 919.146 435.592C919.962 434.032 921.054 432.832 922.422 431.992C923.814 431.152 925.362 430.732 927.066 430.732ZM933.654 441.028C933.654 439.804 933.414 438.76 932.934 437.896C932.454 437.008 931.806 436.336 930.99 435.88C930.174 435.4 929.298 435.16 928.362 435.16C927.426 435.16 926.562 435.388 925.77 435.844C924.978 436.3 924.33 436.972 923.826 437.86C923.346 438.724 923.106 439.756 923.106 440.956C923.106 442.156 923.346 443.212 923.826 444.124C924.33 445.012 924.978 445.696 925.77 446.176C926.586 446.656 927.45 446.896 928.362 446.896C929.298 446.896 930.174 446.668 930.99 446.212C931.806 445.732 932.454 445.06 932.934 444.196C933.414 443.308 933.654 442.252 933.654 441.028ZM957.27 433.972C957.918 433.012 958.806 432.232 959.934 431.632C961.086 431.032 962.394 430.732 963.858 430.732C965.562 430.732 967.098 431.152 968.466 431.992C969.858 432.832 970.95 434.032 971.742 435.592C972.558 437.128 972.966 438.916 972.966 440.956C972.966 442.996 972.558 444.808 971.742 446.392C970.95 447.952 969.858 449.164 968.466 450.028C967.098 450.892 965.562 451.324 963.858 451.324C962.37 451.324 961.062 451.036 959.934 450.46C958.83 449.86 957.942 449.092 957.27 448.156V451H952.23V424.36H957.27V433.972ZM967.818 440.956C967.818 439.756 967.566 438.724 967.062 437.86C966.582 436.972 965.934 436.3 965.118 435.844C964.326 435.388 963.462 435.16 962.526 435.16C961.614 435.16 960.75 435.4 959.934 435.88C959.142 436.336 958.494 437.008 957.99 437.896C957.51 438.784 957.27 439.828 957.27 441.028C957.27 442.228 957.51 443.272 957.99 444.16C958.494 445.048 959.142 445.732 959.934 446.212C960.75 446.668 961.614 446.896 962.526 446.896C963.462 446.896 964.326 446.656 965.118 446.176C965.934 445.696 966.582 445.012 967.062 444.124C967.566 443.236 967.818 442.18 967.818 440.956ZM995.169 440.596C995.169 441.316 995.121 441.964 995.025 442.54H980.445C980.565 443.98 981.069 445.108 981.957 445.924C982.845 446.74 983.937 447.148 985.233 447.148C987.105 447.148 988.437 446.344 989.229 444.736H994.665C994.089 446.656 992.985 448.24 991.353 449.488C989.721 450.712 987.717 451.324 985.341 451.324C983.421 451.324 981.693 450.904 980.157 450.064C978.645 449.2 977.457 447.988 976.593 446.428C975.753 444.868 975.333 443.068 975.333 441.028C975.333 438.964 975.753 437.152 976.593 435.592C977.433 434.032 978.609 432.832 980.121 431.992C981.633 431.152 983.373 430.732 985.341 430.732C987.237 430.732 988.929 431.14 990.417 431.956C991.929 432.772 993.093 433.936 993.909 435.448C994.749 436.936 995.169 438.652 995.169 440.596ZM989.949 439.156C989.925 437.86 989.457 436.828 988.545 436.06C987.633 435.268 986.517 434.872 985.197 434.872C983.949 434.872 982.893 435.256 982.029 436.024C981.189 436.768 980.673 437.812 980.481 439.156H989.949ZM1003.89 434.152C1004.54 433.096 1005.38 432.268 1006.41 431.668C1007.46 431.068 1008.66 430.768 1010.01 430.768V436.06H1008.68C1007.09 436.06 1005.89 436.432 1005.08 437.176C1004.28 437.92 1003.89 439.216 1003.89 441.064V451H998.847V431.056H1003.89V434.152ZM1021.21 430.732C1022.7 430.732 1024.01 431.032 1025.14 431.632C1026.27 432.208 1027.15 432.964 1027.8 433.9V431.056H1032.88V451.144C1032.88 452.992 1032.51 454.636 1031.76 456.076C1031.02 457.54 1029.9 458.692 1028.41 459.532C1026.93 460.396 1025.13 460.828 1023.01 460.828C1020.18 460.828 1017.85 460.168 1016.03 458.848C1014.23 457.528 1013.21 455.728 1012.97 453.448H1017.97C1018.24 454.36 1018.8 455.08 1019.67 455.608C1020.55 456.16 1021.62 456.436 1022.87 456.436C1024.33 456.436 1025.52 455.992 1026.43 455.104C1027.35 454.24 1027.8 452.92 1027.8 451.144V448.048C1027.15 448.984 1026.25 449.764 1025.1 450.388C1023.97 451.012 1022.68 451.324 1021.21 451.324C1019.53 451.324 1018 450.892 1016.61 450.028C1015.21 449.164 1014.11 447.952 1013.29 446.392C1012.5 444.808 1012.11 442.996 1012.11 440.956C1012.11 438.94 1012.5 437.152 1013.29 435.592C1014.11 434.032 1015.2 432.832 1016.57 431.992C1017.96 431.152 1019.51 430.732 1021.21 430.732ZM1027.8 441.028C1027.8 439.804 1027.56 438.76 1027.08 437.896C1026.6 437.008 1025.95 436.336 1025.14 435.88C1024.32 435.4 1023.45 435.16 1022.51 435.16C1021.57 435.16 1020.71 435.388 1019.92 435.844C1019.13 436.3 1018.48 436.972 1017.97 437.86C1017.49 438.724 1017.25 439.756 1017.25 440.956C1017.25 442.156 1017.49 443.212 1017.97 444.124C1018.48 445.012 1019.13 445.696 1019.92 446.176C1020.73 446.656 1021.6 446.896 1022.51 446.896C1023.45 446.896 1024.32 446.668 1025.14 446.212C1025.95 445.732 1026.6 445.06 1027.08 444.196C1027.56 443.308 1027.8 442.252 1027.8 441.028ZM1056.63 431.056V451H1051.55V448.48C1050.9 449.344 1050.05 450.028 1049 450.532C1047.96 451.012 1046.84 451.252 1045.61 451.252C1044.05 451.252 1042.67 450.928 1041.47 450.28C1040.27 449.608 1039.32 448.636 1038.63 447.364C1037.96 446.068 1037.62 444.532 1037.62 442.756V431.056H1042.66V442.036C1042.66 443.62 1043.06 444.844 1043.85 445.708C1044.64 446.548 1045.72 446.968 1047.09 446.968C1048.48 446.968 1049.57 446.548 1050.36 445.708C1051.16 444.844 1051.55 443.62 1051.55 442.036V431.056H1056.63ZM1072.65 430.768C1075.03 430.768 1076.95 431.524 1078.41 433.036C1079.88 434.524 1080.61 436.612 1080.61 439.3V451H1075.57V439.984C1075.57 438.4 1075.17 437.188 1074.38 436.348C1073.59 435.484 1072.51 435.052 1071.14 435.052C1069.75 435.052 1068.65 435.484 1067.83 436.348C1067.04 437.188 1066.64 438.4 1066.64 439.984V451H1061.6V431.056H1066.64V433.54C1067.31 432.676 1068.17 432.004 1069.2 431.524C1070.25 431.02 1071.41 430.768 1072.65 430.768ZM1084.11 440.956C1084.11 438.94 1084.5 437.152 1085.29 435.592C1086.11 434.032 1087.2 432.832 1088.57 431.992C1089.96 431.152 1091.51 430.732 1093.21 430.732C1094.7 430.732 1096 431.032 1097.1 431.632C1098.23 432.232 1099.13 432.988 1099.8 433.9V431.056H1104.88V451H1099.8V448.084C1099.15 449.02 1098.25 449.8 1097.1 450.424C1095.97 451.024 1094.67 451.324 1093.18 451.324C1091.5 451.324 1089.96 450.892 1088.57 450.028C1087.2 449.164 1086.11 447.952 1085.29 446.392C1084.5 444.808 1084.11 442.996 1084.11 440.956ZM1099.8 441.028C1099.8 439.804 1099.56 438.76 1099.08 437.896C1098.6 437.008 1097.95 436.336 1097.14 435.88C1096.32 435.4 1095.45 435.16 1094.51 435.16C1093.57 435.16 1092.71 435.388 1091.92 435.844C1091.13 436.3 1090.48 436.972 1089.97 437.86C1089.49 438.724 1089.25 439.756 1089.25 440.956C1089.25 442.156 1089.49 443.212 1089.97 444.124C1090.48 445.012 1091.13 445.696 1091.92 446.176C1092.73 446.656 1093.6 446.896 1094.51 446.896C1095.45 446.896 1096.32 446.668 1097.14 446.212C1097.95 445.732 1098.6 445.06 1099.08 444.196C1099.56 443.308 1099.8 442.252 1099.8 441.028ZM1137.21 431.056V451H1132.13V448.48C1131.48 449.344 1130.63 450.028 1129.57 450.532C1128.54 451.012 1127.41 451.252 1126.19 451.252C1124.63 451.252 1123.25 450.928 1122.05 450.28C1120.85 449.608 1119.9 448.636 1119.21 447.364C1118.53 446.068 1118.2 444.532 1118.2 442.756V431.056H1123.24V442.036C1123.24 443.62 1123.63 444.844 1124.43 445.708C1125.22 446.548 1126.3 446.968 1127.67 446.968C1129.06 446.968 1130.15 446.548 1130.94 445.708C1131.73 444.844 1132.13 443.62 1132.13 442.036V431.056H1137.21ZM1153.23 430.768C1155.61 430.768 1157.53 431.524 1158.99 433.036C1160.46 434.524 1161.19 436.612 1161.19 439.3V451H1156.15V439.984C1156.15 438.4 1155.75 437.188 1154.96 436.348C1154.17 435.484 1153.09 435.052 1151.72 435.052C1150.33 435.052 1149.22 435.484 1148.41 436.348C1147.62 437.188 1147.22 438.4 1147.22 439.984V451H1142.18V431.056H1147.22V433.54C1147.89 432.676 1148.74 432.004 1149.78 431.524C1150.83 431.02 1151.98 430.768 1153.23 430.768ZM1171.85 435.196V444.844C1171.85 445.516 1172 446.008 1172.32 446.32C1172.65 446.608 1173.2 446.752 1173.97 446.752H1176.31V451H1173.14C1168.9 451 1166.77 448.936 1166.77 444.808V435.196H1164.4V431.056H1166.77V426.124H1171.85V431.056H1176.31V435.196H1171.85ZM1198.77 431.056V451H1193.69V448.48C1193.04 449.344 1192.19 450.028 1191.13 450.532C1190.1 451.012 1188.97 451.252 1187.75 451.252C1186.19 451.252 1184.81 450.928 1183.61 450.28C1182.41 449.608 1181.46 448.636 1180.77 447.364C1180.09 446.068 1179.76 444.532 1179.76 442.756V431.056H1184.8V442.036C1184.8 443.62 1185.19 444.844 1185.99 445.708C1186.78 446.548 1187.86 446.968 1189.23 446.968C1190.62 446.968 1191.71 446.548 1192.5 445.708C1193.29 444.844 1193.69 443.62 1193.69 442.036V431.056H1198.77ZM1215.55 451L1208.78 442.504V451H1203.74V424.36H1208.78V439.516L1215.47 431.056H1222.03L1213.24 441.064L1222.1 451H1215.55Z" fill="white"/>
<path d="M362.856 231.616H349.512L347.304 238H340.248L352.296 204.448H360.12L372.168 238H365.064L362.856 231.616ZM361.032 226.24L356.184 212.224L351.336 226.24H361.032ZM398.525 210.976C400.509 210.976 402.253 211.376 403.757 212.176C405.261 212.944 406.445 213.952 407.309 215.2V211.408H414.077V238.192C414.077 240.656 413.581 242.848 412.589 244.768C411.597 246.72 410.109 248.256 408.125 249.376C406.141 250.528 403.741 251.104 400.925 251.104C397.149 251.104 394.045 250.224 391.613 248.464C389.213 246.704 387.853 244.304 387.533 241.264H394.205C394.557 242.48 395.309 243.44 396.461 244.144C397.645 244.88 399.069 245.248 400.733 245.248C402.685 245.248 404.269 244.656 405.485 243.472C406.701 242.32 407.309 240.56 407.309 238.192V234.064C406.445 235.312 405.245 236.352 403.709 237.184C402.205 238.016 400.477 238.432 398.525 238.432C396.285 238.432 394.237 237.856 392.381 236.704C390.525 235.552 389.053 233.936 387.965 231.856C386.909 229.744 386.381 227.328 386.381 224.608C386.381 221.92 386.909 219.536 387.965 217.456C389.053 215.376 390.509 213.776 392.333 212.656C394.189 211.536 396.253 210.976 398.525 210.976ZM407.309 224.704C407.309 223.072 406.989 221.68 406.349 220.528C405.709 219.344 404.845 218.448 403.757 217.84C402.669 217.2 401.501 216.88 400.253 216.88C399.005 216.88 397.853 217.184 396.797 217.792C395.741 218.4 394.877 219.296 394.205 220.48C393.565 221.632 393.245 223.008 393.245 224.608C393.245 226.208 393.565 227.616 394.205 228.832C394.877 230.016 395.741 230.928 396.797 231.568C397.885 232.208 399.037 232.528 400.253 232.528C401.501 232.528 402.669 232.224 403.757 231.616C404.845 230.976 405.709 230.08 406.349 228.928C406.989 227.744 407.309 226.336 407.309 224.704ZM427.36 215.536C428.224 214.128 429.344 213.024 430.72 212.224C432.128 211.424 433.728 211.024 435.52 211.024V218.08H433.744C431.632 218.08 430.032 218.576 428.944 219.568C427.888 220.56 427.36 222.288 427.36 224.752V238H420.64V211.408H427.36V215.536ZM464.766 224.128C464.766 225.088 464.702 225.952 464.574 226.72H445.134C445.294 228.64 445.966 230.144 447.15 231.232C448.334 232.32 449.79 232.864 451.518 232.864C454.014 232.864 455.79 231.792 456.846 229.648H464.094C463.326 232.208 461.854 234.32 459.678 235.984C457.502 237.616 454.83 238.432 451.662 238.432C449.102 238.432 446.798 237.872 444.75 236.752C442.734 235.6 441.15 233.984 439.998 231.904C438.878 229.824 438.318 227.424 438.318 224.704C438.318 221.952 438.878 219.536 439.998 217.456C441.118 215.376 442.686 213.776 444.702 212.656C446.718 211.536 449.038 210.976 451.662 210.976C454.19 210.976 456.446 211.52 458.43 212.608C460.446 213.696 461.998 215.248 463.086 217.264C464.206 219.248 464.766 221.536 464.766 224.128ZM457.806 222.208C457.774 220.48 457.15 219.104 455.934 218.08C454.718 217.024 453.23 216.496 451.47 216.496C449.806 216.496 448.398 217.008 447.246 218.032C446.126 219.024 445.438 220.416 445.182 222.208H457.806ZM467.943 224.608C467.943 221.92 468.471 219.536 469.527 217.456C470.615 215.376 472.071 213.776 473.895 212.656C475.751 211.536 477.815 210.976 480.087 210.976C482.071 210.976 483.799 211.376 485.271 212.176C486.775 212.976 487.975 213.984 488.871 215.2V211.408H495.639V238H488.871V234.112C488.007 235.36 486.807 236.4 485.271 237.232C483.767 238.032 482.023 238.432 480.039 238.432C477.799 238.432 475.751 237.856 473.895 236.704C472.071 235.552 470.615 233.936 469.527 231.856C468.471 229.744 467.943 227.328 467.943 224.608ZM488.871 224.704C488.871 223.072 488.551 221.68 487.911 220.528C487.271 219.344 486.407 218.448 485.319 217.84C484.231 217.2 483.063 216.88 481.815 216.88C480.567 216.88 479.415 217.184 478.359 217.792C477.303 218.4 476.439 219.296 475.767 220.48C475.127 221.632 474.807 223.008 474.807 224.608C474.807 226.208 475.127 227.616 475.767 228.832C476.439 230.016 477.303 230.928 478.359 231.568C479.447 232.208 480.599 232.528 481.815 232.528C483.063 232.528 484.231 232.224 485.319 231.616C486.407 230.976 487.271 230.08 487.911 228.928C488.551 227.744 488.871 226.336 488.871 224.704ZM510.027 216.928V229.792C510.027 230.688 510.235 231.344 510.651 231.76C511.099 232.144 511.835 232.336 512.859 232.336H515.979V238H511.755C506.091 238 503.259 235.248 503.259 229.744V216.928H500.091V211.408H503.259V204.832H510.027V211.408H515.979V216.928H510.027ZM544.442 216.928H539.786V238H532.97V216.928H529.946V211.408H532.97V210.064C532.97 206.8 533.898 204.4 535.754 202.864C537.61 201.328 540.41 200.608 544.154 200.704V206.368C542.522 206.336 541.386 206.608 540.746 207.184C540.106 207.76 539.786 208.8 539.786 210.304V211.408H544.442V216.928ZM573.9 211.408V238H567.132V234.64C566.268 235.792 565.132 236.704 563.724 237.376C562.348 238.016 560.844 238.336 559.212 238.336C557.132 238.336 555.292 237.904 553.692 237.04C552.092 236.144 550.828 234.848 549.9 233.152C549.004 231.424 548.556 229.376 548.556 227.008V211.408H555.276V226.048C555.276 228.16 555.804 229.792 556.86 230.944C557.916 232.064 559.356 232.624 561.18 232.624C563.036 232.624 564.492 232.064 565.548 230.944C566.604 229.792 567.132 228.16 567.132 226.048V211.408H573.9ZM588.355 216.928V229.792C588.355 230.688 588.563 231.344 588.979 231.76C589.427 232.144 590.163 232.336 591.187 232.336H594.307V238H590.083C584.419 238 581.587 235.248 581.587 229.744V216.928H578.419V211.408H581.587V204.832H588.355V211.408H594.307V216.928H588.355ZM624.244 211.408V238H617.476V234.64C616.612 235.792 615.476 236.704 614.068 237.376C612.692 238.016 611.188 238.336 609.556 238.336C607.476 238.336 605.636 237.904 604.036 237.04C602.436 236.144 601.172 234.848 600.244 233.152C599.348 231.424 598.9 229.376 598.9 227.008V211.408H605.62V226.048C605.62 228.16 606.148 229.792 607.204 230.944C608.26 232.064 609.7 232.624 611.524 232.624C613.38 232.624 614.836 232.064 615.892 230.944C616.948 229.792 617.476 228.16 617.476 226.048V211.408H624.244ZM637.595 215.536C638.459 214.128 639.579 213.024 640.955 212.224C642.363 211.424 643.963 211.024 645.755 211.024V218.08H643.979C641.867 218.08 640.267 218.576 639.179 219.568C638.123 220.56 637.595 222.288 637.595 224.752V238H630.875V211.408H637.595V215.536ZM675.001 224.128C675.001 225.088 674.937 225.952 674.809 226.72H655.369C655.529 228.64 656.201 230.144 657.385 231.232C658.569 232.32 660.025 232.864 661.753 232.864C664.249 232.864 666.025 231.792 667.081 229.648H674.329C673.561 232.208 672.089 234.32 669.913 235.984C667.737 237.616 665.065 238.432 661.897 238.432C659.337 238.432 657.033 237.872 654.985 236.752C652.969 235.6 651.385 233.984 650.233 231.904C649.113 229.824 648.553 227.424 648.553 224.704C648.553 221.952 649.113 219.536 650.233 217.456C651.353 215.376 652.921 213.776 654.937 212.656C656.953 211.536 659.273 210.976 661.897 210.976C664.425 210.976 666.681 211.52 668.665 212.608C670.681 213.696 672.233 215.248 673.321 217.264C674.441 219.248 675.001 221.536 675.001 224.128ZM668.041 222.208C668.009 220.48 667.385 219.104 666.169 218.08C664.953 217.024 663.465 216.496 661.705 216.496C660.041 216.496 658.633 217.008 657.481 218.032C656.361 219.024 655.673 220.416 655.417 222.208H668.041ZM682.882 238.336C681.666 238.336 680.658 237.968 679.858 237.232C679.09 236.464 678.706 235.52 678.706 234.4C678.706 233.28 679.09 232.352 679.858 231.616C680.658 230.848 681.666 230.464 682.882 230.464C684.066 230.464 685.042 230.848 685.81 231.616C686.578 232.352 686.962 233.28 686.962 234.4C686.962 235.52 686.578 236.464 685.81 237.232C685.042 237.968 684.066 238.336 682.882 238.336ZM710.532 204.496V238H703.812V204.496H710.532ZM724.995 216.928V229.792C724.995 230.688 725.203 231.344 725.619 231.76C726.067 232.144 726.803 232.336 727.827 232.336H730.947V238H726.723C721.059 238 718.227 235.248 718.227 229.744V216.928H715.059V211.408H718.227V204.832H724.995V211.408H730.947V216.928H724.995ZM737.125 204.496H744.181L738.997 216.592H734.389L737.125 204.496ZM759.176 238.432C757 238.432 755.048 238.048 753.32 237.28C751.592 236.48 750.216 235.408 749.192 234.064C748.2 232.72 747.656 231.232 747.56 229.6H754.328C754.456 230.624 754.952 231.472 755.816 232.144C756.712 232.816 757.816 233.152 759.128 233.152C760.408 233.152 761.4 232.896 762.104 232.384C762.84 231.872 763.208 231.216 763.208 230.416C763.208 229.552 762.76 228.912 761.864 228.496C761 228.048 759.608 227.568 757.688 227.056C755.704 226.576 754.072 226.08 752.792 225.568C751.544 225.056 750.456 224.272 749.528 223.216C748.632 222.16 748.184 220.736 748.184 218.944C748.184 217.472 748.6 216.128 749.432 214.912C750.296 213.696 751.512 212.736 753.08 212.032C754.68 211.328 756.552 210.976 758.696 210.976C761.864 210.976 764.392 211.776 766.28 213.376C768.168 214.944 769.208 217.072 769.4 219.76H762.968C762.872 218.704 762.424 217.872 761.624 217.264C760.856 216.624 759.816 216.304 758.504 216.304C757.288 216.304 756.344 216.528 755.672 216.976C755.032 217.424 754.712 218.048 754.712 218.848C754.712 219.744 755.16 220.432 756.056 220.912C756.952 221.36 758.344 221.824 760.232 222.304C762.152 222.784 763.736 223.28 764.984 223.792C766.232 224.304 767.304 225.104 768.2 226.192C769.128 227.248 769.608 228.656 769.64 230.416C769.64 231.952 769.208 233.328 768.344 234.544C767.512 235.76 766.296 236.72 764.696 237.424C763.128 238.096 761.288 238.432 759.176 238.432ZM823.457 211.408L815.681 238H808.433L803.585 219.424L798.737 238H791.441L783.617 211.408H790.433L795.137 231.664L800.225 211.408H807.329L812.321 231.616L817.025 211.408H823.457ZM842.069 211.024C844.085 211.024 845.877 211.472 847.445 212.368C849.013 213.232 850.229 214.528 851.093 216.256C851.989 217.952 852.437 220 852.437 222.4V238H845.717V223.312C845.717 221.2 845.189 219.584 844.133 218.464C843.077 217.312 841.637 216.736 839.813 216.736C837.957 216.736 836.485 217.312 835.397 218.464C834.341 219.584 833.813 221.2 833.813 223.312V238H827.093V202.48H833.813V214.72C834.677 213.568 835.829 212.672 837.269 212.032C838.709 211.36 840.309 211.024 842.069 211.024ZM857.1 224.608C857.1 221.92 857.628 219.536 858.684 217.456C859.772 215.376 861.228 213.776 863.052 212.656C864.908 211.536 866.972 210.976 869.244 210.976C871.228 210.976 872.956 211.376 874.428 212.176C875.932 212.976 877.132 213.984 878.028 215.2V211.408H884.796V238H878.028V234.112C877.164 235.36 875.964 236.4 874.428 237.232C872.924 238.032 871.18 238.432 869.196 238.432C866.956 238.432 864.908 237.856 863.052 236.704C861.228 235.552 859.772 233.936 858.684 231.856C857.628 229.744 857.1 227.328 857.1 224.608ZM878.028 224.704C878.028 223.072 877.708 221.68 877.068 220.528C876.428 219.344 875.564 218.448 874.476 217.84C873.388 217.2 872.22 216.88 870.972 216.88C869.724 216.88 868.572 217.184 867.516 217.792C866.46 218.4 865.596 219.296 864.924 220.48C864.284 221.632 863.964 223.008 863.964 224.608C863.964 226.208 864.284 227.616 864.924 228.832C865.596 230.016 866.46 230.928 867.516 231.568C868.604 232.208 869.756 232.528 870.972 232.528C872.22 232.528 873.388 232.224 874.476 231.616C875.564 230.976 876.428 230.08 877.068 228.928C877.708 227.744 878.028 226.336 878.028 224.704ZM899.183 216.928V229.792C899.183 230.688 899.391 231.344 899.807 231.76C900.255 232.144 900.991 232.336 902.015 232.336H905.135V238H900.911C895.247 238 892.415 235.248 892.415 229.744V216.928H889.247V211.408H892.415V204.832H899.183V211.408H905.135V216.928H899.183ZM954.43 211.024C957.694 211.024 960.318 212.032 962.302 214.048C964.318 216.032 965.326 218.816 965.326 222.4V238H958.606V223.312C958.606 221.232 958.078 219.648 957.022 218.56C955.966 217.44 954.526 216.88 952.702 216.88C950.878 216.88 949.422 217.44 948.334 218.56C947.278 219.648 946.75 221.232 946.75 223.312V238H940.03V223.312C940.03 221.232 939.502 219.648 938.446 218.56C937.39 217.44 935.95 216.88 934.126 216.88C932.27 216.88 930.798 217.44 929.71 218.56C928.654 219.648 928.126 221.232 928.126 223.312V238H921.406V211.408H928.126V214.624C928.99 213.504 930.094 212.624 931.438 211.984C932.814 211.344 934.318 211.024 935.95 211.024C938.03 211.024 939.886 211.472 941.518 212.368C943.15 213.232 944.414 214.48 945.31 216.112C946.174 214.576 947.422 213.344 949.054 212.416C950.718 211.488 952.51 211.024 954.43 211.024ZM969.975 224.608C969.975 221.92 970.503 219.536 971.559 217.456C972.647 215.376 974.103 213.776 975.927 212.656C977.783 211.536 979.847 210.976 982.119 210.976C984.103 210.976 985.831 211.376 987.303 212.176C988.807 212.976 990.007 213.984 990.903 215.2V211.408H997.671V238H990.903V234.112C990.039 235.36 988.839 236.4 987.303 237.232C985.799 238.032 984.055 238.432 982.071 238.432C979.831 238.432 977.783 237.856 975.927 236.704C974.103 235.552 972.647 233.936 971.559 231.856C970.503 229.744 969.975 227.328 969.975 224.608ZM990.903 224.704C990.903 223.072 990.583 221.68 989.943 220.528C989.303 219.344 988.439 218.448 987.351 217.84C986.263 217.2 985.095 216.88 983.847 216.88C982.599 216.88 981.447 217.184 980.391 217.792C979.335 218.4 978.471 219.296 977.799 220.48C977.159 221.632 976.839 223.008 976.839 224.608C976.839 226.208 977.159 227.616 977.799 228.832C978.471 230.016 979.335 230.928 980.391 231.568C981.479 232.208 982.631 232.528 983.847 232.528C985.095 232.528 986.263 232.224 987.351 231.616C988.439 230.976 989.303 230.08 989.943 228.928C990.583 227.744 990.903 226.336 990.903 224.704ZM1019.98 238L1010.95 226.672V238H1004.23V202.48H1010.95V222.688L1019.88 211.408H1028.62L1016.91 224.752L1028.71 238H1019.98ZM1056.99 224.128C1056.99 225.088 1056.92 225.952 1056.79 226.72H1037.35C1037.51 228.64 1038.19 230.144 1039.37 231.232C1040.55 232.32 1042.01 232.864 1043.74 232.864C1046.23 232.864 1048.01 231.792 1049.07 229.648H1056.31C1055.55 232.208 1054.07 234.32 1051.9 235.984C1049.72 237.616 1047.05 238.432 1043.88 238.432C1041.32 238.432 1039.02 237.872 1036.97 236.752C1034.95 235.6 1033.37 233.984 1032.22 231.904C1031.1 229.824 1030.54 227.424 1030.54 224.704C1030.54 221.952 1031.1 219.536 1032.22 217.456C1033.34 215.376 1034.91 213.776 1036.92 212.656C1038.94 211.536 1041.26 210.976 1043.88 210.976C1046.41 210.976 1048.67 211.52 1050.65 212.608C1052.67 213.696 1054.22 215.248 1055.31 217.264C1056.43 219.248 1056.99 221.536 1056.99 224.128ZM1050.03 222.208C1049.99 220.48 1049.37 219.104 1048.15 218.08C1046.94 217.024 1045.45 216.496 1043.69 216.496C1042.03 216.496 1040.62 217.008 1039.47 218.032C1038.35 219.024 1037.66 220.416 1037.4 222.208H1050.03ZM1072.07 238.432C1069.89 238.432 1067.94 238.048 1066.21 237.28C1064.48 236.48 1063.11 235.408 1062.08 234.064C1061.09 232.72 1060.55 231.232 1060.45 229.6H1067.22C1067.35 230.624 1067.84 231.472 1068.71 232.144C1069.6 232.816 1070.71 233.152 1072.02 233.152C1073.3 233.152 1074.29 232.896 1074.99 232.384C1075.73 231.872 1076.1 231.216 1076.1 230.416C1076.1 229.552 1075.65 228.912 1074.75 228.496C1073.89 228.048 1072.5 227.568 1070.58 227.056C1068.59 226.576 1066.96 226.08 1065.68 225.568C1064.43 225.056 1063.35 224.272 1062.42 223.216C1061.52 222.16 1061.07 220.736 1061.07 218.944C1061.07 217.472 1061.49 216.128 1062.32 214.912C1063.19 213.696 1064.4 212.736 1065.97 212.032C1067.57 211.328 1069.44 210.976 1071.59 210.976C1074.75 210.976 1077.28 211.776 1079.17 213.376C1081.06 214.944 1082.1 217.072 1082.29 219.76H1075.86C1075.76 218.704 1075.31 217.872 1074.51 217.264C1073.75 216.624 1072.71 216.304 1071.39 216.304C1070.18 216.304 1069.23 216.528 1068.56 216.976C1067.92 217.424 1067.6 218.048 1067.6 218.848C1067.6 219.744 1068.05 220.432 1068.95 220.912C1069.84 221.36 1071.23 221.824 1073.12 222.304C1075.04 222.784 1076.63 223.28 1077.87 223.792C1079.12 224.304 1080.19 225.104 1081.09 226.192C1082.02 227.248 1082.5 228.656 1082.53 230.416C1082.53 231.952 1082.1 233.328 1081.23 234.544C1080.4 235.76 1079.19 236.72 1077.59 237.424C1076.02 238.096 1074.18 238.432 1072.07 238.432ZM1124.59 211.408V238H1117.82V234.64C1116.96 235.792 1115.82 236.704 1114.41 237.376C1113.04 238.016 1111.53 238.336 1109.9 238.336C1107.82 238.336 1105.98 237.904 1104.38 237.04C1102.78 236.144 1101.52 234.848 1100.59 233.152C1099.69 231.424 1099.24 229.376 1099.24 227.008V211.408H1105.96V226.048C1105.96 228.16 1106.49 229.792 1107.55 230.944C1108.6 232.064 1110.04 232.624 1111.87 232.624C1113.72 232.624 1115.18 232.064 1116.24 230.944C1117.29 229.792 1117.82 228.16 1117.82 226.048V211.408H1124.59ZM1141.39 238.432C1139.22 238.432 1137.27 238.048 1135.54 237.28C1133.81 236.48 1132.43 235.408 1131.41 234.064C1130.42 232.72 1129.87 231.232 1129.78 229.6H1136.55C1136.67 230.624 1137.17 231.472 1138.03 232.144C1138.93 232.816 1140.03 233.152 1141.35 233.152C1142.63 233.152 1143.62 232.896 1144.32 232.384C1145.06 231.872 1145.43 231.216 1145.43 230.416C1145.43 229.552 1144.98 228.912 1144.08 228.496C1143.22 228.048 1141.83 227.568 1139.91 227.056C1137.92 226.576 1136.29 226.08 1135.01 225.568C1133.76 225.056 1132.67 224.272 1131.75 223.216C1130.85 222.16 1130.4 220.736 1130.4 218.944C1130.4 217.472 1130.82 216.128 1131.65 214.912C1132.51 213.696 1133.73 212.736 1135.3 212.032C1136.9 211.328 1138.77 210.976 1140.91 210.976C1144.08 210.976 1146.61 211.776 1148.5 213.376C1150.39 214.944 1151.43 217.072 1151.62 219.76H1145.19C1145.09 218.704 1144.64 217.872 1143.84 217.264C1143.07 216.624 1142.03 216.304 1140.72 216.304C1139.51 216.304 1138.56 216.528 1137.89 216.976C1137.25 217.424 1136.93 218.048 1136.93 218.848C1136.93 219.744 1137.38 220.432 1138.27 220.912C1139.17 221.36 1140.56 221.824 1142.45 222.304C1144.37 222.784 1145.95 223.28 1147.2 223.792C1148.45 224.304 1149.52 225.104 1150.42 226.192C1151.35 227.248 1151.83 228.656 1151.86 230.416C1151.86 231.952 1151.43 233.328 1150.56 234.544C1149.73 235.76 1148.51 236.72 1146.91 237.424C1145.35 238.096 1143.51 238.432 1141.39 238.432ZM1160.35 238.336C1159.13 238.336 1158.13 237.968 1157.33 237.232C1156.56 236.464 1156.17 235.52 1156.17 234.4C1156.17 233.28 1156.56 232.352 1157.33 231.616C1158.13 230.848 1159.13 230.464 1160.35 230.464C1161.53 230.464 1162.51 230.848 1163.28 231.616C1164.05 232.352 1164.43 233.28 1164.43 234.4C1164.43 235.52 1164.05 236.464 1163.28 237.232C1162.51 237.968 1161.53 238.336 1160.35 238.336Z" fill="white"/>
<path d="M507.252 326.768C509.7 326.768 511.668 327.524 513.156 329.036C514.668 330.524 515.424 332.612 515.424 335.3V347H510.384V335.984C510.384 334.424 509.988 333.236 509.196 332.42C508.404 331.58 507.324 331.16 505.956 331.16C504.588 331.16 503.496 331.58 502.68 332.42C501.888 333.236 501.492 334.424 501.492 335.984V347H496.452V335.984C496.452 334.424 496.056 333.236 495.264 332.42C494.472 331.58 493.392 331.16 492.024 331.16C490.632 331.16 489.528 331.58 488.712 332.42C487.92 333.236 487.524 334.424 487.524 335.984V347H482.484V327.056H487.524V329.468C488.172 328.628 489 327.968 490.008 327.488C491.04 327.008 492.168 326.768 493.392 326.768C494.952 326.768 496.344 327.104 497.568 327.776C498.792 328.424 499.74 329.36 500.412 330.584C501.06 329.432 501.996 328.508 503.22 327.812C504.468 327.116 505.812 326.768 507.252 326.768ZM538.747 336.596C538.747 337.316 538.699 337.964 538.603 338.54H524.023C524.143 339.98 524.647 341.108 525.535 341.924C526.423 342.74 527.515 343.148 528.811 343.148C530.683 343.148 532.015 342.344 532.807 340.736H538.243C537.667 342.656 536.563 344.24 534.931 345.488C533.299 346.712 531.295 347.324 528.919 347.324C526.999 347.324 525.271 346.904 523.735 346.064C522.223 345.2 521.035 343.988 520.171 342.428C519.331 340.868 518.911 339.068 518.911 337.028C518.911 334.964 519.331 333.152 520.171 331.592C521.011 330.032 522.187 328.832 523.699 327.992C525.211 327.152 526.951 326.732 528.919 326.732C530.815 326.732 532.507 327.14 533.995 327.956C535.507 328.772 536.671 329.936 537.487 331.448C538.327 332.936 538.747 334.652 538.747 336.596ZM533.527 335.156C533.503 333.86 533.035 332.828 532.123 332.06C531.211 331.268 530.095 330.872 528.775 330.872C527.527 330.872 526.471 331.256 525.607 332.024C524.767 332.768 524.251 333.812 524.059 335.156H533.527ZM567.193 326.768C569.641 326.768 571.609 327.524 573.097 329.036C574.609 330.524 575.365 332.612 575.365 335.3V347H570.325V335.984C570.325 334.424 569.929 333.236 569.137 332.42C568.345 331.58 567.265 331.16 565.897 331.16C564.529 331.16 563.437 331.58 562.621 332.42C561.829 333.236 561.433 334.424 561.433 335.984V347H556.393V335.984C556.393 334.424 555.997 333.236 555.205 332.42C554.413 331.58 553.333 331.16 551.965 331.16C550.573 331.16 549.469 331.58 548.653 332.42C547.861 333.236 547.465 334.424 547.465 335.984V347H542.425V327.056H547.465V329.468C548.113 328.628 548.941 327.968 549.949 327.488C550.981 327.008 552.109 326.768 553.333 326.768C554.893 326.768 556.285 327.104 557.509 327.776C558.733 328.424 559.681 329.36 560.353 330.584C561.001 329.432 561.937 328.508 563.161 327.812C564.409 327.116 565.753 326.768 567.193 326.768ZM585.188 329.972C585.836 329.012 586.724 328.232 587.852 327.632C589.004 327.032 590.312 326.732 591.776 326.732C593.48 326.732 595.016 327.152 596.384 327.992C597.776 328.832 598.868 330.032 599.66 331.592C600.476 333.128 600.884 334.916 600.884 336.956C600.884 338.996 600.476 340.808 599.66 342.392C598.868 343.952 597.776 345.164 596.384 346.028C595.016 346.892 593.48 347.324 591.776 347.324C590.288 347.324 588.98 347.036 587.852 346.46C586.748 345.86 585.86 345.092 585.188 344.156V347H580.148V320.36H585.188V329.972ZM595.736 336.956C595.736 335.756 595.484 334.724 594.98 333.86C594.5 332.972 593.852 332.3 593.036 331.844C592.244 331.388 591.38 331.16 590.444 331.16C589.532 331.16 588.668 331.4 587.852 331.88C587.06 332.336 586.412 333.008 585.908 333.896C585.428 334.784 585.188 335.828 585.188 337.028C585.188 338.228 585.428 339.272 585.908 340.16C586.412 341.048 587.06 341.732 587.852 342.212C588.668 342.668 589.532 342.896 590.444 342.896C591.38 342.896 592.244 342.656 593.036 342.176C593.852 341.696 594.5 341.012 594.98 340.124C595.484 339.236 595.736 338.18 595.736 336.956ZM623.087 336.596C623.087 337.316 623.039 337.964 622.943 338.54H608.363C608.483 339.98 608.987 341.108 609.875 341.924C610.763 342.74 611.855 343.148 613.151 343.148C615.023 343.148 616.355 342.344 617.147 340.736H622.583C622.007 342.656 620.903 344.24 619.271 345.488C617.639 346.712 615.635 347.324 613.259 347.324C611.339 347.324 609.611 346.904 608.075 346.064C606.563 345.2 605.375 343.988 604.511 342.428C603.671 340.868 603.25 339.068 603.25 337.028C603.25 334.964 603.671 333.152 604.511 331.592C605.351 330.032 606.527 328.832 608.039 327.992C609.551 327.152 611.291 326.732 613.259 326.732C615.155 326.732 616.847 327.14 618.335 327.956C619.847 328.772 621.011 329.936 621.827 331.448C622.667 332.936 623.087 334.652 623.087 336.596ZM617.867 335.156C617.843 333.86 617.375 332.828 616.463 332.06C615.551 331.268 614.435 330.872 613.115 330.872C611.867 330.872 610.811 331.256 609.947 332.024C609.107 332.768 608.591 333.812 608.399 335.156H617.867ZM631.805 330.152C632.453 329.096 633.293 328.268 634.325 327.668C635.381 327.068 636.581 326.768 637.925 326.768V332.06H636.593C635.009 332.06 633.809 332.432 632.993 333.176C632.201 333.92 631.805 335.216 631.805 337.064V347H626.765V327.056H631.805V330.152ZM643.876 324.68C642.988 324.68 642.244 324.404 641.644 323.852C641.068 323.276 640.78 322.568 640.78 321.728C640.78 320.888 641.068 320.192 641.644 319.64C642.244 319.064 642.988 318.776 643.876 318.776C644.764 318.776 645.496 319.064 646.072 319.64C646.672 320.192 646.972 320.888 646.972 321.728C646.972 322.568 646.672 323.276 646.072 323.852C645.496 324.404 644.764 324.68 643.876 324.68ZM646.36 327.056V347H641.32V327.056H646.36ZM663.147 347L656.379 338.504V347H651.339V320.36H656.379V335.516L663.075 327.056H669.627L660.843 337.064L669.699 347H663.147ZM671.067 336.956C671.067 334.94 671.463 333.152 672.255 331.592C673.071 330.032 674.163 328.832 675.531 327.992C676.923 327.152 678.471 326.732 680.175 326.732C681.663 326.732 682.959 327.032 684.063 327.632C685.191 328.232 686.091 328.988 686.763 329.9V327.056H691.839V347H686.763V344.084C686.115 345.02 685.215 345.8 684.063 346.424C682.935 347.024 681.627 347.324 680.139 347.324C678.459 347.324 676.923 346.892 675.531 346.028C674.163 345.164 673.071 343.952 672.255 342.392C671.463 340.808 671.067 338.996 671.067 336.956ZM686.763 337.028C686.763 335.804 686.523 334.76 686.043 333.896C685.563 333.008 684.915 332.336 684.099 331.88C683.283 331.4 682.407 331.16 681.471 331.16C680.535 331.16 679.671 331.388 678.879 331.844C678.087 332.3 677.439 332.972 676.935 333.86C676.455 334.724 676.215 335.756 676.215 336.956C676.215 338.156 676.455 339.212 676.935 340.124C677.439 341.012 678.087 341.696 678.879 342.176C679.695 342.656 680.559 342.896 681.471 342.896C682.407 342.896 683.283 342.668 684.099 342.212C684.915 341.732 685.563 341.06 686.043 340.196C686.523 339.308 686.763 338.252 686.763 337.028ZM707.813 326.768C710.189 326.768 712.109 327.524 713.573 329.036C715.037 330.524 715.769 332.612 715.769 335.3V347H710.729V335.984C710.729 334.4 710.333 333.188 709.541 332.348C708.749 331.484 707.669 331.052 706.301 331.052C704.909 331.052 703.805 331.484 702.989 332.348C702.197 333.188 701.801 334.4 701.801 335.984V347H696.761V327.056H701.801V329.54C702.473 328.676 703.325 328.004 704.357 327.524C705.413 327.02 706.565 326.768 707.813 326.768ZM734.18 329.972C734.828 329.012 735.716 328.232 736.844 327.632C737.996 327.032 739.304 326.732 740.768 326.732C742.472 326.732 744.008 327.152 745.376 327.992C746.768 328.832 747.86 330.032 748.652 331.592C749.468 333.128 749.876 334.916 749.876 336.956C749.876 338.996 749.468 340.808 748.652 342.392C747.86 343.952 746.768 345.164 745.376 346.028C744.008 346.892 742.472 347.324 740.768 347.324C739.28 347.324 737.972 347.036 736.844 346.46C735.74 345.86 734.852 345.092 734.18 344.156V347H729.14V320.36H734.18V329.972ZM744.728 336.956C744.728 335.756 744.476 334.724 743.972 333.86C743.492 332.972 742.844 332.3 742.028 331.844C741.236 331.388 740.372 331.16 739.436 331.16C738.524 331.16 737.66 331.4 736.844 331.88C736.052 332.336 735.404 333.008 734.9 333.896C734.42 334.784 734.18 335.828 734.18 337.028C734.18 338.228 734.42 339.272 734.9 340.16C735.404 341.048 736.052 341.732 736.844 342.212C737.66 342.668 738.524 342.896 739.436 342.896C740.372 342.896 741.236 342.656 742.028 342.176C742.844 341.696 743.492 341.012 743.972 340.124C744.476 339.236 744.728 338.18 744.728 336.956ZM752.243 336.956C752.243 334.94 752.639 333.152 753.431 331.592C754.247 330.032 755.339 328.832 756.707 327.992C758.099 327.152 759.647 326.732 761.351 326.732C762.839 326.732 764.135 327.032 765.239 327.632C766.367 328.232 767.267 328.988 767.939 329.9V327.056H773.015V347H767.939V344.084C767.291 345.02 766.391 345.8 765.239 346.424C764.111 347.024 762.803 347.324 761.315 347.324C759.635 347.324 758.099 346.892 756.707 346.028C755.339 345.164 754.247 343.952 753.431 342.392C752.639 340.808 752.243 338.996 752.243 336.956ZM767.939 337.028C767.939 335.804 767.699 334.76 767.219 333.896C766.739 333.008 766.091 332.336 765.275 331.88C764.459 331.4 763.583 331.16 762.647 331.16C761.711 331.16 760.847 331.388 760.055 331.844C759.263 332.3 758.615 332.972 758.111 333.86C757.631 334.724 757.391 335.756 757.391 336.956C757.391 338.156 757.631 339.212 758.111 340.124C758.615 341.012 759.263 341.696 760.055 342.176C760.871 342.656 761.735 342.896 762.647 342.896C763.583 342.896 764.459 342.668 765.275 342.212C766.091 341.732 766.739 341.06 767.219 340.196C767.699 339.308 767.939 338.252 767.939 337.028ZM776.641 337.028C776.641 334.964 777.061 333.164 777.901 331.628C778.741 330.068 779.905 328.868 781.393 328.028C782.881 327.164 784.585 326.732 786.505 326.732C788.977 326.732 791.017 327.356 792.625 328.604C794.257 329.828 795.349 331.556 795.901 333.788H790.465C790.177 332.924 789.685 332.252 788.989 331.772C788.317 331.268 787.477 331.016 786.469 331.016C785.029 331.016 783.889 331.544 783.049 332.6C782.209 333.632 781.789 335.108 781.789 337.028C781.789 338.924 782.209 340.4 783.049 341.456C783.889 342.488 785.029 343.004 786.469 343.004C788.509 343.004 789.841 342.092 790.465 340.268H795.901C795.349 342.428 794.257 344.144 792.625 345.416C790.993 346.688 788.953 347.324 786.505 347.324C784.585 347.324 782.881 346.904 781.393 346.064C779.905 345.2 778.741 344 777.901 342.464C777.061 340.904 776.641 339.092 776.641 337.028ZM798.297 336.956C798.297 334.94 798.693 333.152 799.485 331.592C800.301 330.032 801.393 328.832 802.761 327.992C804.153 327.152 805.701 326.732 807.405 326.732C808.893 326.732 810.189 327.032 811.293 327.632C812.421 328.232 813.321 328.988 813.993 329.9V327.056H819.069V347H813.993V344.084C813.345 345.02 812.445 345.8 811.293 346.424C810.165 347.024 808.857 347.324 807.369 347.324C805.689 347.324 804.153 346.892 802.761 346.028C801.393 345.164 800.301 343.952 799.485 342.392C798.693 340.808 798.297 338.996 798.297 336.956ZM813.993 337.028C813.993 335.804 813.753 334.76 813.273 333.896C812.793 333.008 812.145 332.336 811.329 331.88C810.513 331.4 809.637 331.16 808.701 331.16C807.765 331.16 806.901 331.388 806.109 331.844C805.317 332.3 804.669 332.972 804.165 333.86C803.685 334.724 803.445 335.756 803.445 336.956C803.445 338.156 803.685 339.212 804.165 340.124C804.669 341.012 805.317 341.696 806.109 342.176C806.925 342.656 807.789 342.896 808.701 342.896C809.637 342.896 810.513 342.668 811.329 342.212C812.145 341.732 812.793 341.06 813.273 340.196C813.753 339.308 813.993 338.252 813.993 337.028ZM822.696 336.956C822.696 334.94 823.092 333.152 823.884 331.592C824.7 330.032 825.792 328.832 827.16 327.992C828.552 327.152 830.1 326.732 831.804 326.732C833.292 326.732 834.588 327.032 835.692 327.632C836.82 328.232 837.72 328.988 838.392 329.9V327.056H843.468V347H838.392V344.084C837.744 345.02 836.844 345.8 835.692 346.424C834.564 347.024 833.256 347.324 831.768 347.324C830.088 347.324 828.552 346.892 827.16 346.028C825.792 345.164 824.7 343.952 823.884 342.392C823.092 340.808 822.696 338.996 822.696 336.956ZM838.392 337.028C838.392 335.804 838.152 334.76 837.672 333.896C837.192 333.008 836.544 332.336 835.728 331.88C834.912 331.4 834.036 331.16 833.1 331.16C832.164 331.16 831.3 331.388 830.508 331.844C829.716 332.3 829.068 332.972 828.564 333.86C828.084 334.724 827.844 335.756 827.844 336.956C827.844 338.156 828.084 339.212 828.564 340.124C829.068 341.012 829.716 341.696 830.508 342.176C831.324 342.656 832.188 342.896 833.1 342.896C834.036 342.896 834.912 342.668 835.728 342.212C836.544 341.732 837.192 341.06 837.672 340.196C838.152 339.308 838.392 338.252 838.392 337.028ZM859.442 326.768C861.818 326.768 863.738 327.524 865.202 329.036C866.666 330.524 867.398 332.612 867.398 335.3V347H862.358V335.984C862.358 334.4 861.962 333.188 861.17 332.348C860.378 331.484 859.298 331.052 857.93 331.052C856.538 331.052 855.434 331.484 854.618 332.348C853.826 333.188 853.43 334.4 853.43 335.984V347H848.39V327.056H853.43V329.54C854.102 328.676 854.954 328.004 855.986 327.524C857.042 327.02 858.194 326.768 859.442 326.768ZM885.809 320.36V347H880.769V320.36H885.809ZM909.329 336.596C909.329 337.316 909.281 337.964 909.185 338.54H894.605C894.725 339.98 895.229 341.108 896.117 341.924C897.005 342.74 898.097 343.148 899.393 343.148C901.265 343.148 902.597 342.344 903.389 340.736H908.825C908.249 342.656 907.145 344.24 905.513 345.488C903.881 346.712 901.877 347.324 899.501 347.324C897.581 347.324 895.853 346.904 894.317 346.064C892.805 345.2 891.617 343.988 890.753 342.428C889.913 340.868 889.493 339.068 889.493 337.028C889.493 334.964 889.913 333.152 890.753 331.592C891.593 330.032 892.769 328.832 894.281 327.992C895.793 327.152 897.533 326.732 899.501 326.732C901.397 326.732 903.089 327.14 904.577 327.956C906.089 328.772 907.253 329.936 908.069 331.448C908.909 332.936 909.329 334.652 909.329 336.596ZM904.109 335.156C904.085 333.86 903.617 332.828 902.705 332.06C901.793 331.268 900.677 330.872 899.357 330.872C898.109 330.872 897.053 331.256 896.189 332.024C895.349 332.768 894.833 333.812 894.641 335.156H904.109ZM924.059 326.768C926.435 326.768 928.355 327.524 929.819 329.036C931.283 330.524 932.015 332.612 932.015 335.3V347H926.975V335.984C926.975 334.4 926.579 333.188 925.787 332.348C924.995 331.484 923.915 331.052 922.547 331.052C921.155 331.052 920.051 331.484 919.235 332.348C918.443 333.188 918.047 334.4 918.047 335.984V347H913.007V327.056H918.047V329.54C918.719 328.676 919.571 328.004 920.603 327.524C921.659 327.02 922.811 326.768 924.059 326.768ZM944.62 326.732C946.108 326.732 947.416 327.032 948.544 327.632C949.672 328.208 950.56 328.964 951.208 329.9V327.056H956.284V347.144C956.284 348.992 955.912 350.636 955.168 352.076C954.424 353.54 953.308 354.692 951.82 355.532C950.332 356.396 948.532 356.828 946.42 356.828C943.588 356.828 941.26 356.168 939.436 354.848C937.636 353.528 936.616 351.728 936.376 349.448H941.38C941.644 350.36 942.208 351.08 943.072 351.608C943.96 352.16 945.028 352.436 946.276 352.436C947.74 352.436 948.928 351.992 949.84 351.104C950.752 350.24 951.208 348.92 951.208 347.144V344.048C950.56 344.984 949.66 345.764 948.508 346.388C947.38 347.012 946.084 347.324 944.62 347.324C942.94 347.324 941.404 346.892 940.012 346.028C938.62 345.164 937.516 343.952 936.7 342.392C935.908 340.808 935.512 338.996 935.512 336.956C935.512 334.94 935.908 333.152 936.7 331.592C937.516 330.032 938.608 328.832 939.976 327.992C941.368 327.152 942.916 326.732 944.62 326.732ZM951.208 337.028C951.208 335.804 950.968 334.76 950.488 333.896C950.008 333.008 949.36 332.336 948.544 331.88C947.728 331.4 946.852 331.16 945.916 331.16C944.98 331.16 944.116 331.388 943.324 331.844C942.532 332.3 941.884 332.972 941.38 333.86C940.9 334.724 940.66 335.756 940.66 336.956C940.66 338.156 940.9 339.212 941.38 340.124C941.884 341.012 942.532 341.696 943.324 342.176C944.14 342.656 945.004 342.896 945.916 342.896C946.852 342.896 947.728 342.668 948.544 342.212C949.36 341.732 950.008 341.06 950.488 340.196C950.968 339.308 951.208 338.252 951.208 337.028ZM973.015 347L966.247 338.504V347H961.207V320.36H966.247V335.516L972.943 327.056H979.495L970.711 337.064L979.567 347H973.015ZM980.934 336.956C980.934 334.94 981.33 333.152 982.122 331.592C982.938 330.032 984.03 328.832 985.398 327.992C986.79 327.152 988.338 326.732 990.042 326.732C991.53 326.732 992.826 327.032 993.93 327.632C995.058 328.232 995.958 328.988 996.63 329.9V327.056H1001.71V347H996.63V344.084C995.982 345.02 995.082 345.8 993.93 346.424C992.802 347.024 991.494 347.324 990.006 347.324C988.326 347.324 986.79 346.892 985.398 346.028C984.03 345.164 982.938 343.952 982.122 342.392C981.33 340.808 980.934 338.996 980.934 336.956ZM996.63 337.028C996.63 335.804 996.39 334.76 995.91 333.896C995.43 333.008 994.782 332.336 993.966 331.88C993.15 331.4 992.274 331.16 991.338 331.16C990.402 331.16 989.538 331.388 988.746 331.844C987.954 332.3 987.306 332.972 986.802 333.86C986.322 334.724 986.082 335.756 986.082 336.956C986.082 338.156 986.322 339.212 986.802 340.124C987.306 341.012 987.954 341.696 988.746 342.176C989.562 342.656 990.426 342.896 991.338 342.896C992.274 342.896 993.15 342.668 993.966 342.212C994.782 341.732 995.43 341.06 995.91 340.196C996.39 339.308 996.63 338.252 996.63 337.028ZM1011.67 329.936C1012.32 329.024 1013.2 328.268 1014.33 327.668C1015.48 327.044 1016.79 326.732 1018.26 326.732C1019.96 326.732 1021.5 327.152 1022.86 327.992C1024.26 328.832 1025.35 330.032 1026.14 331.592C1026.96 333.128 1027.36 334.916 1027.36 336.956C1027.36 338.996 1026.96 340.808 1026.14 342.392C1025.35 343.952 1024.26 345.164 1022.86 346.028C1021.5 346.892 1019.96 347.324 1018.26 347.324C1016.79 347.324 1015.5 347.024 1014.37 346.424C1013.26 345.824 1012.36 345.068 1011.67 344.156V356.504H1006.63V327.056H1011.67V329.936ZM1022.22 336.956C1022.22 335.756 1021.96 334.724 1021.46 333.86C1020.98 332.972 1020.33 332.3 1019.52 331.844C1018.72 331.388 1017.86 331.16 1016.92 331.16C1016.01 331.16 1015.15 331.4 1014.33 331.88C1013.54 332.336 1012.89 333.008 1012.39 333.896C1011.91 334.784 1011.67 335.828 1011.67 337.028C1011.67 338.228 1011.91 339.272 1012.39 340.16C1012.89 341.048 1013.54 341.732 1014.33 342.212C1015.15 342.668 1016.01 342.896 1016.92 342.896C1017.86 342.896 1018.72 342.656 1019.52 342.176C1020.33 341.696 1020.98 341.012 1021.46 340.124C1021.96 339.236 1022.22 338.18 1022.22 336.956Z" fill="#FFBA17"/>
</svg>
